<svg width="461" height="78" viewBox="0 0 461 78" fill="none" xmlns="http://www.w3.org/2000/svg">
<g clip-path="url(#clip0_274_440)">
<path d="M45.6 39.1C45.6 27.4 52.9 17.1 66 17.1C74.8 17.1 80.7 20.9 84.2 28.8L77.1 31.8C74.8 26.7 71.3 24.4 66 24.4C58.4 24.4 53.9 30.5 53.9 39.1C53.9 47.7 58.4 53.8 66 53.8C71.2 53.8 74.8 51.5 77.1 46.4L84.2 49.4C80.6 57.2 74.7 61 66 61C52.9 61 45.6 50.7 45.6 39.1Z" fill="black"/>
<path d="M92 39.1C92 27.4 99.3 17.1 112.3 17.1C121.1 17.1 127 20.9 130.5 28.8L123.4 31.8C121.1 26.7 117.6 24.4 112.3 24.4C104.7 24.4 100.2 30.5 100.2 39.1C100.2 47.7 104.7 53.8 112.3 53.8C117.5 53.8 121.1 51.5 123.4 46.4L130.5 49.4C127 57.3 121.1 61.1 112.3 61.1C99.4 61 92 50.7 92 39.1Z" fill="black"/>
<path d="M137.5 39.1C137.5 27.8 144.5 17.1 157.9 17.1C171.4 17.1 178 27.2 178 37.8V41.2H145.8C146.1 48.5 150.9 53.8 158 53.8C163.9 53.8 168 50.8 170.6 46.1L177.2 49.6C173 57.4 166.6 61 157.9 61C144.7 61 137.5 50.7 137.5 39.1ZM169.6 34.3C168.4 28.3 164.5 24.3 157.9 24.3C151.4 24.3 147.4 28.5 146.2 34.3H169.6Z" fill="black"/>
<path d="M192.8 44.3001V8.50005H181.3V1.30005H201V43.6001C201 50.7001 204.1 53.4001 209.1 53.4001C213.9 53.4001 217 50.4001 218.1 44.2001L225.4 45.6001C223.9 55.9001 217.8 61.0001 209.1 61.0001C199.3 61.0001 192.8 55.0001 192.8 44.3001Z" fill="black"/>
<path d="M233.3 17.8H241.5V23C243.4 20 248 17.1 253.6 17.1C266.3 17.1 273.1 26.1 273.1 39.1C273.1 52.1 266.3 61 253.6 61C248.3 61 243.7 58.4 241.5 55.4V77.5H233.3V17.8ZM264.5 39.1C264.5 30.2 259.9 24.4 252.6 24.4C245.4 24.4 240.8 30.2 240.8 39.1C240.8 48 245.4 53.8 252.6 53.8C259.9 53.8 264.5 48 264.5 39.1Z" fill="black"/>
<path d="M282.2 39.1C282.2 27.3 290.1 17.1 303.1 17.1C316.1 17.1 324 27.2 324 39.1C324 50.9 316.1 61 303.1 61C290.1 61 282.2 50.9 282.2 39.1ZM315.9 39.1C315.9 31.4 311.3 24.4 303.1 24.4C294.9 24.4 290.4 31.4 290.4 39.1C290.4 46.8 295 53.8 303.1 53.8C311.3 53.8 315.9 46.8 315.9 39.1Z" fill="black"/>
<path d="M331.1 53.2H345.3V25H333V17.8H353.6V53.2H368.5V60.4H331.2V53.2H331.1ZM342.7 6.2C342.7 2.7 345.4 0 348.9 0C352.4 0 355.1 2.7 355.1 6.2C355.1 9.7 352.4 12.3 348.9 12.3C345.4 12.2 342.7 9.6 342.7 6.2Z" fill="black"/>
<path d="M378.7 17.8H386.9V25.3C390 20.6 395.3 17.1 401.3 17.1C409.7 17.1 414.3 22.2 414.3 30.4V60.3H406.1V32.5C406.1 26.9 403.2 24.4 398.8 24.4C392.4 24.4 386.9 31.4 386.9 43.3V60.4H378.7V17.8Z" fill="black"/>
<path d="M453.1 44.0999C452.1 50.2999 449 53.2999 444.1 53.2999C439.1 53.2999 436 50.5999 436 43.4999V25.0999H452V17.7999H436V5.69995H427.8V44.2999C427.8 54.9999 434.3 60.9999 444.1 60.9999C452.8 60.9999 458.9 55.8999 460.4 45.5999L453.1 44.0999Z" fill="black"/>
<path d="M14.3 66H7V77.5H14.3V66Z" fill="black"/>
<path d="M30.8 66H23.6V77.5H30.8V66Z" fill="black"/>
<path d="M0 58.8L15 17.8H23.8L38.7 58.8V60.3H0V58.8ZM11.1 53.1H27.7L19.4 28.7001L11.1 53.1Z" fill="black"/>
</g>
<defs>
<clipPath id="clip0_274_440">
<rect width="461" height="78" fill="white"/>
</clipPath>
</defs>
</svg>
