<svg width="235" height="79" viewBox="0 0 235 79" fill="none" xmlns="http://www.w3.org/2000/svg">
<rect y="0.5" width="235" height="78" rx="25" fill="#181818"/>
<path d="M52.5897 40.5817C52.5708 37.4669 54.0296 35.1194 56.9755 33.3884C55.3279 31.1049 52.8352 29.8489 49.5494 29.6069C46.4382 29.3694 43.0343 31.3606 41.788 31.3606C40.4708 31.3606 37.4588 29.6891 35.0888 29.6891C30.1979 29.7621 25 33.4615 25 40.9881C25 43.2123 25.4202 45.5096 26.2605 47.8754C27.3841 50.9902 31.4348 58.6218 35.6601 58.4985C37.8695 58.4483 39.4322 56.9822 42.3073 56.9822C45.0974 56.9822 46.5421 58.4985 49.0064 58.4985C53.2695 58.4391 56.933 51.5017 58 48.3778C52.2828 45.7699 52.5897 40.7415 52.5897 40.5817ZM47.6279 26.6519C50.0215 23.9025 49.8043 21.3997 49.7335 20.5C47.6185 20.6187 45.173 21.893 43.7803 23.4595C42.2459 25.1402 41.3442 27.2182 41.5378 29.5612C43.8227 29.7302 45.9094 28.593 47.6279 26.6519Z" fill="white"/>
<path d="M74.9482 32.5H72.2764L72.2939 31.1201H74.9482C75.8623 31.1201 76.624 30.9297 77.2334 30.5488C77.8428 30.1621 78.2998 29.623 78.6045 28.9316C78.915 28.2344 79.0703 27.4199 79.0703 26.4883V25.7061C79.0703 24.9736 78.9824 24.3232 78.8066 23.7549C78.6309 23.1807 78.373 22.6973 78.0332 22.3047C77.6934 21.9062 77.2773 21.6045 76.7852 21.3994C76.2988 21.1943 75.7393 21.0918 75.1064 21.0918H72.2236V19.7031H75.1064C75.9443 19.7031 76.709 19.8438 77.4004 20.125C78.0918 20.4004 78.6865 20.8018 79.1846 21.3291C79.6885 21.8506 80.0752 22.4834 80.3447 23.2275C80.6143 23.9658 80.749 24.7979 80.749 25.7236V26.4883C80.749 27.4141 80.6143 28.249 80.3447 28.9932C80.0752 29.7314 79.6855 30.3613 79.1758 30.8828C78.6719 31.4043 78.0625 31.8057 77.3477 32.0869C76.6387 32.3623 75.8389 32.5 74.9482 32.5ZM73.1816 19.7031V32.5H71.4854V19.7031H73.1816ZM82.6211 27.8506V27.6484C82.6211 26.9629 82.7207 26.3271 82.9199 25.7412C83.1191 25.1494 83.4062 24.6367 83.7812 24.2031C84.1562 23.7637 84.6104 23.4238 85.1436 23.1836C85.6768 22.9375 86.2744 22.8145 86.9365 22.8145C87.6045 22.8145 88.2051 22.9375 88.7383 23.1836C89.2773 23.4238 89.7344 23.7637 90.1094 24.2031C90.4902 24.6367 90.7803 25.1494 90.9795 25.7412C91.1787 26.3271 91.2783 26.9629 91.2783 27.6484V27.8506C91.2783 28.5361 91.1787 29.1719 90.9795 29.7578C90.7803 30.3438 90.4902 30.8564 90.1094 31.2959C89.7344 31.7295 89.2803 32.0693 88.7471 32.3154C88.2197 32.5557 87.6221 32.6758 86.9541 32.6758C86.2861 32.6758 85.6855 32.5557 85.1523 32.3154C84.6191 32.0693 84.1621 31.7295 83.7812 31.2959C83.4062 30.8564 83.1191 30.3438 82.9199 29.7578C82.7207 29.1719 82.6211 28.5361 82.6211 27.8506ZM84.2471 27.6484V27.8506C84.2471 28.3252 84.3027 28.7734 84.4141 29.1953C84.5254 29.6113 84.6924 29.9805 84.915 30.3027C85.1436 30.625 85.4277 30.8799 85.7676 31.0674C86.1074 31.249 86.5029 31.3398 86.9541 31.3398C87.3994 31.3398 87.7891 31.249 88.123 31.0674C88.4629 30.8799 88.7441 30.625 88.9668 30.3027C89.1895 29.9805 89.3564 29.6113 89.4678 29.1953C89.585 28.7734 89.6436 28.3252 89.6436 27.8506V27.6484C89.6436 27.1797 89.585 26.7373 89.4678 26.3213C89.3564 25.8994 89.1865 25.5273 88.958 25.2051C88.7354 24.877 88.4541 24.6191 88.1143 24.4316C87.7803 24.2441 87.3877 24.1504 86.9365 24.1504C86.4912 24.1504 86.0986 24.2441 85.7588 24.4316C85.4248 24.6191 85.1436 24.877 84.915 25.2051C84.6924 25.5273 84.5254 25.8994 84.4141 26.3213C84.3027 26.7373 84.2471 27.1797 84.2471 27.6484ZM95.7256 30.8125L98.1689 22.9902H99.2412L99.0303 24.5459L96.543 32.5H95.4971L95.7256 30.8125ZM94.082 22.9902L96.165 30.9004L96.3145 32.5H95.2158L92.4561 22.9902H94.082ZM101.579 30.8389L103.565 22.9902H105.183L102.423 32.5H101.333L101.579 30.8389ZM99.4785 22.9902L101.869 30.6807L102.142 32.5H101.104L98.5469 24.5283L98.3359 22.9902H99.4785ZM108.479 25.0205V32.5H106.853V22.9902H108.391L108.479 25.0205ZM108.092 27.3848L107.415 27.3584C107.421 26.708 107.518 26.1074 107.705 25.5566C107.893 25 108.156 24.5166 108.496 24.1064C108.836 23.6963 109.24 23.3799 109.709 23.1572C110.184 22.9287 110.708 22.8145 111.282 22.8145C111.751 22.8145 112.173 22.8789 112.548 23.0078C112.923 23.1309 113.242 23.3301 113.506 23.6055C113.775 23.8809 113.98 24.2383 114.121 24.6777C114.262 25.1113 114.332 25.6416 114.332 26.2686V32.5H112.697V26.251C112.697 25.7529 112.624 25.3545 112.478 25.0557C112.331 24.751 112.117 24.5312 111.836 24.3965C111.555 24.2559 111.209 24.1855 110.799 24.1855C110.395 24.1855 110.025 24.2705 109.691 24.4404C109.363 24.6104 109.079 24.8447 108.839 25.1436C108.604 25.4424 108.42 25.7852 108.285 26.1719C108.156 26.5527 108.092 26.957 108.092 27.3848ZM118.568 19V32.5H116.934V19H118.568ZM120.748 27.8506V27.6484C120.748 26.9629 120.848 26.3271 121.047 25.7412C121.246 25.1494 121.533 24.6367 121.908 24.2031C122.283 23.7637 122.737 23.4238 123.271 23.1836C123.804 22.9375 124.401 22.8145 125.063 22.8145C125.731 22.8145 126.332 22.9375 126.865 23.1836C127.404 23.4238 127.861 23.7637 128.236 24.2031C128.617 24.6367 128.907 25.1494 129.106 25.7412C129.306 26.3271 129.405 26.9629 129.405 27.6484V27.8506C129.405 28.5361 129.306 29.1719 129.106 29.7578C128.907 30.3438 128.617 30.8564 128.236 31.2959C127.861 31.7295 127.407 32.0693 126.874 32.3154C126.347 32.5557 125.749 32.6758 125.081 32.6758C124.413 32.6758 123.812 32.5557 123.279 32.3154C122.746 32.0693 122.289 31.7295 121.908 31.2959C121.533 30.8564 121.246 30.3438 121.047 29.7578C120.848 29.1719 120.748 28.5361 120.748 27.8506ZM122.374 27.6484V27.8506C122.374 28.3252 122.43 28.7734 122.541 29.1953C122.652 29.6113 122.819 29.9805 123.042 30.3027C123.271 30.625 123.555 30.8799 123.895 31.0674C124.234 31.249 124.63 31.3398 125.081 31.3398C125.526 31.3398 125.916 31.249 126.25 31.0674C126.59 30.8799 126.871 30.625 127.094 30.3027C127.316 29.9805 127.483 29.6113 127.595 29.1953C127.712 28.7734 127.771 28.3252 127.771 27.8506V27.6484C127.771 27.1797 127.712 26.7373 127.595 26.3213C127.483 25.8994 127.313 25.5273 127.085 25.2051C126.862 24.877 126.581 24.6191 126.241 24.4316C125.907 24.2441 125.515 24.1504 125.063 24.1504C124.618 24.1504 124.226 24.2441 123.886 24.4316C123.552 24.6191 123.271 24.877 123.042 25.2051C122.819 25.5273 122.652 25.8994 122.541 26.3213C122.43 26.7373 122.374 27.1797 122.374 27.6484ZM137.052 30.874V25.9785C137.052 25.6035 136.976 25.2783 136.823 25.0029C136.677 24.7217 136.454 24.5049 136.155 24.3525C135.856 24.2002 135.487 24.124 135.048 24.124C134.638 24.124 134.277 24.1943 133.967 24.335C133.662 24.4756 133.422 24.6602 133.246 24.8887C133.076 25.1172 132.991 25.3633 132.991 25.627H131.365C131.365 25.2871 131.453 24.9502 131.629 24.6162C131.805 24.2822 132.057 23.9805 132.385 23.7109C132.719 23.4355 133.117 23.2188 133.58 23.0605C134.049 22.8965 134.57 22.8145 135.145 22.8145C135.836 22.8145 136.445 22.9316 136.973 23.166C137.506 23.4004 137.922 23.7549 138.221 24.2295C138.525 24.6982 138.678 25.2871 138.678 25.9961V30.4258C138.678 30.7422 138.704 31.0791 138.757 31.4365C138.815 31.7939 138.9 32.1016 139.012 32.3594V32.5H137.315C137.233 32.3125 137.169 32.0635 137.122 31.7529C137.075 31.4365 137.052 31.1436 137.052 30.874ZM137.333 26.7344L137.351 27.877H135.707C135.244 27.877 134.831 27.915 134.468 27.9912C134.104 28.0615 133.8 28.1699 133.554 28.3164C133.308 28.4629 133.12 28.6475 132.991 28.8701C132.862 29.0869 132.798 29.3418 132.798 29.6348C132.798 29.9336 132.865 30.2061 133 30.4521C133.135 30.6982 133.337 30.8945 133.606 31.041C133.882 31.1816 134.219 31.252 134.617 31.252C135.115 31.252 135.555 31.1465 135.936 30.9355C136.316 30.7246 136.618 30.4668 136.841 30.1621C137.069 29.8574 137.192 29.5615 137.21 29.2744L137.904 30.0566C137.863 30.3027 137.752 30.5752 137.57 30.874C137.389 31.1729 137.146 31.46 136.841 31.7354C136.542 32.0049 136.185 32.2305 135.769 32.4121C135.358 32.5879 134.896 32.6758 134.38 32.6758C133.735 32.6758 133.17 32.5498 132.684 32.2979C132.203 32.0459 131.828 31.709 131.559 31.2871C131.295 30.8594 131.163 30.3818 131.163 29.8545C131.163 29.3447 131.263 28.8965 131.462 28.5098C131.661 28.1172 131.948 27.792 132.323 27.5342C132.698 27.2705 133.149 27.0713 133.677 26.9365C134.204 26.8018 134.793 26.7344 135.443 26.7344H137.333ZM147.229 30.6543V19H148.864V32.5H147.37L147.229 30.6543ZM140.831 27.8506V27.666C140.831 26.9395 140.919 26.2803 141.095 25.6885C141.276 25.0908 141.531 24.5781 141.859 24.1504C142.193 23.7227 142.589 23.3945 143.046 23.166C143.509 22.9316 144.024 22.8145 144.593 22.8145C145.19 22.8145 145.712 22.9199 146.157 23.1309C146.608 23.3359 146.989 23.6377 147.3 24.0361C147.616 24.4287 147.865 24.9033 148.047 25.46C148.229 26.0166 148.354 26.6465 148.425 27.3496V28.1582C148.36 28.8555 148.234 29.4824 148.047 30.0391C147.865 30.5957 147.616 31.0703 147.3 31.4629C146.989 31.8555 146.608 32.1572 146.157 32.3682C145.706 32.5732 145.179 32.6758 144.575 32.6758C144.019 32.6758 143.509 32.5557 143.046 32.3154C142.589 32.0752 142.193 31.7383 141.859 31.3047C141.531 30.8711 141.276 30.3613 141.095 29.7754C140.919 29.1836 140.831 28.542 140.831 27.8506ZM142.466 27.666V27.8506C142.466 28.3252 142.513 28.7705 142.606 29.1865C142.706 29.6025 142.858 29.9688 143.063 30.2852C143.269 30.6016 143.529 30.8506 143.846 31.0322C144.162 31.208 144.54 31.2959 144.979 31.2959C145.519 31.2959 145.961 31.1816 146.307 30.9531C146.658 30.7246 146.939 30.4229 147.15 30.0479C147.361 29.6729 147.525 29.2656 147.643 28.8262V26.708C147.572 26.3857 147.47 26.0752 147.335 25.7764C147.206 25.4717 147.036 25.2021 146.825 24.9678C146.62 24.7275 146.365 24.5371 146.061 24.3965C145.762 24.2559 145.407 24.1855 144.997 24.1855C144.552 24.1855 144.168 24.2793 143.846 24.4668C143.529 24.6484 143.269 24.9004 143.063 25.2227C142.858 25.5391 142.706 25.9082 142.606 26.3301C142.513 26.7461 142.466 27.1914 142.466 27.666ZM155.43 27.8506V27.6484C155.43 26.9629 155.529 26.3271 155.729 25.7412C155.928 25.1494 156.215 24.6367 156.59 24.2031C156.965 23.7637 157.419 23.4238 157.952 23.1836C158.485 22.9375 159.083 22.8145 159.745 22.8145C160.413 22.8145 161.014 22.9375 161.547 23.1836C162.086 23.4238 162.543 23.7637 162.918 24.2031C163.299 24.6367 163.589 25.1494 163.788 25.7412C163.987 26.3271 164.087 26.9629 164.087 27.6484V27.8506C164.087 28.5361 163.987 29.1719 163.788 29.7578C163.589 30.3438 163.299 30.8564 162.918 31.2959C162.543 31.7295 162.089 32.0693 161.556 32.3154C161.028 32.5557 160.431 32.6758 159.763 32.6758C159.095 32.6758 158.494 32.5557 157.961 32.3154C157.428 32.0693 156.971 31.7295 156.59 31.2959C156.215 30.8564 155.928 30.3438 155.729 29.7578C155.529 29.1719 155.43 28.5361 155.43 27.8506ZM157.056 27.6484V27.8506C157.056 28.3252 157.111 28.7734 157.223 29.1953C157.334 29.6113 157.501 29.9805 157.724 30.3027C157.952 30.625 158.236 30.8799 158.576 31.0674C158.916 31.249 159.312 31.3398 159.763 31.3398C160.208 31.3398 160.598 31.249 160.932 31.0674C161.271 30.8799 161.553 30.625 161.775 30.3027C161.998 29.9805 162.165 29.6113 162.276 29.1953C162.394 28.7734 162.452 28.3252 162.452 27.8506V27.6484C162.452 27.1797 162.394 26.7373 162.276 26.3213C162.165 25.8994 161.995 25.5273 161.767 25.2051C161.544 24.877 161.263 24.6191 160.923 24.4316C160.589 24.2441 160.196 24.1504 159.745 24.1504C159.3 24.1504 158.907 24.2441 158.567 24.4316C158.233 24.6191 157.952 24.877 157.724 25.2051C157.501 25.5273 157.334 25.8994 157.223 26.3213C157.111 26.7373 157.056 27.1797 157.056 27.6484ZM167.752 25.0205V32.5H166.126V22.9902H167.664L167.752 25.0205ZM167.365 27.3848L166.688 27.3584C166.694 26.708 166.791 26.1074 166.979 25.5566C167.166 25 167.43 24.5166 167.77 24.1064C168.109 23.6963 168.514 23.3799 168.982 23.1572C169.457 22.9287 169.981 22.8145 170.556 22.8145C171.024 22.8145 171.446 22.8789 171.821 23.0078C172.196 23.1309 172.516 23.3301 172.779 23.6055C173.049 23.8809 173.254 24.2383 173.395 24.6777C173.535 25.1113 173.605 25.6416 173.605 26.2686V32.5H171.971V26.251C171.971 25.7529 171.897 25.3545 171.751 25.0557C171.604 24.751 171.391 24.5312 171.109 24.3965C170.828 24.2559 170.482 24.1855 170.072 24.1855C169.668 24.1855 169.299 24.2705 168.965 24.4404C168.637 24.6104 168.353 24.8447 168.112 25.1436C167.878 25.4424 167.693 25.7852 167.559 26.1719C167.43 26.5527 167.365 26.957 167.365 27.3848ZM184.521 22.9902V24.2383H179.38V22.9902H184.521ZM181.12 20.6787H182.746V30.1445C182.746 30.4668 182.796 30.71 182.896 30.874C182.995 31.0381 183.124 31.1465 183.282 31.1992C183.44 31.252 183.61 31.2783 183.792 31.2783C183.927 31.2783 184.067 31.2666 184.214 31.2432C184.366 31.2139 184.48 31.1904 184.557 31.1729L184.565 32.5C184.437 32.541 184.267 32.5791 184.056 32.6143C183.851 32.6553 183.602 32.6758 183.309 32.6758C182.91 32.6758 182.544 32.5967 182.21 32.4385C181.876 32.2803 181.609 32.0166 181.41 31.6475C181.217 31.2725 181.12 30.7686 181.12 30.1357V20.6787ZM188.055 19V32.5H186.429V19H188.055ZM187.668 27.3848L186.991 27.3584C186.997 26.708 187.094 26.1074 187.281 25.5566C187.469 25 187.732 24.5166 188.072 24.1064C188.412 23.6963 188.816 23.3799 189.285 23.1572C189.76 22.9287 190.284 22.8145 190.858 22.8145C191.327 22.8145 191.749 22.8789 192.124 23.0078C192.499 23.1309 192.818 23.3301 193.082 23.6055C193.352 23.8809 193.557 24.2383 193.697 24.6777C193.838 25.1113 193.908 25.6416 193.908 26.2686V32.5H192.273V26.251C192.273 25.7529 192.2 25.3545 192.054 25.0557C191.907 24.751 191.693 24.5312 191.412 24.3965C191.131 24.2559 190.785 24.1855 190.375 24.1855C189.971 24.1855 189.602 24.2705 189.268 24.4404C188.939 24.6104 188.655 24.8447 188.415 25.1436C188.181 25.4424 187.996 25.7852 187.861 26.1719C187.732 26.5527 187.668 26.957 187.668 27.3848ZM200.289 32.6758C199.627 32.6758 199.026 32.5645 198.487 32.3418C197.954 32.1133 197.494 31.7939 197.107 31.3838C196.727 30.9736 196.434 30.4873 196.229 29.9248C196.023 29.3623 195.921 28.7471 195.921 28.0791V27.71C195.921 26.9365 196.035 26.248 196.264 25.6445C196.492 25.0352 196.803 24.5195 197.195 24.0977C197.588 23.6758 198.033 23.3564 198.531 23.1396C199.029 22.9229 199.545 22.8145 200.078 22.8145C200.758 22.8145 201.344 22.9316 201.836 23.166C202.334 23.4004 202.741 23.7285 203.058 24.1504C203.374 24.5664 203.608 25.0586 203.761 25.627C203.913 26.1895 203.989 26.8047 203.989 27.4727V28.2021H196.888V26.875H202.363V26.752C202.34 26.3301 202.252 25.9199 202.1 25.5215C201.953 25.123 201.719 24.7949 201.396 24.5371C201.074 24.2793 200.635 24.1504 200.078 24.1504C199.709 24.1504 199.369 24.2295 199.059 24.3877C198.748 24.54 198.481 24.7686 198.259 25.0732C198.036 25.3779 197.863 25.75 197.74 26.1895C197.617 26.6289 197.556 27.1357 197.556 27.71V28.0791C197.556 28.5303 197.617 28.9551 197.74 29.3535C197.869 29.7461 198.054 30.0918 198.294 30.3906C198.54 30.6895 198.836 30.9238 199.182 31.0938C199.533 31.2637 199.932 31.3486 200.377 31.3486C200.951 31.3486 201.438 31.2314 201.836 30.9971C202.234 30.7627 202.583 30.4492 202.882 30.0566L203.866 30.8389C203.661 31.1494 203.4 31.4453 203.084 31.7266C202.768 32.0078 202.378 32.2363 201.915 32.4121C201.458 32.5879 200.916 32.6758 200.289 32.6758Z" fill="white"/>
<path d="M77.0508 46.7129L73.1836 58.5H70.0684L75.3516 44.2812H77.334L77.0508 46.7129ZM80.2637 58.5L76.3867 46.7129L76.0742 44.2812H78.0762L83.3887 58.5H80.2637ZM80.0879 53.207V55.502H72.5781V53.207H80.0879ZM87.0312 49.9648V62.5625H84.2188V47.9336H86.8262L87.0312 49.9648ZM93.7207 53.0996V53.3047C93.7207 54.0729 93.6296 54.7858 93.4473 55.4434C93.2715 56.1009 93.0111 56.6738 92.666 57.1621C92.321 57.6439 91.8913 58.0215 91.377 58.2949C90.8691 58.5618 90.2832 58.6953 89.6191 58.6953C88.9746 58.6953 88.4147 58.5651 87.9395 58.3047C87.4642 58.0443 87.0638 57.6797 86.7383 57.2109C86.4193 56.7357 86.1621 56.1855 85.9668 55.5605C85.7715 54.9355 85.6217 54.265 85.5176 53.5488V53.0117C85.6217 52.2435 85.7715 51.5404 85.9668 50.9023C86.1621 50.2578 86.4193 49.7012 86.7383 49.2324C87.0638 48.7572 87.4609 48.3893 87.9297 48.1289C88.4049 47.8685 88.9616 47.7383 89.5996 47.7383C90.2702 47.7383 90.8594 47.8652 91.3672 48.1191C91.8815 48.373 92.3112 48.7376 92.6562 49.2129C93.0078 49.6882 93.2715 50.2546 93.4473 50.9121C93.6296 51.5697 93.7207 52.2988 93.7207 53.0996ZM90.8984 53.3047V53.0996C90.8984 52.6504 90.8594 52.237 90.7812 51.8594C90.7096 51.4753 90.5924 51.14 90.4297 50.8535C90.2734 50.5671 90.0651 50.3457 89.8047 50.1895C89.5508 50.0267 89.2415 49.9453 88.877 49.9453C88.4928 49.9453 88.1641 50.0072 87.8906 50.1309C87.6237 50.2546 87.4056 50.4336 87.2363 50.668C87.0671 50.9023 86.9401 51.1823 86.8555 51.5078C86.7708 51.8333 86.7188 52.2012 86.6992 52.6113V53.9688C86.7318 54.4505 86.8229 54.8835 86.9727 55.2676C87.1224 55.6452 87.3535 55.9447 87.666 56.166C87.9785 56.3874 88.3887 56.498 88.8965 56.498C89.2676 56.498 89.5801 56.4167 89.834 56.2539C90.0879 56.0846 90.293 55.8535 90.4492 55.5605C90.612 55.2676 90.7259 54.929 90.791 54.5449C90.8626 54.1608 90.8984 53.7474 90.8984 53.3047ZM98.2812 49.9648V62.5625H95.4688V47.9336H98.0762L98.2812 49.9648ZM104.971 53.0996V53.3047C104.971 54.0729 104.88 54.7858 104.697 55.4434C104.521 56.1009 104.261 56.6738 103.916 57.1621C103.571 57.6439 103.141 58.0215 102.627 58.2949C102.119 58.5618 101.533 58.6953 100.869 58.6953C100.225 58.6953 99.6647 58.5651 99.1895 58.3047C98.7142 58.0443 98.3138 57.6797 97.9883 57.2109C97.6693 56.7357 97.4121 56.1855 97.2168 55.5605C97.0215 54.9355 96.8717 54.265 96.7676 53.5488V53.0117C96.8717 52.2435 97.0215 51.5404 97.2168 50.9023C97.4121 50.2578 97.6693 49.7012 97.9883 49.2324C98.3138 48.7572 98.7109 48.3893 99.1797 48.1289C99.6549 47.8685 100.212 47.7383 100.85 47.7383C101.52 47.7383 102.109 47.8652 102.617 48.1191C103.132 48.373 103.561 48.7376 103.906 49.2129C104.258 49.6882 104.521 50.2546 104.697 50.9121C104.88 51.5697 104.971 52.2988 104.971 53.0996ZM102.148 53.3047V53.0996C102.148 52.6504 102.109 52.237 102.031 51.8594C101.96 51.4753 101.842 51.14 101.68 50.8535C101.523 50.5671 101.315 50.3457 101.055 50.1895C100.801 50.0267 100.492 49.9453 100.127 49.9453C99.7428 49.9453 99.4141 50.0072 99.1406 50.1309C98.8737 50.2546 98.6556 50.4336 98.4863 50.668C98.3171 50.9023 98.1901 51.1823 98.1055 51.5078C98.0208 51.8333 97.9688 52.2012 97.9492 52.6113V53.9688C97.9818 54.4505 98.0729 54.8835 98.2227 55.2676C98.3724 55.6452 98.6035 55.9447 98.916 56.166C99.2285 56.3874 99.6387 56.498 100.146 56.498C100.518 56.498 100.83 56.4167 101.084 56.2539C101.338 56.0846 101.543 55.8535 101.699 55.5605C101.862 55.2676 101.976 54.929 102.041 54.5449C102.113 54.1608 102.148 53.7474 102.148 53.3047ZM119.277 54.7793C119.277 54.5254 119.238 54.2975 119.16 54.0957C119.089 53.8874 118.952 53.6986 118.75 53.5293C118.548 53.3535 118.265 53.181 117.9 53.0117C117.536 52.8424 117.064 52.6667 116.484 52.4844C115.84 52.276 115.228 52.0417 114.648 51.7812C114.076 51.5208 113.568 51.2181 113.125 50.873C112.689 50.5215 112.344 50.1146 112.09 49.6523C111.842 49.1901 111.719 48.653 111.719 48.041C111.719 47.4486 111.849 46.9115 112.109 46.4297C112.37 45.9414 112.734 45.5247 113.203 45.1797C113.672 44.8281 114.225 44.5579 114.863 44.3691C115.508 44.1803 116.214 44.0859 116.982 44.0859C118.031 44.0859 118.945 44.2747 119.727 44.6523C120.508 45.0299 121.113 45.5475 121.543 46.2051C121.979 46.8626 122.197 47.6146 122.197 48.4609H119.287C119.287 48.0443 119.199 47.6797 119.023 47.3672C118.854 47.0482 118.594 46.7975 118.242 46.6152C117.897 46.4329 117.461 46.3418 116.934 46.3418C116.426 46.3418 116.003 46.4199 115.664 46.5762C115.326 46.7259 115.072 46.931 114.902 47.1914C114.733 47.4453 114.648 47.7318 114.648 48.0508C114.648 48.2917 114.707 48.5098 114.824 48.7051C114.948 48.9004 115.13 49.0827 115.371 49.252C115.612 49.4212 115.908 49.5807 116.26 49.7305C116.611 49.8802 117.018 50.0267 117.48 50.1699C118.255 50.4043 118.936 50.668 119.521 50.9609C120.114 51.2539 120.609 51.5827 121.006 51.9473C121.403 52.3118 121.702 52.7253 121.904 53.1875C122.106 53.6497 122.207 54.1738 122.207 54.7598C122.207 55.3783 122.087 55.9316 121.846 56.4199C121.605 56.9082 121.257 57.3216 120.801 57.6602C120.345 57.9987 119.801 58.2559 119.17 58.4316C118.538 58.6074 117.832 58.6953 117.051 58.6953C116.348 58.6953 115.654 58.6042 114.971 58.4219C114.287 58.2331 113.665 57.9499 113.105 57.5723C112.552 57.1947 112.109 56.7129 111.777 56.127C111.445 55.541 111.279 54.8477 111.279 54.0469H114.219C114.219 54.4896 114.287 54.8639 114.424 55.1699C114.561 55.4759 114.753 55.7233 115 55.9121C115.254 56.1009 115.553 56.2376 115.898 56.3223C116.25 56.4069 116.634 56.4492 117.051 56.4492C117.559 56.4492 117.975 56.3776 118.301 56.2344C118.633 56.0911 118.877 55.8926 119.033 55.6387C119.196 55.3848 119.277 55.0983 119.277 54.7793ZM129.199 47.9336V49.9258H123.047V47.9336H129.199ZM124.57 45.3262H127.383V55.3164C127.383 55.6224 127.422 55.8568 127.5 56.0195C127.585 56.1823 127.708 56.2962 127.871 56.3613C128.034 56.4199 128.239 56.4492 128.486 56.4492C128.662 56.4492 128.818 56.4427 128.955 56.4297C129.098 56.4102 129.219 56.3906 129.316 56.3711L129.326 58.4414C129.085 58.5195 128.825 58.5814 128.545 58.627C128.265 58.6725 127.956 58.6953 127.617 58.6953C126.999 58.6953 126.458 58.5944 125.996 58.3926C125.54 58.1842 125.189 57.8522 124.941 57.3965C124.694 56.9408 124.57 56.3418 124.57 55.5996V45.3262ZM130.098 53.3242V53.1191C130.098 52.3444 130.208 51.6315 130.43 50.9805C130.651 50.3229 130.973 49.7533 131.396 49.2715C131.82 48.7897 132.34 48.4154 132.959 48.1484C133.577 47.875 134.287 47.7383 135.088 47.7383C135.889 47.7383 136.602 47.875 137.227 48.1484C137.852 48.4154 138.376 48.7897 138.799 49.2715C139.229 49.7533 139.554 50.3229 139.775 50.9805C139.997 51.6315 140.107 52.3444 140.107 53.1191V53.3242C140.107 54.0924 139.997 54.8053 139.775 55.4629C139.554 56.1139 139.229 56.6836 138.799 57.1719C138.376 57.6536 137.855 58.028 137.236 58.2949C136.618 58.5618 135.908 58.6953 135.107 58.6953C134.307 58.6953 133.594 58.5618 132.969 58.2949C132.35 58.028 131.826 57.6536 131.396 57.1719C130.973 56.6836 130.651 56.1139 130.43 55.4629C130.208 54.8053 130.098 54.0924 130.098 53.3242ZM132.91 53.1191V53.3242C132.91 53.7669 132.949 54.1803 133.027 54.5645C133.105 54.9486 133.229 55.2871 133.398 55.5801C133.574 55.8665 133.802 56.0911 134.082 56.2539C134.362 56.4167 134.704 56.498 135.107 56.498C135.498 56.498 135.833 56.4167 136.113 56.2539C136.393 56.0911 136.618 55.8665 136.787 55.5801C136.956 55.2871 137.08 54.9486 137.158 54.5645C137.243 54.1803 137.285 53.7669 137.285 53.3242V53.1191C137.285 52.6895 137.243 52.2858 137.158 51.9082C137.08 51.5241 136.953 51.1855 136.777 50.8926C136.608 50.5931 136.383 50.3587 136.104 50.1895C135.824 50.0202 135.485 49.9355 135.088 49.9355C134.691 49.9355 134.352 50.0202 134.072 50.1895C133.799 50.3587 133.574 50.5931 133.398 50.8926C133.229 51.1855 133.105 51.5241 133.027 51.9082C132.949 52.2858 132.91 52.6895 132.91 53.1191ZM144.648 50.2383V58.5H141.836V47.9336H144.482L144.648 50.2383ZM147.832 47.8652L147.783 50.4727C147.646 50.4531 147.48 50.4368 147.285 50.4238C147.096 50.4043 146.924 50.3945 146.768 50.3945C146.37 50.3945 146.025 50.4466 145.732 50.5508C145.446 50.6484 145.205 50.7949 145.01 50.9902C144.821 51.1855 144.678 51.4232 144.58 51.7031C144.489 51.9831 144.437 52.3021 144.424 52.6602L143.857 52.4844C143.857 51.8008 143.926 51.1725 144.062 50.5996C144.199 50.0202 144.398 49.5156 144.658 49.0859C144.925 48.6562 145.251 48.3242 145.635 48.0898C146.019 47.8555 146.458 47.7383 146.953 47.7383C147.109 47.7383 147.269 47.7513 147.432 47.7773C147.594 47.7969 147.728 47.8262 147.832 47.8652ZM153.828 58.6953C153.008 58.6953 152.272 58.5651 151.621 58.3047C150.97 58.0378 150.417 57.6699 149.961 57.2012C149.512 56.7324 149.167 56.1888 148.926 55.5703C148.685 54.9453 148.564 54.2812 148.564 53.5781V53.1875C148.564 52.3867 148.678 51.6543 148.906 50.9902C149.134 50.3262 149.46 49.75 149.883 49.2617C150.312 48.7734 150.833 48.3991 151.445 48.1387C152.057 47.8717 152.747 47.7383 153.516 47.7383C154.264 47.7383 154.928 47.862 155.508 48.1094C156.087 48.3568 156.572 48.7083 156.963 49.1641C157.36 49.6198 157.66 50.1667 157.861 50.8047C158.063 51.4362 158.164 52.1393 158.164 52.9141V54.0859H149.766V52.2109H155.4V51.9961C155.4 51.6055 155.329 51.2572 155.186 50.9512C155.049 50.6387 154.84 50.3913 154.561 50.209C154.281 50.0267 153.923 49.9355 153.486 49.9355C153.115 49.9355 152.796 50.0169 152.529 50.1797C152.262 50.3424 152.044 50.5703 151.875 50.8633C151.712 51.1562 151.589 51.5013 151.504 51.8984C151.426 52.2891 151.387 52.7188 151.387 53.1875V53.5781C151.387 54.0013 151.445 54.3919 151.562 54.75C151.686 55.1081 151.859 55.4173 152.08 55.6777C152.308 55.9382 152.581 56.14 152.9 56.2832C153.226 56.4264 153.594 56.498 154.004 56.498C154.512 56.498 154.984 56.4004 155.42 56.2051C155.863 56.0033 156.243 55.7005 156.562 55.2969L157.93 56.7812C157.708 57.1003 157.406 57.4062 157.021 57.6992C156.644 57.9922 156.188 58.2331 155.654 58.4219C155.12 58.6042 154.512 58.6953 153.828 58.6953Z" fill="white"/>
</svg>
