<svg width="360" height="280" viewBox="0 0 360 280" fill="none" xmlns="http://www.w3.org/2000/svg">
<g clip-path="url(#clip0_145_722)">
<path fill-rule="evenodd" clip-rule="evenodd" d="M84.8901 37.4154C78.7162 37.8249 72.3975 39.913 66.974 43.3363C57.56 49.2783 51.0966 59.1256 49.4718 70.0024C48.4448 76.8767 49.2678 83.714 51.9068 90.2338C52.535 91.7854 54.0115 94.6316 54.9424 96.0851C58.8674 102.214 64.273 107.051 70.7128 110.197C75.0728 112.327 79.7769 113.617 84.6201 114.011C86.0279 114.125 89.4754 114.125 90.9388 114.01C98.3957 113.425 105.674 110.604 111.608 105.999C113.178 104.781 115.062 103.046 116.426 101.563C117.489 100.407 119.485 97.9423 120.113 97.0103C120.784 96.0139 122.298 93.2627 122.926 91.8989C124.967 87.4661 126.103 83.0902 126.428 78.4032C127.21 67.1639 123.084 56.3491 115.004 48.4607C114.086 47.5643 112.97 46.5343 112.525 46.172C106.834 41.5452 100.183 38.6351 93.0948 37.6712C90.7002 37.3455 87.4652 37.2447 84.8901 37.4154ZM212.171 37.7579C211.052 37.8676 209.367 38.187 208.619 38.431C205.281 39.5207 202.601 42.5499 201.718 46.23C201.466 47.278 201.488 49.3829 201.76 50.3979C202.026 51.3861 202.889 53.0605 203.638 54.0393C204.59 55.2827 207.028 57.5895 208.462 58.6031L208.712 58.7797L208.49 59.6999C207.915 62.0812 207.857 62.5231 207.854 64.5686C207.851 66.3621 207.865 66.5423 208.06 67.1098C208.658 68.8502 209.672 69.5649 211.808 69.7537C212.458 69.8111 212.467 69.8153 212.517 70.0858C212.545 70.2364 212.794 71.3863 213.072 72.6411C213.89 76.3343 214.017 76.926 214.017 77.046C214.017 77.1116 213.912 77.1601 213.769 77.1603C213.633 77.1605 212.969 77.257 212.294 77.3748C205.649 78.5338 199.93 81.5264 196.523 85.6272C196.122 86.1098 194.967 87.5115 193.955 88.7421C189.342 94.3522 187.104 96.4733 184.422 97.7743C183.016 98.4566 181.522 98.71 180.215 98.4881C178.473 98.1923 176.859 96.9475 175.847 95.1189C175.562 94.6028 175.43 94.4455 175.282 94.4455C175.165 94.4455 174.849 94.6775 174.477 95.0378C174.084 95.4174 173.841 95.594 173.799 95.5296C173.764 95.4743 172.561 93.6284 171.125 91.4276C168.912 88.0327 168.484 87.426 168.307 87.426C168.159 87.426 167.789 87.7355 167.028 88.4978C166.439 89.0873 165.939 89.5512 165.917 89.5288C165.894 89.5063 165.593 88.7575 165.246 87.8647C162.393 80.5079 159.6 74.4919 157.929 72.1057C157.548 71.5617 149.627 64.0521 149.395 64.0154C149.022 63.9563 148.469 64.9171 148.344 65.8409C148.233 66.6615 148.798 68.3061 149.562 69.3893C149.713 69.6026 149.836 69.7936 149.836 69.8137C149.836 69.8339 149.056 69.898 148.103 69.9563C145.435 70.1193 145.001 69.98 143.081 68.3459C141.146 66.6996 139.895 65.8379 138.674 65.3107C138.263 65.1331 138.033 65.0969 137.317 65.096C136.485 65.0951 136.429 65.1079 135.697 65.462C134.884 65.8552 134.533 66.1178 134.533 66.333C134.533 66.4597 138.527 71.6885 139.356 72.6476C141.087 74.6495 143.147 75.9971 145.702 76.7994C146.317 76.9926 147.751 77.4115 148.889 77.7304C150.027 78.0494 151.199 78.4296 151.494 78.5756C152.937 79.2906 154.022 80.5282 154.562 82.0756C154.73 82.555 154.863 83.3321 155.058 84.9689C155.205 86.1997 155.365 87.5225 155.414 87.9086C155.463 88.2947 155.585 89.3113 155.685 90.168C155.913 92.1157 156.159 94.1965 156.456 96.6777L156.686 98.6028L150.696 104.445C147.401 107.658 144.705 110.329 144.705 110.381C144.705 110.494 145.314 111.057 147.451 112.92C147.896 113.308 149.044 114.312 150.002 115.151L151.743 116.676L149.98 118.335C148.751 119.49 148.216 120.052 148.216 120.184C148.217 120.301 148.329 120.447 148.509 120.562C152.939 123.417 156.282 125.227 160.188 126.886C164.922 128.896 169.005 130.008 173.69 130.562C175.527 130.779 179.28 130.779 181.071 130.562C186.796 129.867 192.013 127.755 196.464 124.33L197.319 123.672L197.39 124.655C197.429 125.196 197.44 127.277 197.413 129.28C197.229 142.969 197.243 144.51 197.593 149.44C197.858 153.16 198.342 156.382 198.814 157.556C199.316 158.805 200.521 160.07 201.777 160.665C202.44 160.98 202.749 161.075 203.719 161.266C203.906 161.303 203.909 161.336 203.962 164.925C204.057 171.239 204.51 175.316 205.42 178.053C205.71 178.925 205.724 179.02 205.641 179.556C205.592 179.87 205.39 181.293 205.191 182.716C204.993 184.14 204.77 185.719 204.697 186.226C204.498 187.607 204.205 189.727 204.205 189.792C204.205 189.824 192.722 189.829 178.686 189.804C159.014 189.77 153.134 189.783 153.021 189.864C152.825 190.004 152.935 190.337 153.195 190.39C153.606 190.474 276.654 190.592 277.132 190.509C278.219 190.32 279.61 189.404 280.257 188.451C280.79 187.667 280.856 187.348 281.479 182.533C281.806 180.004 282.175 177.164 282.299 176.223C282.423 175.282 282.768 172.637 283.065 170.344C283.362 168.052 283.686 165.564 283.784 164.816C283.882 164.068 284 163.16 284.046 162.798C284.091 162.436 284.333 160.571 284.584 158.652C285.033 155.207 285.605 150.806 286.304 145.425C286.501 143.905 286.806 141.562 286.982 140.22C287.316 137.656 287.313 137.528 286.915 137.528C286.82 137.528 286.711 137.616 286.669 137.725C286.628 137.834 286.445 139.088 286.264 140.511C286.083 141.935 285.853 143.712 285.754 144.46C285.584 145.741 285.069 149.695 284.048 157.578C283.287 163.451 282.705 167.926 282.376 170.432C282.03 173.074 281.534 176.901 280.768 182.848C280.494 184.971 280.225 186.867 280.17 187.06C279.891 188.039 278.928 189.094 277.865 189.584L277.252 189.867L270.226 189.891L263.2 189.915L263.04 188.575C262.064 180.423 260.82 173.067 259.511 167.72C259.341 167.025 259.218 166.441 259.237 166.422C259.34 166.321 261.958 170.071 263.188 172.082C263.934 173.302 264.03 173.421 264.239 173.398C264.401 173.379 264.479 173.311 264.499 173.169C264.538 172.906 263.906 169.912 263.33 167.624C262.264 163.387 261.253 160.199 260.024 157.202C259.837 156.744 259.837 156.739 260.014 156.832C260.138 156.896 260.248 156.898 260.366 156.836C260.845 156.586 260.707 151.98 260.139 149.198C259.769 147.389 258.604 143.56 258.006 142.185L257.875 141.884L258.562 140.976L259.249 140.069L261.139 140.121C264.875 140.225 268.912 139.906 273.079 139.179L273.676 139.075L274.306 139.495C274.654 139.726 275.011 139.9 275.104 139.883C275.211 139.864 275.39 139.612 275.601 139.184C275.908 138.56 275.952 138.512 276.273 138.453C276.857 138.346 279.988 137.312 281.078 136.865C288.3 133.908 292.437 129.288 293.044 123.502C293.213 121.896 293.135 119.721 292.826 117.391C292.357 113.847 292.259 110.97 292.546 109.143C292.904 106.868 293.637 104.894 294.877 102.869C296.101 100.868 297.447 99.4592 299.89 97.618C302.521 95.6355 303.474 94.2986 304.052 91.7807C304.226 91.0193 304.255 90.6466 304.252 89.1809C304.249 87.3791 304.161 86.6935 303.711 84.952C303.165 82.8415 301.959 80.2166 300.634 78.2567C298.46 75.0408 295.628 72.5073 292.645 71.1085C290.604 70.1521 288.825 69.7559 286.569 69.7559C284.716 69.7558 283.047 70.0052 280.177 70.7107C274.782 72.0373 272.008 71.8143 268.881 69.8024C268.054 69.2708 266.554 67.8064 266.006 66.996C265.307 65.9614 264.673 64.6988 263.842 62.6821C262.335 59.0234 261.375 57.7742 259.356 56.8414C258.285 56.3471 257.44 56.1725 256.098 56.1683C254.156 56.1622 252.908 56.5228 249.009 58.2169C245.379 59.7935 244.24 60.0949 242.161 60.0277C241.081 59.9929 240.784 59.9512 240.219 59.7555C238.771 59.2535 237.609 58.4691 235.976 56.891C233.879 54.8652 231.818 52.2094 230.017 49.2134C228.87 47.3066 227.846 45.7574 227 44.651C226.094 43.4648 224.446 41.7447 223.488 40.9825C221.529 39.4256 219.426 38.4454 217.032 37.974C215.827 37.7366 213.461 37.6314 212.171 37.7579ZM144.525 37.8228C143.312 38.0237 142.075 38.8767 141.552 39.8738C141.348 40.2634 141.139 41.065 141.063 41.7551C141.003 42.2946 140.671 45.0192 140.426 46.9759C140.306 47.9323 139.967 50.6693 139.427 55.0378C139.242 56.5369 139.31 57.1351 139.765 58.0085C140.117 58.6839 140.879 59.4027 141.618 59.7564L142.14 60.0059L162.628 60.0286L183.116 60.0513L183.978 61.608C184.451 62.4641 185.527 64.4085 186.369 65.9286C187.588 68.1317 187.938 68.6985 188.096 68.722C188.478 68.7787 188.429 69.0295 189.039 63.8666C189.261 61.9845 189.463 60.3583 189.488 60.2528C189.532 60.0661 189.574 60.0604 191.085 60.0334C192.62 60.0062 192.645 60.0026 193.248 59.7243C194.023 59.3661 194.758 58.6611 195.109 57.9392C195.384 57.3712 195.443 57.0834 195.739 54.829C195.84 54.0568 196.128 51.8851 196.377 50.003C197.534 41.2818 197.485 41.7217 197.373 41.0531C197.134 39.6338 196.167 38.5162 194.708 37.9739C194.27 37.8109 193.625 37.8063 169.504 37.796C155.889 37.7903 144.649 37.8023 144.525 37.8228ZM89.8859 38.0287C94.7185 38.2982 100.012 39.6136 103.853 41.4993C104.558 41.8454 104.56 41.8505 104.322 42.8785C104.06 44.0114 103.502 44.8343 102.713 45.2504C102.401 45.4151 102.21 45.4403 101.273 45.4403C100.319 45.4403 100.105 45.411 99.4403 45.1887C98.3014 44.8077 97.7071 44.9321 97.2006 45.6574C96.8945 46.0959 96.8073 46.4831 96.7555 47.6339C96.6701 49.5332 97.0888 51.6024 97.6389 52.0002C97.9399 52.2178 98.1634 52.1529 98.6646 51.7027C99.0386 51.3667 99.2588 51.0569 100.122 49.6533C100.591 48.8902 100.849 48.7166 101.291 48.8678C101.424 48.9136 101.617 49.0891 101.718 49.2576C101.884 49.5326 101.902 49.7047 101.897 50.9243C101.892 52.0484 101.863 52.3418 101.729 52.6152C101.385 53.3132 100.85 53.4862 98.9884 53.5014C97.3686 53.5146 96.9499 53.6347 96.4943 54.2169C96.25 54.5291 96.2328 54.6093 96.1761 55.697C96.0972 57.2112 95.8836 57.7906 95.1068 58.5969C94.5014 59.2254 94.2768 59.702 94.2256 60.4674C94.1941 60.9378 94.2231 61.2072 94.3368 61.4975C94.8827 62.8906 96.2286 62.292 98.1368 59.8073C99.1402 58.5009 99.8867 57.7344 100.385 57.4993C100.719 57.3417 100.9 57.3147 101.393 57.349C101.919 57.3857 102.153 57.4703 103.284 58.034C104.462 58.6205 104.624 58.6777 105.129 58.6832C106.19 58.6949 106.678 58.1393 106.942 56.6183C107.13 55.5307 107.223 55.3116 107.498 55.3116C108.339 55.3116 109.78 56.9039 109.779 57.8317C109.779 58.2419 109.514 58.6824 109.026 59.0843C108.245 59.7286 107.631 60.368 107.571 60.5997C107.398 61.2715 107.882 62.0351 108.727 62.4248C109.033 62.5663 109.332 62.682 109.39 62.682C109.449 62.6821 109.641 62.8151 109.818 62.9776C110.25 63.3745 110.245 63.6532 109.798 64.0886C109.335 64.5398 108.644 64.7349 107.697 64.6814C107.077 64.6465 106.891 64.5911 106.121 64.2135C105.109 63.7176 104.618 63.6661 103.928 63.9835C103.705 64.086 103.432 64.1708 103.321 64.1718C103.025 64.1746 102.468 63.6407 102.048 62.9518C101.623 62.2543 101.225 61.8924 100.883 61.8925C100.504 61.8926 99.6331 62.3389 98.7604 62.9807C97.5462 63.8736 97.3043 64.024 96.1456 64.6069C94.341 65.5148 93.4839 66.2157 93.1565 67.0513C93.0064 67.4345 93.009 67.4872 93.2468 68.9027C93.5308 70.5932 93.5347 70.7146 93.341 71.9066C93.1486 73.0907 93.2036 74.6318 93.4633 75.332C94.1537 77.1936 95.626 77.7658 98.6435 77.3454C100.206 77.1277 100.781 77.1171 101.621 77.2906C102.402 77.452 102.964 77.7716 103.278 78.233L103.523 78.5945L103.58 81.1018C103.611 82.4808 103.685 83.846 103.745 84.1356C103.811 84.4587 104.007 84.9162 104.253 85.3201C104.811 86.2354 104.964 86.7685 104.957 87.777C104.951 88.7802 104.76 89.3844 104.089 90.5189C103.188 92.0447 102.88 93.3991 102.967 95.4447C103.053 97.4488 103.471 98.6142 104.165 98.784C104.722 98.9202 105.695 98.0968 107.413 96.0353C108.041 95.2816 109.129 94.1121 109.832 93.4365C111.211 92.11 111.637 91.5451 112.433 89.9903C113.619 87.6695 114.296 85.3963 114.304 83.6969C114.308 83.0189 114.271 82.8203 114.047 82.2929C113.493 80.9943 113.711 80.236 115.179 78.3444C116.147 77.0975 116.35 76.5932 116.35 75.4409C116.35 74.7232 116.339 74.6852 115.882 73.8489C115.428 73.0169 115.415 72.9717 115.42 72.2901C115.427 71.3009 115.751 70.5048 116.671 69.219C117.134 68.5703 117.284 68.1382 117.23 67.5986C117.166 66.9494 116.833 66.3867 116.064 65.6328C115.331 64.9131 115.222 64.7085 115.563 64.6879C116.958 64.6035 118.201 65.4647 119.018 67.0807C119.51 68.0524 119.793 68.9537 120.174 70.7574C120.699 73.24 121.141 74.6136 121.531 74.9709C121.823 75.2383 121.923 75.1803 122.536 74.3887L123.005 73.7817L122.986 72.4217C122.964 70.9079 122.976 70.8654 123.65 70.0032C124.025 69.5239 124.665 68.2553 124.764 67.7942C124.798 67.6379 124.855 67.4921 124.891 67.4703C124.96 67.4292 125.254 68.914 125.482 70.4475C125.735 72.1524 125.834 73.6299 125.834 75.7121C125.833 80.1587 125.22 83.812 123.76 88.0595C123.256 89.525 123.255 89.5266 122.931 89.626C121.864 89.9531 120.079 91.4277 119.641 92.3437C119.515 92.6069 119.411 92.9605 119.409 93.1294C119.405 93.5574 119.063 94.4912 118.69 95.0955C118.235 95.8314 117.423 96.5989 116.385 97.273C114.466 98.5205 114.133 99.2437 114.355 101.684L114.442 102.65L113.709 103.337C108.804 107.928 102.497 111.2 95.7819 112.637C83.36 115.295 70.4356 111.613 61.3057 102.815C55.2156 96.9458 51.3085 89.3736 50.1057 81.1084C49.5946 77.5957 49.6082 73.597 50.1433 70.0871C51.1123 63.731 53.6114 57.9256 57.6182 52.7231C58.3685 51.749 59.8596 50.0237 59.99 49.9787C60.1283 49.9311 59.8769 51.4822 59.6233 52.2405C59.5184 52.5542 59.0945 53.4462 58.6814 54.2227C57.122 57.1532 56.6611 59.0792 56.52 63.2551C56.473 64.6453 56.4892 65.0421 56.6167 65.6242C57.144 68.0323 58.946 71.573 61.0139 74.2643C61.759 75.234 62.642 76.1596 62.9895 76.3351C63.8084 76.7489 64.2893 76.0601 64.3857 74.3353C64.469 72.8455 64.122 71.2673 63.2801 69.3068C62.6844 67.9197 62.5411 67.4934 62.4462 66.8252C62.2957 65.7669 62.528 65.0034 63.0664 64.7859C63.4629 64.6259 63.8373 64.7416 64.3357 65.1783C64.9837 65.7463 65.6736 66.0496 66.4098 66.0902C66.9823 66.1218 67.0308 66.1091 67.2818 65.8645C67.6135 65.5411 67.7103 65.1889 67.824 63.892C67.8735 63.3268 67.9742 62.751 68.0478 62.6124C68.1213 62.4738 68.4979 62.1477 68.8845 61.8877C69.8294 61.2526 70.3355 60.7413 70.7474 60.0059C70.9366 59.6681 71.2315 59.2241 71.4027 59.0194C71.9868 58.3206 73.3457 57.5166 75.3853 56.6627C75.9502 56.4264 76.5207 56.1342 76.6532 56.0135C76.8819 55.8051 76.8969 55.7393 76.9514 54.6974C77.0151 53.4836 77.1117 53.0973 77.7049 51.6854C77.9276 51.1553 78.1315 50.5174 78.1579 50.2678C78.2025 49.847 78.184 49.7898 77.9032 49.4781C77.3423 48.8553 76.6137 48.6832 75.6813 48.9531C75.4225 49.028 74.7345 49.4005 74.1297 49.7931C72.3277 50.963 71.9051 51.0739 71.3793 50.5143C70.9843 50.0938 70.859 49.7019 70.9179 49.0691C71.005 48.1335 71.6923 47.03 72.5437 46.4591C73.1214 46.0717 73.7144 45.9179 74.9415 45.8375C76.2467 45.752 76.9209 45.5483 77.3453 45.1115C78.1267 44.3072 77.8215 43.3452 76.6106 42.7955C75.888 42.4675 75.5987 42.5126 74.2233 43.1672C71.2993 44.559 69.9398 45.0303 68.2833 45.2259C67.2843 45.3439 65.5522 45.2641 65.6074 45.1025C65.6549 44.9632 67.9125 43.4992 69.1276 42.8197C75.4606 39.2781 82.6287 37.6237 89.8859 38.0287ZM194.516 38.6361C195.877 39.0925 196.734 40.261 196.733 41.6593C196.733 41.9533 196.492 44.0101 196.197 46.23C195.902 48.45 195.537 51.2139 195.387 52.3721C194.809 56.8082 194.767 57.0658 194.539 57.5503C194.24 58.1881 193.653 58.7831 193.001 59.111C192.462 59.3822 192.445 59.3847 190.732 59.4319C189.783 59.458 188.979 59.5062 188.946 59.5389C188.913 59.5715 188.829 60.0454 188.76 60.5918C188.479 62.8084 188.074 66.1815 188.027 66.6964C188 66.9981 187.953 67.2441 187.922 67.2433C187.892 67.2425 187.709 66.9562 187.516 66.6071C187.322 66.2581 186.377 64.551 185.414 62.8137C184.452 61.0764 183.623 59.6059 183.573 59.546C183.5 59.4599 179.166 59.4323 162.945 59.4144L142.41 59.3917L141.897 59.1574C140.924 58.713 140.202 57.7642 140.03 56.7043C139.976 56.3682 140.024 55.6978 140.213 54.1778C140.355 53.0399 140.53 51.6153 140.604 51.0121C140.677 50.4088 140.82 49.244 140.922 48.4236C141.252 45.7618 141.364 44.8579 141.602 42.906C141.746 41.7254 141.904 40.8077 142.014 40.5233C142.345 39.6608 143.085 38.9605 144.002 38.6431C144.466 38.4824 145.207 38.4773 169.242 38.4711C193.584 38.4647 194.014 38.4675 194.516 38.6361ZM80.4173 39.4274C79.1814 39.5807 78.2475 39.956 77.7934 40.482C77.5942 40.7128 77.5763 40.7825 77.6578 41.0104C77.8268 41.4831 78.1885 41.6462 79.1969 41.7044C80.0821 41.7556 80.0988 41.7606 80.3502 42.0542C80.723 42.4895 80.7944 42.9904 80.7944 45.1695C80.7944 46.2463 80.8357 47.3396 80.8862 47.5988C81.063 48.5079 81.7679 49.5024 82.3737 49.6972C83.0183 49.9046 83.4438 49.4546 83.8428 48.1436C84.2614 46.7679 84.2895 46.7292 85.2952 46.1438C86.8365 45.2465 88.2415 44.0211 88.6191 43.2448C88.9772 42.5083 88.8698 41.5825 88.3515 40.9404C88.0268 40.5379 87.3555 40.1364 86.638 39.9154C85.4122 39.5379 81.8066 39.2551 80.4173 39.4274ZM115.354 42.6399C115.268 42.7407 115.262 42.819 115.33 42.925C115.417 43.0599 116.235 43.073 125.857 43.0939C135.453 43.1147 136.297 43.1049 136.398 42.9721C136.474 42.8715 136.479 42.778 136.417 42.6643C136.33 42.5063 135.977 42.5009 125.9 42.5009C116.495 42.5009 115.461 42.5145 115.354 42.6399ZM229.853 42.6391C229.767 42.7406 229.76 42.8189 229.829 42.925C229.917 43.0609 232.139 43.0743 261.194 43.1151L292.465 43.159L293.176 43.404C295.451 44.1884 297.221 46.038 297.816 48.2545C298.018 49.0035 298.054 50.0542 297.912 51.0121C297.866 51.3258 297.585 53.458 297.287 55.7503C296.99 58.0426 296.519 61.6555 296.242 63.7789C295.573 68.8947 295.61 68.4987 295.792 68.6462C295.985 68.8025 296.211 68.6806 296.295 68.3749C296.328 68.2557 296.511 66.9458 296.702 65.464L297.05 62.7698L300.428 62.7711C304.194 62.7726 304.491 62.8055 305.607 63.3452C307.362 64.1939 308.66 65.627 309.308 67.4316C309.588 68.2123 309.677 69.3978 309.538 70.4913C309.486 70.9015 309.198 73.1127 308.9 75.405C308.601 77.6973 308.172 80.9943 307.947 82.7317C307.721 84.469 307.374 87.1342 307.176 88.6544C306.978 90.1746 306.616 92.9583 306.371 94.8404C305.393 102.38 305.024 105.219 303.851 114.232C303.65 115.776 303.263 118.757 302.991 120.857C302.719 122.956 302.395 125.443 302.269 126.384C302.144 127.326 302.006 128.392 301.961 128.754C301.917 129.116 301.695 130.833 301.467 132.57C301.24 134.308 300.854 137.269 300.61 139.151C299.602 146.943 299.152 150.403 298.9 152.313C298.754 153.423 298.41 156.068 298.135 158.192C297.86 160.315 297.496 163.119 297.326 164.422C297.155 165.725 296.81 168.37 296.56 170.3C296.309 172.231 295.881 175.528 295.609 177.627C295.336 179.726 294.913 182.984 294.669 184.866C293.903 190.781 293.23 195.948 293.002 197.677C292.881 198.594 292.574 200.963 292.319 202.941C292.024 205.243 291.797 206.697 291.689 206.978C291.333 207.904 290.285 208.892 289.208 209.316L288.684 209.522L269.511 209.506C258.965 209.497 232.002 209.463 209.592 209.429L168.846 209.369L167.9 207.822C166.261 205.143 164.323 202.426 162.783 200.647C158.508 195.71 149.762 191.592 137.283 188.641C134.675 188.024 130.619 187.234 128.438 186.918L127.699 186.811L127.651 186.453C127.495 185.272 127.255 177.589 127.361 177.176C127.446 176.846 127.776 176.75 128.827 176.75C131.446 176.75 133.537 175.979 135.117 174.431C136.748 172.834 137.711 170.538 138.085 167.361C138.261 165.862 138.262 162.874 138.088 161C138.016 160.227 137.957 159.563 137.956 159.523C137.955 159.482 138.389 159.017 138.922 158.488C140.108 157.31 140.319 156.939 140.266 156.116C140.226 155.481 140.153 155.331 139.332 154.212L138.859 153.566L139.114 153.203C140.42 151.344 140.57 148.383 139.533 144.942C139.085 143.458 138.425 141.844 138.221 141.738C138.087 141.669 137.792 141.777 136.779 142.265C136.078 142.604 135.494 142.88 135.482 142.88C135.469 142.88 135.433 142.673 135.403 142.419C135.244 141.104 134.111 138.371 132.623 135.711L132.122 134.815L132.63 134.445C133.981 133.46 134.9 132.5 135.835 131.098C137.689 128.317 138.712 124.339 138.406 121.098C138.131 118.18 137.096 115.968 135.482 114.845C133.44 113.425 130.355 113.085 126.814 113.891C124.702 114.371 121.616 115.513 118.232 117.065C117.816 117.256 116.819 117.713 116.017 118.08C113.447 119.256 111.724 119.65 106.359 120.286C99.5207 121.097 96.4358 121.85 92.8873 123.575L91.5229 124.238L91.222 124.036C90.5102 123.558 90.8977 123.572 79.2587 123.597L68.5074 123.621L68.0378 123.862C67.4412 124.168 66.9987 124.6 66.685 125.181C66.4659 125.587 66.438 125.733 66.438 126.472C66.438 127.208 66.4665 127.359 66.68 127.754C66.9811 128.311 67.697 128.949 68.2604 129.162C68.6624 129.314 69.1777 129.325 77.0424 129.348L85.3974 129.372L85.111 129.743C84.1875 130.938 83.0362 132.92 82.4997 134.238C82.3425 134.624 82.2005 134.954 82.1841 134.971C82.1676 134.989 82.0203 134.924 81.8569 134.826C81.0921 134.371 81.0679 134.369 74.1265 134.369C67.9145 134.369 67.6491 134.376 67.0853 134.546C66.3424 134.769 65.6919 135.318 65.3389 136.019C64.9969 136.697 64.9802 137.771 65.3009 138.468C65.5504 139.011 66.2241 139.656 66.8226 139.925C67.247 140.116 67.2499 140.116 74.0731 140.116H80.899L80.8482 140.467C80.8202 140.66 80.7709 141.815 80.7386 143.032L80.6799 145.246L73.1984 145.27L65.7169 145.293L65.3307 145.494C64.7766 145.783 64.2498 146.332 63.9775 146.904C63.6573 147.577 63.6469 148.584 63.9531 149.26C64.2314 149.873 64.9453 150.521 65.6101 150.764C66.1265 150.952 66.1626 150.953 73.8649 150.953H81.6011L81.6589 151.194C81.8774 152.108 82.3101 153.555 82.6894 154.64C82.9344 155.341 83.1348 155.943 83.1348 155.978C83.1348 156.013 79.0047 156.042 73.9567 156.042C64.9189 156.042 64.771 156.045 64.2844 156.222C63.5879 156.476 62.9679 157.049 62.655 157.727C62.3006 158.494 62.2977 159.415 62.6473 160.112C62.9414 160.698 63.4728 161.229 64.0341 161.499L64.4567 161.702L75.1996 161.745L85.9427 161.789L86.5729 162.842C87.8859 165.035 89.8098 167.722 91.5369 169.774C93.6146 172.243 96.7936 175.4 99.3375 177.523C100.308 178.332 100.736 178.746 100.745 178.881C100.751 178.988 100.808 179.49 100.869 179.996C100.948 180.637 100.964 181.519 100.922 182.892C100.868 184.664 100.705 186.51 100.594 186.604C100.571 186.624 99.9451 186.746 99.2025 186.875C94.1985 187.749 90.0584 189.031 86.0896 190.935C79.918 193.895 75.106 198.028 71.6766 203.315C71.057 204.27 69.5345 207.185 68.9846 208.469L68.6839 209.171L67.6055 209.166C66.6944 209.162 66.4433 209.129 65.987 208.955C65.2643 208.679 64.5052 207.934 64.2383 207.238C63.8833 206.313 63.893 205.963 64.3701 202.459C64.5049 201.469 64.6289 200.536 65.0815 197.106C65.2057 196.165 65.4304 194.467 65.5809 193.333C65.7314 192.199 65.88 191.045 65.911 190.767L65.9675 190.263L73.6735 190.241L81.3795 190.218V189.955V189.692L68.1023 189.633C52.7011 189.564 52.9004 189.568 52.3497 189.323C51.3792 188.892 50.6244 187.888 50.4694 186.821C50.3727 186.156 50.3721 186.161 51.1795 180.128C51.2952 179.264 51.6808 176.353 51.9003 174.688C52.0021 173.916 52.208 172.356 52.3581 171.222C52.5081 170.088 52.7688 168.113 52.9373 166.835C53.1058 165.556 53.3454 163.739 53.4696 162.798C53.5939 161.857 53.7788 160.456 53.8806 159.683C54.1269 157.814 54.5353 154.736 54.8233 152.576C54.9521 151.611 55.1762 149.913 55.3214 148.803C55.4665 147.693 55.7886 145.245 56.0374 143.363C56.453 140.217 56.6123 139.017 56.9875 136.212C57.0616 135.657 57.4255 132.893 57.7959 130.07C58.1664 127.247 58.5512 124.325 58.6511 123.577C58.751 122.829 58.8927 121.763 58.9658 121.208C59.099 120.196 59.3198 118.536 59.648 116.075C59.7445 115.351 59.8832 114.304 59.9563 113.749C60.0293 113.194 60.1701 112.128 60.2693 111.38C60.3685 110.632 60.5238 109.46 60.6144 108.775C60.7842 107.493 60.7598 107.256 60.4576 107.256C60.2216 107.256 60.1242 107.415 60.0551 107.914C60.0216 108.156 59.7938 109.873 59.5488 111.731C59.3036 113.589 59.0425 115.563 58.9682 116.118C58.3345 120.858 58.1308 122.397 57.6148 126.341C57.3433 128.416 57.0396 130.726 56.9398 131.474C56.84 132.222 56.6981 133.288 56.6244 133.843C56.5507 134.398 56.4091 135.464 56.3097 136.212C56.0272 138.337 55.7803 140.201 55.6353 141.301C55.5622 141.856 55.4202 142.922 55.3199 143.67C55.1386 145.023 54.0418 153.337 53.5259 157.27C53.3771 158.405 53.1922 159.806 53.1148 160.385C52.6121 164.151 52.3854 165.865 51.9887 168.897C51.6526 171.465 50.8634 177.449 50.6866 178.768C50.6123 179.323 50.4676 180.409 50.365 181.181C50.2625 181.953 50.0995 183.157 50.003 183.857C49.6448 186.455 49.675 187.1 50.2047 188.154C50.7261 189.191 51.7632 189.956 52.933 190.167C53.2807 190.23 55.5048 190.262 59.3974 190.262H65.3319L65.2792 190.548C65.2502 190.704 65.1052 191.761 64.9569 192.895C64.6919 194.922 64.5579 195.939 64.0954 199.432C63.308 205.378 63.2611 205.819 63.3471 206.451C63.4983 207.562 64.1182 208.585 64.9962 209.175C65.6852 209.637 66.4139 209.829 67.4802 209.829C67.9709 209.829 68.3724 209.848 68.3724 209.871C68.3724 209.894 68.1058 210.693 67.7802 211.646C66.2567 216.104 65.3429 220.852 65.1622 225.25C65.1299 226.035 65.085 226.676 65.0624 226.676C65.0398 226.676 64.6181 226.439 64.1255 226.149C62.9031 225.429 62.3153 225.244 61.3962 225.29C59.4213 225.39 57.9306 226.929 57.9306 228.869C57.9306 229.436 58.6869 232.334 60.5054 238.737C63.6934 249.961 68.6357 259.078 76.0152 267.346C77.4784 268.985 81.3888 272.744 83.1869 274.24C95.1771 284.214 110.102 290.765 128.579 294.164C130.666 294.548 130.888 294.551 130.888 294.189C130.888 293.944 130.567 293.836 129.087 293.583C124.069 292.725 118.31 291.289 113.2 289.621C110.412 288.712 110.113 288.604 107.308 287.508C92.4675 281.704 80.4085 272.738 72.0494 261.291C67.5017 255.064 63.8371 247.642 61.6087 240.145C60.7967 237.414 58.6374 229.498 58.5892 229.076C58.5518 228.75 58.5905 228.455 58.7286 228.012C59.0647 226.933 59.9786 226.165 61.17 225.961C61.9654 225.824 62.561 226.012 64.0767 226.88C76.3144 233.887 92.2469 238.083 109.959 238.964C113.117 239.122 119.866 239.129 123.642 238.979C127.459 238.828 127.754 238.849 128.835 239.349C129.688 239.744 130.686 240.68 131.094 241.469C131.294 241.856 131.683 243.233 132.506 246.47C134.291 253.496 134.886 255.516 136.381 259.624C139.913 269.329 145.626 279.421 152.076 287.351C154.503 290.336 159.261 296.078 159.437 296.236C159.612 296.393 159.694 296.415 159.833 296.342C159.929 296.292 160.008 296.179 160.008 296.09C160.008 296.001 159.69 295.539 159.301 295.062C158.428 293.99 158.195 293.603 156.77 290.861C153.714 284.982 151.562 279.271 150.52 274.277C149.971 271.643 149.884 270.78 149.883 267.916C149.881 266.078 149.918 265.046 149.999 264.62L150.117 264L149.738 263.216C149.529 262.785 148.814 261.307 148.148 259.931C145.301 254.048 144.345 252.032 144.345 251.908C144.345 251.748 144.671 251.565 144.809 251.648C144.925 251.718 145.199 252.273 148.508 259.131C149.355 260.886 150.134 262.446 150.238 262.597C150.343 262.747 150.646 263.266 150.912 263.748C151.178 264.231 151.463 264.744 151.546 264.889C151.629 265.034 152.049 265.79 152.48 266.569C153.525 268.46 154.09 268.969 155.59 269.376L156.14 269.525L156.691 270.585C156.994 271.168 157.373 271.882 157.533 272.172C157.693 272.461 158.503 273.981 159.334 275.55C161.032 278.755 161.402 279.412 162.244 280.727C166.827 287.88 173.817 293.226 182.056 295.879C184.264 296.59 186.899 297.147 189.532 297.461C191.111 297.648 195.098 297.661 201.414 297.499C203.667 297.441 208.184 297.335 211.451 297.262C214.719 297.19 220.612 297.053 224.548 296.958C228.484 296.862 233.406 296.745 235.485 296.697C237.564 296.649 240.562 296.571 242.146 296.522C243.73 296.474 246.505 296.394 248.312 296.345C252.232 296.239 253.37 296.199 256.098 296.071C258.378 295.965 258.992 295.997 259.9 296.27C260.653 296.496 260.988 296.659 262.13 297.354C264.663 298.896 267.27 299.842 269.776 300.128C270.893 300.255 273.27 300.182 274.372 299.987C276.173 299.669 277.858 299.178 279.97 298.357C281.895 297.608 282.668 297.166 284.388 295.83L285.284 295.134L286.309 295.659C286.873 295.947 287.779 296.413 288.324 296.693C291.026 298.086 290.294 297.866 297.667 299.502C301.849 300.43 301.965 300.445 301.959 300.042C301.957 299.907 301.75 299.664 300.071 297.823C294.746 291.984 294.438 291.667 293.574 291.111C293.112 290.814 291.9 290.039 290.881 289.388L289.027 288.204L288.972 287.515C288.942 287.135 288.856 286.655 288.781 286.448C288.265 285.026 286.631 284.152 283.929 283.851L283.045 283.753L282.753 282.997C281.547 279.871 278.856 277.834 275.256 277.322C274.404 277.202 274.122 277.196 273.411 277.286C272.949 277.344 272.49 277.412 272.391 277.438C272.262 277.471 271.359 276.94 269.219 275.573C259.96 269.662 258.565 268.781 258.275 268.663C258.1 268.592 257.721 268.507 257.433 268.476C256.605 268.385 256.241 268.128 255.743 267.283C255.609 267.055 255.371 266.764 255.214 266.635C254.177 265.787 242.322 258.544 241.336 258.156C241.009 258.027 240.674 257.978 240.112 257.975C239.434 257.972 239.266 258.005 238.751 258.24C238.02 258.573 237.51 259.015 237.118 259.656C235.461 262.365 234.26 264.444 234.133 264.824C233.904 265.509 233.981 266.736 234.296 267.413C234.722 268.329 235.134 268.628 239.717 271.346C242.043 272.726 244.554 274.163 245.297 274.54C246.701 275.254 247.248 275.535 248.656 276.271C249.412 276.666 249.573 276.716 250.277 276.773C251.231 276.851 251.537 276.997 251.989 277.591C252.181 277.844 252.415 278.115 252.508 278.194C252.602 278.273 254.197 279.119 256.053 280.074C261.18 282.712 261.805 283.045 261.82 283.14C261.847 283.315 261.392 283.535 260.557 283.75L259.705 283.971L257.092 283.842C249.15 283.452 237.727 282.295 228.914 280.986C207.286 277.776 193.131 273.307 187.259 267.835C185.929 266.596 185.827 266.43 184.467 263.309C183.794 261.765 182.518 258.842 181.63 256.814C180.742 254.786 179.988 253.042 179.955 252.939L179.894 252.751L185.366 252.71C191.142 252.665 191.266 252.657 193.02 252.217C194.092 251.948 194.782 251.694 197.454 250.585C198.766 250.041 201.763 248.798 204.115 247.823C206.467 246.848 208.937 245.821 209.606 245.542C210.274 245.262 212.036 244.532 213.521 243.918C218.982 241.661 220.114 241.175 220.748 240.814C223.987 238.97 226.105 235.893 226.523 232.423C226.585 231.909 226.618 227.877 226.618 220.867L226.619 210.1L257.606 210.152L288.594 210.205L289.276 209.973L289.958 209.742H292.923C295.521 209.742 295.963 209.722 296.483 209.581C297.84 209.214 298.991 208.199 299.394 207.012C299.466 206.8 299.646 205.679 299.793 204.521C299.941 203.363 300.167 201.625 300.295 200.66C300.423 199.695 300.748 197.207 301.017 195.132C301.286 193.057 301.63 190.411 301.781 189.253C301.932 188.095 302.299 185.272 302.597 182.98C302.895 180.687 303.219 178.2 303.317 177.452C303.415 176.704 303.533 175.795 303.579 175.434C303.624 175.072 303.885 173.058 304.159 170.959C304.433 168.859 304.821 165.878 305.022 164.334C305.224 162.79 305.527 160.46 305.697 159.157C305.867 157.854 306.188 155.386 306.411 153.673C306.634 151.96 306.98 149.295 307.181 147.75C307.383 146.206 307.747 143.402 307.992 141.52C308.237 139.638 308.52 137.467 308.622 136.694C308.724 135.922 309.051 133.415 309.347 131.123C309.644 128.83 310.006 126.047 310.153 124.937C310.299 123.827 310.644 121.181 310.919 119.058C311.194 116.934 311.5 114.585 311.598 113.837C311.697 113.089 311.814 112.181 311.86 111.819C311.905 111.457 312.167 109.443 312.44 107.344C312.714 105.245 313.103 102.264 313.304 100.719C313.505 99.1749 313.809 96.8453 313.979 95.5423C314.148 94.2393 314.47 91.7715 314.692 90.0583C314.915 88.3451 315.262 85.6799 315.463 84.1356C315.664 82.5913 316.029 79.7878 316.274 77.9057C316.518 76.0236 316.885 73.2399 317.089 71.7197C317.581 68.0439 317.612 67.4199 317.356 66.409C316.828 64.3285 315.28 62.6651 313.348 62.1014C312.843 61.9541 312.299 61.9456 304.999 61.9713C297.984 61.9959 297.19 61.9848 297.19 61.8623C297.19 61.7387 297.741 57.4442 298.463 51.9334C298.711 50.0429 298.729 49.7468 298.641 49.0378C298.408 47.141 297.338 45.2769 295.797 44.082C295.145 43.5759 294.142 43.0363 293.32 42.7491L292.735 42.5448L261.353 42.5221C232.743 42.5014 229.962 42.5118 229.853 42.6391ZM149.923 44.19C148.814 44.7362 148.736 46.1733 149.775 46.9239C150.023 47.1031 150.129 47.1081 154.218 47.1319L158.408 47.1564L158.794 46.9358C159.628 46.4596 159.82 45.2221 159.169 44.5294C159.061 44.4144 158.81 44.2474 158.612 44.1584C158.28 44.0088 157.95 43.9962 154.288 43.9945C150.354 43.9925 150.321 43.994 149.923 44.19ZM164.996 44.1589C164.05 44.5778 163.77 45.787 164.437 46.5755C164.948 47.1799 164.544 47.1513 172.566 47.1513C180.457 47.1513 180.04 47.1772 180.548 46.6546C180.849 46.3437 180.981 46.0122 180.981 45.5627C180.981 45.1869 180.744 44.6548 180.47 44.4127C179.985 43.9853 180.121 43.9925 172.5 43.9945C165.748 43.9963 165.344 44.0052 164.996 44.1589ZM148.711 50.9609C148.14 51.2093 147.766 51.7855 147.766 52.416C147.766 52.8557 147.898 53.1883 148.199 53.5017C148.705 54.0289 147.434 53.9954 166.914 53.9954C178.334 53.9954 184.919 53.9643 185.116 53.9094C185.96 53.6734 186.442 52.6056 186.078 51.777C185.928 51.4355 185.528 51.0569 185.183 50.93C185.007 50.8651 179.444 50.8377 166.955 50.84C152.138 50.8428 148.933 50.8642 148.711 50.9609ZM213.521 52.6019C215.288 53.0701 217.454 53.4194 219.192 53.5166C220.824 53.6078 221.433 53.9074 221.91 54.8527C222.152 55.3337 222.163 55.4104 222.163 56.6277C222.163 57.7444 222.131 58.0253 221.898 58.9242C221.583 60.1468 221.601 60.1947 222.373 60.2017C223.533 60.2124 223.987 60.816 223.807 62.1107C223.658 63.1915 223.112 63.8082 222.087 64.0549C221.557 64.1822 221.376 64.1881 220.782 64.097C220.15 64.0001 220.083 64.0043 219.978 64.1483C219.915 64.2347 219.66 64.6105 219.41 64.9835C218.481 66.3727 216.88 67.7861 215.504 68.4311C214.517 68.8938 213.621 69.0874 212.467 69.0874C210.253 69.0874 209.313 68.5542 208.723 66.963C208.497 66.3545 208.485 66.2426 208.489 64.6563C208.492 63.3134 208.532 62.7759 208.697 61.8924C209.229 59.0431 210.167 56.0178 211.679 52.2701L211.756 52.0803L212.324 52.2576C212.636 52.3551 213.175 52.5101 213.521 52.6019ZM220.712 64.784C220.876 64.8447 220.975 64.9841 221.071 65.2885C221.143 65.5199 221.83 67.5058 222.597 69.7016C223.363 71.8974 224.279 74.5232 224.632 75.5366C224.985 76.5501 225.344 77.444 225.429 77.5231C225.514 77.6022 227.393 78.6472 229.605 79.8452C231.817 81.0432 233.609 82.0513 233.587 82.0854C233.478 82.2575 230.227 83.2005 228.329 83.6104C221.054 85.182 213.372 84.5054 207.312 81.7594L206.773 81.5152L207.087 81.3879C207.425 81.2505 212.602 79.3639 214.036 78.8553C214.568 78.6667 214.929 78.4885 214.957 78.4009C214.982 78.3216 214.584 76.3614 214.072 74.045C213.253 70.3435 213.158 69.8265 213.286 69.7775C213.366 69.7469 213.695 69.6747 214.017 69.617C216.131 69.2383 218.477 67.5468 220.017 65.2925C220.239 64.9668 220.436 64.7002 220.454 64.7002C220.471 64.7002 220.588 64.7379 220.712 64.784ZM153.338 68.5262C157.818 72.772 157.537 72.419 159.423 76.1508C161.034 79.337 162.45 82.5936 164.517 87.8647L165.394 90.1022L161.375 94.0267C159.165 96.1852 157.332 97.9226 157.302 97.8875C157.271 97.8524 157.178 97.2117 157.094 96.4636C156.955 95.2187 156.702 93.0607 156.364 90.2338C156.292 89.6306 156.151 88.4362 156.05 87.5795C155.45 82.4759 155.426 82.3338 154.994 81.3279C154.645 80.5145 154.038 79.69 153.284 79.0038C152.293 78.1014 151.528 77.7727 148.396 76.9026C145.598 76.1255 144.589 75.7675 143.49 75.1604C141.455 74.0372 140.515 73.1122 137.679 69.4458C136.469 67.8815 135.448 66.5522 135.411 66.492C135.241 66.2164 136.955 65.5995 137.608 65.7013C138.693 65.8704 140.361 66.8982 142.44 68.6788C144.549 70.4845 145.174 70.7318 147.384 70.6358C150.746 70.4898 150.916 70.4675 150.916 70.1726C150.916 70.1057 150.685 69.7465 150.403 69.3744C149.496 68.1793 149.028 67.0759 149.027 66.1278C149.026 65.585 149.237 64.8757 149.4 64.8757C149.447 64.8757 151.219 66.5184 153.338 68.5262ZM68.4384 74.881C67.4179 75.1313 67.0231 75.568 67.0225 76.4467C67.0217 77.7243 66.5185 80.0825 66.0567 80.9729C65.9305 81.2163 65.6541 81.6327 65.4425 81.8981C64.6676 82.8702 64.5448 83.5479 64.6604 86.2118C64.7389 88.0212 64.7547 88.136 64.9885 88.6018C65.3761 89.3743 65.9377 89.7447 68.1234 90.6703C69.6047 91.2976 69.935 91.7907 70.0356 93.5242C70.352 98.9799 70.5814 101.771 70.8109 102.957C71.0853 104.374 72.5692 107.859 73.3991 109.035C73.878 109.714 74.6398 110.045 75.0774 109.766C75.4294 109.541 75.388 108.938 74.9351 107.695C74.0568 105.285 73.9347 104.863 73.9312 104.229C73.9271 103.483 74.0455 103.19 74.7384 102.233C75.4245 101.286 75.9765 100.405 76.5938 99.2715C77.2923 97.9889 77.6035 97.2161 77.8174 96.2325C78.1095 94.8898 78.5611 94.3079 79.5178 94.0413C80.1975 93.8518 81.2399 93.3747 81.4921 93.1375C81.78 92.8667 81.752 92.5244 81.3376 91.2522C80.8626 89.7942 80.7949 89.1534 81.0595 88.6205C81.268 88.2007 81.779 87.7788 82.5047 87.4274C83.3451 87.0204 83.7058 86.5141 83.6987 85.7517C83.6934 85.1889 83.4745 84.7033 82.9912 84.1816C82.5099 83.6625 81.9347 83.3504 80.7494 82.9659C79.4309 82.5379 78.5757 82.0877 77.9411 81.4874C77.2893 80.8706 77.1083 80.4554 77.1058 79.5705C77.1029 78.5329 76.9349 78.3736 75.3485 77.9044C73.9829 77.5004 73.5704 77.2286 72.8285 76.2435C72.0751 75.2433 71.2739 74.8782 69.7226 74.8283C69.2028 74.8116 68.625 74.8353 68.4384 74.881ZM214.231 77.9105C214.296 78.0763 214.418 78.0254 211.136 79.2084C205.32 81.305 205.69 81.1543 205.69 81.428C205.69 81.6462 205.776 81.7164 206.5 82.0881C209.26 83.505 213.432 84.6129 217.392 84.9807C218.881 85.119 222.175 85.1186 223.693 84.98C226.604 84.7142 229.76 84.059 232.677 83.1152C234.683 82.4661 234.83 82.3963 234.793 82.1073C234.769 81.9174 234.337 81.6555 231.592 80.1674C229.847 79.2212 228.434 78.4324 228.452 78.4144C228.51 78.3579 231.274 78.9822 233.01 79.444C236.418 80.3508 246.896 83.9494 252.363 86.091C261.644 89.7266 269.503 93.8136 274.056 97.3722C276.847 99.5532 278.458 101.346 279.629 103.571C282.618 109.254 283.748 116.496 282.826 124.059C282.685 125.217 282.326 127.267 282.157 127.878L282.065 128.213L281.549 128.015C281.265 127.905 280.628 127.662 280.132 127.475C279.637 127.287 279.172 127.068 279.097 126.987C278.984 126.864 275.589 125.582 266.81 122.348C266.068 122.074 263.941 121.285 262.084 120.594C260.228 119.902 258.284 119.18 257.764 118.989C257.244 118.798 256.576 118.551 256.279 118.44C255.981 118.329 255.483 118.147 255.17 118.034C254.651 117.847 254.605 117.81 254.644 117.61C254.667 117.489 254.776 116.996 254.884 116.513C255.046 115.796 255.073 115.468 255.032 114.714C254.969 113.562 254.808 112.957 254.289 111.932C253.642 110.654 252.665 109.711 251.193 108.943C249.668 108.148 246.99 106.736 245.342 105.857C243.306 104.772 243.288 104.765 243.125 104.896C242.948 105.04 242.965 105.19 243.322 106.626C244.389 110.908 245.719 115.176 247.213 119.111C248.297 121.967 251.058 128.362 252.734 131.903C252.926 132.308 253.083 132.68 253.083 132.73C253.083 132.82 250.189 138.211 249.979 138.513C249.884 138.649 249.689 138.56 247.99 137.604C245.94 136.451 244.786 135.863 244.056 135.598C242.418 135.005 240.513 135.012 238.979 135.617C238.071 135.975 232.472 139.266 230.039 140.871C227.515 142.537 227.054 143.048 227.048 144.188C227.045 144.892 227.203 145.285 227.7 145.811C228.321 146.468 228.808 146.606 230.489 146.6C231.534 146.597 232.156 146.547 232.965 146.4C234.328 146.153 236.514 145.622 237.915 145.198C239.851 144.612 240.856 144.659 245.612 145.556C249.362 146.263 250.787 146.441 252.125 146.368C252.577 146.343 253.122 146.263 253.335 146.19C254.132 145.916 255.069 145.123 256.418 143.582C256.927 143 257.372 142.555 257.407 142.592C257.598 142.802 258.75 146.303 259.146 147.882C259.805 150.502 260.163 153.903 259.957 155.576L259.9 156.03L259.44 155.848C256.206 154.57 252.622 154.15 249.077 154.633C248.335 154.735 247.302 154.875 246.782 154.944C246.262 155.014 244.075 155.311 241.921 155.603C239.768 155.896 237.58 156.192 237.06 156.261C236.54 156.331 234.94 156.548 233.505 156.744C232.069 156.94 230.469 157.157 229.949 157.227C229.429 157.296 227.384 157.573 225.403 157.843C223.423 158.112 221.236 158.408 220.543 158.501C219.849 158.594 217.662 158.89 215.682 159.159C213.701 159.429 211.656 159.705 211.136 159.775C210.616 159.844 209.017 160.059 207.582 160.253C206.148 160.446 204.675 160.605 204.31 160.605C201.925 160.605 199.823 158.945 199.205 156.575C198.735 154.774 198.325 151.107 198.071 146.434C197.947 144.162 197.942 135.405 198.062 131.251C198.157 127.952 198.058 122.925 197.894 122.732C197.716 122.522 197.562 122.595 196.678 123.308C194.786 124.836 192.923 126.005 190.658 127.088C184.257 130.147 177.162 130.834 169.369 129.15C163.888 127.965 157.87 125.472 151.951 121.933C150.478 121.052 149.225 120.256 149.167 120.165C149.125 120.098 150.321 118.927 153.977 115.462C154.893 114.594 156.574 112.997 157.712 111.912C158.851 110.828 160.552 109.208 161.493 108.312C162.433 107.417 164.094 105.835 165.183 104.796C169.782 100.412 174.306 96.12 174.727 95.7421L175.179 95.3363L175.578 95.9658C175.797 96.312 176.303 96.9137 176.701 97.3029C178.225 98.7911 179.989 99.4141 182.003 99.1753C184.456 98.8845 186.803 97.4765 189.761 94.5213C191.12 93.1637 192.121 92.0212 194.673 88.9176C195.685 87.687 196.773 86.3685 197.09 85.9877C200.372 82.0513 206.049 79.1107 212.529 77.9915C213.96 77.7444 214.162 77.7348 214.231 77.9105ZM170.801 92.1499C172.197 94.2895 173.327 96.0713 173.312 96.1093C173.297 96.1472 170.571 98.7559 167.254 101.906C163.937 105.057 160.311 108.505 159.197 109.57C156.211 112.423 153.853 114.667 152.983 115.481L152.214 116.202L150.591 114.778C149.699 113.995 148.211 112.69 147.285 111.879C146.36 111.067 145.62 110.375 145.642 110.34C145.714 110.227 168.224 88.2111 168.244 88.2356C168.254 88.2488 169.405 90.0102 170.801 92.1499ZM196.676 102.387C196.647 102.46 196.67 103.753 196.726 105.261C196.783 106.769 196.869 109.266 196.918 110.81C197.194 119.531 197.274 121.245 197.412 121.38C197.515 121.48 197.584 121.489 197.703 121.416C197.84 121.332 197.859 121.154 197.859 119.969C197.859 119.227 197.804 117.04 197.737 115.109C197.67 113.179 197.546 109.545 197.461 107.033C197.377 104.522 197.277 102.419 197.24 102.361C197.145 102.21 196.738 102.229 196.676 102.387ZM258.934 120.131C260.048 120.545 261.526 121.092 262.22 121.348C262.913 121.603 264.108 122.046 264.875 122.332C266.562 122.96 277.324 126.945 278.006 127.194L278.49 127.371L278.428 128.033C278.239 130.076 277.27 133.4 275.852 136.87C275.032 138.879 274.967 139.02 274.87 139.02C274.823 139.02 273.315 138.038 271.518 136.837C266.606 133.556 266.138 133.244 264.335 132.044C263.419 131.434 261.88 130.408 260.914 129.763C259.949 129.117 258.754 128.321 258.259 127.992C256.938 127.117 254.123 125.23 254.087 125.197C254.054 125.167 254.557 123.847 255.607 121.208C255.962 120.315 256.287 119.496 256.33 119.388C256.399 119.215 256.437 119.203 256.658 119.286C256.796 119.337 257.82 119.718 258.934 120.131ZM90.5149 124.415L90.9188 124.596L90.2198 125.056C89.1426 125.764 87.861 126.808 86.8722 127.781L85.9737 128.666H77.4591C68.0073 128.666 68.4352 128.692 67.7944 128.085C67.1738 127.497 66.9236 126.712 67.1124 125.945C67.3197 125.102 68.0449 124.421 68.8813 124.282C69.1212 124.242 73.9961 124.215 79.7143 124.222C90.0067 124.235 90.115 124.237 90.5149 124.415ZM260.107 130.022C261.916 131.231 263.492 132.281 263.609 132.356L263.821 132.492L262.636 134.22C259.239 139.178 256.295 142.941 254.551 144.554C253.623 145.412 253.367 145.553 252.475 145.697C251.475 145.858 249.187 145.597 245.927 144.952C242.87 144.346 240.616 144.055 239.659 144.142C239.328 144.172 238.578 144.335 237.991 144.505C234.664 145.469 232.143 145.951 230.436 145.951C228.821 145.951 228.186 145.689 227.838 144.878C227.658 144.457 227.661 143.906 227.846 143.527C228.079 143.048 228.862 142.43 230.939 141.085C232.78 139.893 237.053 137.349 238.501 136.583C239.589 136.007 240.346 135.818 241.561 135.818C243.234 135.818 243.947 136.097 247.807 138.265C248.975 138.921 249.987 139.458 250.056 139.458C250.124 139.458 250.221 139.409 250.269 139.349C250.356 139.242 251.271 137.586 252.318 135.641C252.603 135.111 252.948 134.479 253.084 134.238C253.22 133.996 253.604 133.286 253.939 132.658C254.274 132.031 254.659 131.32 254.795 131.079C254.93 130.837 255.254 130.245 255.513 129.763C256.521 127.887 256.628 127.711 256.722 127.767C256.775 127.799 258.299 128.813 260.107 130.022ZM130.793 134.642C130.988 134.695 131.251 134.847 131.378 134.981C131.647 135.265 133.076 137.954 133.663 139.283C134.392 140.932 134.914 142.736 134.769 143.104C134.724 143.219 126.859 147.064 126.343 147.223C126.163 147.279 126.162 147.251 126.163 142.645C126.165 137.624 126.184 137.385 126.664 136.462C127.088 135.646 127.936 134.968 128.907 134.668C129.358 134.528 130.325 134.515 130.793 134.642ZM81.0361 135.164C81.1755 135.215 81.4364 135.355 81.6161 135.475L81.9426 135.694L81.7374 136.326C81.6246 136.673 81.4221 137.471 81.2874 138.098C81.1528 138.726 81.0285 139.288 81.0114 139.349C80.9867 139.435 79.5397 139.458 74.1586 139.458L67.3372 139.457L66.8727 139.197C66.1181 138.775 65.7355 138.125 65.7355 137.266C65.7355 136.372 66.2408 135.6 67.0652 135.235C67.4053 135.085 67.8324 135.075 74.105 135.073C78.5772 135.072 80.8664 135.102 81.0361 135.164ZM138.573 144.186C140.023 148.414 139.839 151.625 138.045 153.401C137.748 153.696 137.471 153.936 137.428 153.936C137.386 153.936 137.261 153.61 137.15 153.212C136.861 152.176 136.276 150.763 135.492 149.208C135.117 148.465 134.766 147.645 134.71 147.386C134.586 146.803 134.682 146.153 135.106 144.681L135.409 143.631L136.656 143.046L137.902 142.462L138.059 142.805C138.146 142.993 138.377 143.615 138.573 144.186ZM134.533 144.157C134.533 144.184 134.412 144.662 134.263 145.22C133.977 146.294 133.919 147.137 134.091 147.738C134.144 147.925 134.433 148.576 134.732 149.186C135.732 151.223 135.971 151.753 136.242 152.54C136.631 153.672 136.873 154.939 136.969 156.345C137.015 157.023 137.092 157.874 137.141 158.236C137.579 161.529 137.686 165.688 137.384 167.66C137.027 169.991 136.494 171.536 135.606 172.813C134.051 175.052 131.741 176.132 128.502 176.135C127.461 176.136 127.136 176.249 126.819 176.72C126.673 176.938 126.66 177.154 126.683 178.896C126.734 182.825 126.965 187.137 127.256 189.604C127.498 191.657 127.457 192.24 127.013 193.117C126.628 193.877 125.931 194.56 125.217 194.88C124.681 195.119 122.689 195.652 120.705 196.087C113.842 197.591 107.639 197.778 103.118 196.617C101.477 196.195 100.738 195.698 100.215 194.662C99.9545 194.146 99.9226 194.002 99.9226 193.335C99.9226 192.72 99.9834 192.393 100.265 191.491C101.213 188.453 101.804 183.587 101.587 180.601C101.535 179.878 101.516 179.249 101.545 179.203C101.575 179.157 101.697 179.119 101.817 179.119C102.403 179.119 105.334 178.426 107.047 177.883C110.688 176.728 113.1 175.403 115.257 173.374C118.775 170.066 120.659 165.53 120.564 160.6L120.536 159.122L120.92 159.55C121.686 160.404 123.005 161.043 124.002 161.043C124.496 161.043 125.478 160.77 125.944 160.501C126.287 160.304 126.334 160.042 126.056 159.872C125.941 159.802 125.792 159.836 125.426 160.016C124.132 160.652 122.903 160.445 121.742 159.398C120.995 158.724 120.36 157.742 120.171 156.971C120.087 156.629 119.903 155.954 119.762 155.471C119.231 153.65 119.064 152.327 119.23 151.26C119.504 149.501 120.585 147.601 121.531 147.216C122.21 146.939 123.088 147.192 123.86 147.885C124.362 148.337 124.803 148.499 125.256 148.4C125.564 148.332 127 147.665 132.328 145.114C134.388 144.128 134.533 144.065 134.533 144.157ZM80.877 146.851C80.9765 147.716 81.2142 149.204 81.3893 150.057L81.447 150.339H73.9339C67.7696 150.339 66.3458 150.317 66.0038 150.216C63.8658 149.589 63.8852 146.582 66.0315 145.946C66.1555 145.909 69.521 145.875 73.5102 145.871L80.7634 145.864L80.877 146.851ZM138.942 154.81C139.96 156.185 139.901 156.661 138.555 157.959L137.887 158.604L137.828 158.298C137.796 158.13 137.709 157.248 137.635 156.337L137.501 154.682L137.702 154.55C137.813 154.478 138.006 154.333 138.131 154.229C138.256 154.124 138.368 154.047 138.379 154.058C138.389 154.068 138.643 154.407 138.942 154.81ZM254.181 155.207C255.906 155.404 258.579 156.087 258.899 156.414C259.299 156.823 260.915 161.391 261.902 164.904C262.385 166.623 263.435 170.849 263.435 171.075C263.435 171.126 263.208 170.817 262.932 170.388C259.053 164.367 254.978 160.258 251.889 159.254C249.46 158.464 247.385 159.378 243.946 162.749C242.718 163.954 242.08 164.647 238.371 168.812C236.368 171.06 234.19 173.227 233.235 173.921C232.071 174.768 230.889 175.247 230.274 175.122C228.976 174.859 227.169 172.545 225.138 168.546C224.326 166.947 223.266 164.604 222.598 162.93C222.424 162.496 222.186 161.903 222.069 161.614C221.525 160.266 221.139 159.155 221.198 159.105C221.234 159.074 221.648 159 222.118 158.941C222.588 158.882 223.945 158.701 225.133 158.54C226.322 158.378 228.489 158.085 229.949 157.889C231.41 157.692 233.01 157.474 233.505 157.404C234 157.334 235.6 157.116 237.06 156.92C238.521 156.724 240.708 156.428 241.921 156.263C248.23 155.404 249.415 155.245 250.029 155.175C251.11 155.053 252.954 155.067 254.181 155.207ZM83.7612 157.38C83.987 157.922 85.1005 160.222 85.5455 161.065C85.5646 161.102 80.9287 161.129 75.2435 161.127C66.8437 161.124 64.8435 161.101 64.5691 161.006C64.0712 160.833 63.6379 160.477 63.356 160.009C63.1386 159.649 63.1065 159.504 63.1065 158.882C63.1065 158.202 63.122 158.147 63.4433 157.693C63.768 157.233 64.2337 156.896 64.7561 156.742C64.8885 156.703 69.1509 156.668 74.2281 156.664L83.4595 156.656L83.7612 157.38ZM216.4 160.056C216.051 162.145 215.626 163.769 214.961 165.563C213.445 169.647 211.198 173.854 207.87 178.837C207.475 179.43 207.108 179.901 207.056 179.884C206.91 179.837 206.401 178.89 206.152 178.203C205.285 175.808 204.864 172.503 204.649 166.396C204.562 163.933 204.582 161.437 204.689 161.332C204.704 161.317 205.908 161.144 207.364 160.947C208.82 160.749 211.388 160.398 213.071 160.166C214.755 159.934 216.205 159.74 216.293 159.736C216.431 159.729 216.447 159.777 216.4 160.056ZM210.936 210.093H220.143L220.114 220.03C220.082 230.857 220.118 230.071 219.583 231.678C218.886 233.771 217.178 235.903 215.136 237.228C214.037 237.942 213.885 238.011 208.625 240.186C206.318 241.141 202.648 242.663 200.469 243.569C195.063 245.817 194.066 246.209 193.203 246.425C191.446 246.866 191.302 246.876 185.858 246.919L180.698 246.959L180.755 246.579C180.84 246.014 180.654 243.823 180.401 242.426C179.437 237.091 177.853 231.043 175.99 225.579C174.18 220.273 172.403 216.091 170.084 211.679L169.188 209.976L185.459 210.034C194.408 210.066 205.873 210.093 210.936 210.093ZM225.898 221.126C225.898 233.067 225.904 232.906 225.409 234.354C224.86 235.959 223.955 237.335 222.619 238.594C221.427 239.718 220.324 240.399 218.472 241.155C217.977 241.357 216.357 242.028 214.872 242.645C213.386 243.262 210.389 244.506 208.211 245.409C206.032 246.312 202.933 247.597 201.324 248.264C193.691 251.431 194.073 251.281 192.825 251.599C191.287 251.992 190.591 252.031 185.098 252.033L179.897 252.034L179.942 251.837C179.967 251.728 180.068 251.284 180.167 250.85C180.382 249.904 180.588 248.755 180.666 248.064L180.724 247.559H185.558C190.34 247.559 191.186 247.521 192.59 247.24C193.966 246.965 194.776 246.658 201.234 243.96C201.903 243.681 203.665 242.95 205.15 242.336C206.635 241.722 209.086 240.709 210.596 240.085C213.94 238.702 214.736 238.32 215.742 237.618C218.354 235.797 219.986 233.412 220.586 230.544C220.762 229.704 220.768 229.355 220.768 219.943C220.768 214.589 220.795 210.183 220.828 210.151C220.861 210.119 222.015 210.093 223.393 210.093H225.898L225.898 221.126ZM242.236 219.226C239.741 219.641 237.472 221.485 236.565 223.834C236.069 225.118 235.916 227.27 236.213 228.794C236.687 231.233 238.339 233.263 240.622 234.212L241.24 234.469L238.632 234.507C235.83 234.547 235.6 234.579 234.585 235.076C233.452 235.631 232.526 236.603 232.035 237.752C231.597 238.778 231.554 239.413 231.59 244.23C231.621 248.469 231.627 248.582 231.828 249.183C232.422 250.953 233.886 252.325 235.665 252.776C236.141 252.897 240.29 252.912 274.753 252.912C307.315 252.912 313.355 252.893 313.606 252.791C314.206 252.546 314.579 251.761 314.389 251.142C314.259 250.717 313.884 250.287 313.513 250.136C313.351 250.07 312.935 250.016 312.587 250.016C311.972 250.016 311.955 250.01 311.9 249.775C311.869 249.642 311.788 249.336 311.72 249.095C310.797 245.815 310.854 241.756 311.875 238.061L312.062 237.381L312.75 237.381C313.278 237.38 313.506 237.34 313.731 237.206C314.072 237.004 314.359 236.584 314.439 236.171C314.5 235.855 314.284 235.187 314.063 235.008C313.992 234.95 313.933 234.868 313.933 234.826C313.933 234.783 314.724 234.749 315.692 234.749H317.451L317.825 234.409C318.176 234.089 318.201 234.034 318.234 233.509C318.264 233.033 318.238 232.906 318.059 232.652C317.754 232.22 317.327 232.029 316.668 232.029H316.115L315.893 231.568C315.159 230.045 314.814 228.548 314.814 226.896C314.814 225.212 315.081 224.049 315.832 222.46L316.112 221.868L316.816 221.837C317.417 221.81 317.555 221.774 317.76 221.587C318.519 220.896 318.401 219.71 317.532 219.284C317.235 219.139 315.264 219.131 279.952 219.141C259.456 219.146 242.484 219.184 242.236 219.226ZM315.283 221.937C315.283 221.985 315.141 222.359 314.967 222.768C314.793 223.178 314.542 223.939 314.408 224.459C314.189 225.311 314.166 225.554 314.171 226.939C314.175 228.358 314.196 228.552 314.448 229.485C314.598 230.041 314.847 230.804 315.002 231.181C315.157 231.558 315.283 231.903 315.283 231.948C315.283 231.997 308.146 232.028 297.033 232.027C276.816 232.026 278.14 232.064 277.105 231.451C276.52 231.105 275.888 230.449 275.602 229.891C275.197 229.1 275.118 228.533 275.155 226.688C275.186 225.168 275.213 224.909 275.388 224.485C275.954 223.106 277.161 222.153 278.647 221.911C279.16 221.827 315.283 221.853 315.283 221.937ZM279.787 224.804C279.663 224.926 279.734 225.27 279.902 225.357C280.089 225.455 310.656 225.49 311.027 225.393C311.269 225.33 311.378 225.048 311.229 224.873C311.135 224.763 309.044 224.746 295.484 224.746C286.884 224.746 279.82 224.772 279.787 224.804ZM313.516 235.419C313.849 235.743 313.838 236.171 313.49 236.51L313.227 236.767H282.769C249.415 236.767 251.829 236.729 250.816 237.267C250.208 237.589 249.526 238.325 249.185 239.025L248.897 239.618V243.742V247.866L249.176 248.437C249.743 249.597 250.853 250.428 252.096 250.625C252.494 250.688 262.29 250.717 282.995 250.717L313.312 250.718L313.532 250.95C313.846 251.281 313.83 251.71 313.49 252.041L313.227 252.298H274.878C247.402 252.298 236.394 252.27 236.052 252.201C235.226 252.035 234.306 251.546 233.696 250.952C233.072 250.342 232.529 249.378 232.381 248.618C232.327 248.34 232.29 246.322 232.29 243.661C232.29 238.753 232.297 238.673 232.826 237.652C233.379 236.583 234.574 235.642 235.794 235.314C236.122 235.226 244.036 235.202 274.742 235.195L313.278 235.187L313.516 235.419ZM311.321 237.447C311.32 237.483 311.239 237.809 311.141 238.171C311.043 238.533 310.857 239.401 310.729 240.101C310.443 241.663 310.338 244.457 310.504 246.111C310.609 247.146 310.973 249.1 311.145 249.54C311.193 249.663 311.233 249.821 311.233 249.891C311.233 250.001 307.358 250.015 281.55 249.995L251.868 249.972L251.418 249.758C250.749 249.438 250.088 248.787 249.786 248.149L249.527 247.603L249.497 244.093C249.477 241.666 249.5 240.4 249.573 239.989C249.802 238.709 250.882 237.698 252.261 237.47C252.795 237.382 311.323 237.359 311.321 237.447ZM255.172 241.347C255.017 241.497 255.038 241.828 255.206 241.89C255.284 241.92 266.785 241.944 280.763 241.944C304.047 241.944 306.191 241.932 306.324 241.802C306.452 241.678 306.454 241.637 306.342 241.473L306.215 241.286L280.747 241.264C261.014 241.246 255.255 241.265 255.172 241.347ZM255.098 245.58C255.071 245.65 255.062 245.778 255.079 245.865C255.11 246.018 255.935 246.025 276.139 246.046C298.85 246.07 297.478 246.097 297.327 245.633L297.268 245.453H276.208C257.95 245.453 255.141 245.47 255.098 245.58ZM180.839 256.663C181.527 258.243 182.244 259.892 182.432 260.326C182.619 260.76 183.315 262.356 183.978 263.872L185.183 266.628L185.907 267.432C191.001 273.088 204.765 277.834 225.718 281.158C227.842 281.495 231.607 282.04 233.01 282.214C233.381 282.26 234.456 282.397 235.398 282.517C241.656 283.316 249.712 284.071 256.098 284.456C259.165 284.641 259.764 284.63 260.823 284.368C262.445 283.968 263.023 283.872 263.767 283.881C264.32 283.888 264.522 283.859 264.577 283.764C264.693 283.564 266.88 283.413 268.746 283.475C270.57 283.537 271.883 283.731 273.651 284.203L274.912 284.539L279.004 284.517C284.163 284.488 285.381 284.604 286.721 285.247C287.822 285.775 288.281 286.497 288.277 287.696C288.274 288.449 288.199 288.789 287.725 290.203C286.925 292.591 286.154 293.618 283.778 295.462C282.559 296.408 281.64 296.954 280.403 297.468C277.572 298.642 275.406 299.25 273.114 299.513C271.952 299.646 269.866 299.563 268.729 299.337C266.789 298.953 264.591 298.065 262.652 296.881C260.309 295.45 259.357 295.211 256.65 295.374C253.264 295.578 234.373 296.111 219.237 296.43C216.935 296.478 213.472 296.559 211.541 296.608C204.109 296.798 195.429 296.972 193.403 296.971C187.64 296.97 182.236 295.702 177.07 293.141C173.729 291.483 170.775 289.382 168.011 286.697C165.007 283.779 163.02 281.06 160.728 276.734C160.216 275.769 159.689 274.782 159.557 274.541C159.12 273.748 157.037 269.788 157.037 269.751C157.037 269.731 157.695 269.728 158.5 269.744C160.077 269.776 161.443 269.666 162.794 269.398C168.477 268.269 173.444 264.956 176.655 260.151C177.735 258.536 179.021 255.736 179.38 254.22C179.436 253.983 179.506 253.789 179.535 253.789C179.565 253.789 180.151 255.082 180.839 256.663ZM252.59 265.708C253.777 266.473 254.833 267.194 254.936 267.31C255.039 267.426 255.231 267.705 255.362 267.929C255.802 268.682 256.399 269.034 257.423 269.145C257.986 269.207 258.11 269.264 259.268 270.006C259.951 270.444 262.211 271.887 264.29 273.213C272.234 278.28 275.588 280.42 276.892 281.254C277.635 281.729 278.819 282.485 279.525 282.933C280.23 283.381 280.808 283.777 280.808 283.812C280.808 283.901 277.317 283.942 275.853 283.869C275.182 283.835 274.453 283.749 274.232 283.677C273.606 283.472 272.48 283.214 271.446 283.038C270.179 282.822 265.762 282.813 264.38 283.024L263.48 283.161L262.715 282.766C262.294 282.549 261.706 282.244 261.409 282.088C261.112 281.931 260.343 281.534 259.699 281.205C253.727 278.153 253.124 277.826 252.781 277.458C252.59 277.253 252.317 276.958 252.173 276.802C251.783 276.379 251.411 276.232 250.533 276.152C249.661 276.074 249.874 276.167 246.22 274.26L244.803 273.521L244.96 273.232C245.603 272.048 250.267 264.322 250.34 264.32C250.39 264.319 251.403 264.944 252.59 265.708ZM239.544 266.998C240.876 267.805 242.338 268.687 242.793 268.958C243.248 269.229 243.639 269.521 243.662 269.607C243.703 269.752 243.516 270.022 243.376 270.022C243.284 270.022 242.298 269.442 239.312 267.633C237.56 266.573 236.646 265.968 236.624 265.858C236.588 265.677 236.856 265.431 237.021 265.493C237.076 265.514 238.212 266.191 239.544 266.998ZM255.275 270.089C255.218 270.124 254.517 271.217 253.718 272.517C252.194 274.996 252.054 275.33 252.543 275.33C252.742 275.33 252.944 275.044 254.276 272.875C255.105 271.524 255.783 270.391 255.783 270.358C255.783 270.279 255.519 270.021 255.439 270.023C255.406 270.024 255.332 270.054 255.275 270.089ZM258.602 272.359C258.571 272.438 258.582 272.56 258.628 272.63C258.779 272.864 269.322 279.327 269.511 279.303C269.644 279.285 269.691 279.213 269.691 279.024C269.691 278.783 269.408 278.595 264.393 275.492C261.164 273.495 259.011 272.216 258.877 272.216C258.757 272.216 258.633 272.28 258.602 272.359ZM274.869 277.922C275.828 278.036 277.058 278.373 277.91 278.757C279.796 279.606 281.273 281.09 282.01 282.878C282.337 283.673 282.367 283.798 282.231 283.798C282.165 283.798 281.221 283.229 280.132 282.534C279.043 281.838 277.565 280.895 276.847 280.437C273.606 278.37 273.156 278.074 273.156 278.003C273.156 277.962 273.369 277.914 273.629 277.896C273.889 277.878 274.103 277.856 274.104 277.847C274.105 277.838 274.449 277.872 274.869 277.922ZM290.484 289.927C291.276 290.431 292.322 291.096 292.808 291.405C293.294 291.714 293.678 291.994 293.662 292.028C293.646 292.062 293.208 292.899 292.69 293.888C291.544 296.073 291.549 296.061 291.724 296.231C292.015 296.515 292.191 296.292 293.193 294.371C293.733 293.335 294.199 292.487 294.228 292.486C294.258 292.485 294.686 292.929 295.18 293.472C296.101 294.483 296.705 295.143 299.201 297.862C299.989 298.721 300.618 299.435 300.6 299.45C300.581 299.464 299.452 299.227 298.09 298.923C296.729 298.618 294.785 298.185 293.77 297.96C291.195 297.39 290.979 297.315 289.049 296.326C286.651 295.096 285.993 294.751 285.922 294.689C285.888 294.659 286.16 294.283 286.527 293.854C287.163 293.109 287.862 291.941 288.095 291.234C288.154 291.053 288.223 290.905 288.248 290.905C288.272 290.905 288.983 291.326 289.828 291.84C291.426 292.814 291.613 292.871 291.683 292.412C291.706 292.262 291.553 292.128 290.891 291.719C290.44 291.44 289.738 291.005 289.332 290.752C288.926 290.499 288.558 290.28 288.513 290.265C288.469 290.25 288.495 290.043 288.573 289.804C288.65 289.565 288.738 289.259 288.769 289.125C288.805 288.962 288.861 288.902 288.934 288.945C288.995 288.981 289.692 289.422 290.484 289.927Z" fill="#181818"/>
</g>
<defs>
<clipPath id="clip0_145_722">
<rect width="360" height="280" fill="white"/>
</clipPath>
</defs>
</svg>
