<svg width="235" height="79" viewBox="0 0 235 79" fill="none" xmlns="http://www.w3.org/2000/svg">
<path d="M42.9974 38.674L48.941 32.4266L29.7436 21.0853C28.4713 20.3627 27.2793 20.2613 26.2341 21.0515L42.9974 38.674ZM49.954 45.9883L56.1327 42.3354C57.3387 41.6255 58 40.6198 58 39.5043C58 38.3908 57.3387 37.3831 56.1347 36.6732L50.5409 33.3709L44.2436 39.9881L49.954 45.9883ZM25.201 22.5875C25.0724 23.0037 25 23.4685 25 23.9777V55.0457C25 55.8506 25.1688 56.5436 25.4744 57.095L41.7492 39.986L25.201 22.5875ZM42.9974 41.2959L26.813 58.3099C27.1225 58.4345 27.4562 58.5 27.808 58.5C28.4351 58.5 29.0883 58.3056 29.7536 57.9169L48.3561 46.9369L42.9974 41.2959Z" fill="#181818"/>
<rect width="140" height="48" transform="translate(70 15.5)" fill="white"/>
<path d="M74.9482 32.5H72.2764L72.2939 31.1201H74.9482C75.8623 31.1201 76.624 30.9297 77.2334 30.5488C77.8428 30.1621 78.2998 29.623 78.6045 28.9316C78.915 28.2344 79.0703 27.4199 79.0703 26.4883V25.7061C79.0703 24.9736 78.9824 24.3232 78.8066 23.7549C78.6309 23.1807 78.373 22.6973 78.0332 22.3047C77.6934 21.9062 77.2773 21.6045 76.7852 21.3994C76.2988 21.1943 75.7393 21.0918 75.1064 21.0918H72.2236V19.7031H75.1064C75.9443 19.7031 76.709 19.8438 77.4004 20.125C78.0918 20.4004 78.6865 20.8018 79.1846 21.3291C79.6885 21.8506 80.0752 22.4834 80.3447 23.2275C80.6143 23.9658 80.749 24.7979 80.749 25.7236V26.4883C80.749 27.4141 80.6143 28.249 80.3447 28.9932C80.0752 29.7314 79.6855 30.3613 79.1758 30.8828C78.6719 31.4043 78.0625 31.8057 77.3477 32.0869C76.6387 32.3623 75.8389 32.5 74.9482 32.5ZM73.1816 19.7031V32.5H71.4854V19.7031H73.1816ZM82.6211 27.8506V27.6484C82.6211 26.9629 82.7207 26.3271 82.9199 25.7412C83.1191 25.1494 83.4062 24.6367 83.7812 24.2031C84.1562 23.7637 84.6104 23.4238 85.1436 23.1836C85.6768 22.9375 86.2744 22.8145 86.9365 22.8145C87.6045 22.8145 88.2051 22.9375 88.7383 23.1836C89.2773 23.4238 89.7344 23.7637 90.1094 24.2031C90.4902 24.6367 90.7803 25.1494 90.9795 25.7412C91.1787 26.3271 91.2783 26.9629 91.2783 27.6484V27.8506C91.2783 28.5361 91.1787 29.1719 90.9795 29.7578C90.7803 30.3438 90.4902 30.8564 90.1094 31.2959C89.7344 31.7295 89.2803 32.0693 88.7471 32.3154C88.2197 32.5557 87.6221 32.6758 86.9541 32.6758C86.2861 32.6758 85.6855 32.5557 85.1523 32.3154C84.6191 32.0693 84.1621 31.7295 83.7812 31.2959C83.4062 30.8564 83.1191 30.3438 82.9199 29.7578C82.7207 29.1719 82.6211 28.5361 82.6211 27.8506ZM84.2471 27.6484V27.8506C84.2471 28.3252 84.3027 28.7734 84.4141 29.1953C84.5254 29.6113 84.6924 29.9805 84.915 30.3027C85.1436 30.625 85.4277 30.8799 85.7676 31.0674C86.1074 31.249 86.5029 31.3398 86.9541 31.3398C87.3994 31.3398 87.7891 31.249 88.123 31.0674C88.4629 30.8799 88.7441 30.625 88.9668 30.3027C89.1895 29.9805 89.3564 29.6113 89.4678 29.1953C89.585 28.7734 89.6436 28.3252 89.6436 27.8506V27.6484C89.6436 27.1797 89.585 26.7373 89.4678 26.3213C89.3564 25.8994 89.1865 25.5273 88.958 25.2051C88.7354 24.877 88.4541 24.6191 88.1143 24.4316C87.7803 24.2441 87.3877 24.1504 86.9365 24.1504C86.4912 24.1504 86.0986 24.2441 85.7588 24.4316C85.4248 24.6191 85.1436 24.877 84.915 25.2051C84.6924 25.5273 84.5254 25.8994 84.4141 26.3213C84.3027 26.7373 84.2471 27.1797 84.2471 27.6484ZM95.7256 30.8125L98.1689 22.9902H99.2412L99.0303 24.5459L96.543 32.5H95.4971L95.7256 30.8125ZM94.082 22.9902L96.165 30.9004L96.3145 32.5H95.2158L92.4561 22.9902H94.082ZM101.579 30.8389L103.565 22.9902H105.183L102.423 32.5H101.333L101.579 30.8389ZM99.4785 22.9902L101.869 30.6807L102.142 32.5H101.104L98.5469 24.5283L98.3359 22.9902H99.4785ZM108.479 25.0205V32.5H106.853V22.9902H108.391L108.479 25.0205ZM108.092 27.3848L107.415 27.3584C107.421 26.708 107.518 26.1074 107.705 25.5566C107.893 25 108.156 24.5166 108.496 24.1064C108.836 23.6963 109.24 23.3799 109.709 23.1572C110.184 22.9287 110.708 22.8145 111.282 22.8145C111.751 22.8145 112.173 22.8789 112.548 23.0078C112.923 23.1309 113.242 23.3301 113.506 23.6055C113.775 23.8809 113.98 24.2383 114.121 24.6777C114.262 25.1113 114.332 25.6416 114.332 26.2686V32.5H112.697V26.251C112.697 25.7529 112.624 25.3545 112.478 25.0557C112.331 24.751 112.117 24.5312 111.836 24.3965C111.555 24.2559 111.209 24.1855 110.799 24.1855C110.395 24.1855 110.025 24.2705 109.691 24.4404C109.363 24.6104 109.079 24.8447 108.839 25.1436C108.604 25.4424 108.42 25.7852 108.285 26.1719C108.156 26.5527 108.092 26.957 108.092 27.3848ZM118.568 19V32.5H116.934V19H118.568ZM120.748 27.8506V27.6484C120.748 26.9629 120.848 26.3271 121.047 25.7412C121.246 25.1494 121.533 24.6367 121.908 24.2031C122.283 23.7637 122.737 23.4238 123.271 23.1836C123.804 22.9375 124.401 22.8145 125.063 22.8145C125.731 22.8145 126.332 22.9375 126.865 23.1836C127.404 23.4238 127.861 23.7637 128.236 24.2031C128.617 24.6367 128.907 25.1494 129.106 25.7412C129.306 26.3271 129.405 26.9629 129.405 27.6484V27.8506C129.405 28.5361 129.306 29.1719 129.106 29.7578C128.907 30.3438 128.617 30.8564 128.236 31.2959C127.861 31.7295 127.407 32.0693 126.874 32.3154C126.347 32.5557 125.749 32.6758 125.081 32.6758C124.413 32.6758 123.812 32.5557 123.279 32.3154C122.746 32.0693 122.289 31.7295 121.908 31.2959C121.533 30.8564 121.246 30.3438 121.047 29.7578C120.848 29.1719 120.748 28.5361 120.748 27.8506ZM122.374 27.6484V27.8506C122.374 28.3252 122.43 28.7734 122.541 29.1953C122.652 29.6113 122.819 29.9805 123.042 30.3027C123.271 30.625 123.555 30.8799 123.895 31.0674C124.234 31.249 124.63 31.3398 125.081 31.3398C125.526 31.3398 125.916 31.249 126.25 31.0674C126.59 30.8799 126.871 30.625 127.094 30.3027C127.316 29.9805 127.483 29.6113 127.595 29.1953C127.712 28.7734 127.771 28.3252 127.771 27.8506V27.6484C127.771 27.1797 127.712 26.7373 127.595 26.3213C127.483 25.8994 127.313 25.5273 127.085 25.2051C126.862 24.877 126.581 24.6191 126.241 24.4316C125.907 24.2441 125.515 24.1504 125.063 24.1504C124.618 24.1504 124.226 24.2441 123.886 24.4316C123.552 24.6191 123.271 24.877 123.042 25.2051C122.819 25.5273 122.652 25.8994 122.541 26.3213C122.43 26.7373 122.374 27.1797 122.374 27.6484ZM137.052 30.874V25.9785C137.052 25.6035 136.976 25.2783 136.823 25.0029C136.677 24.7217 136.454 24.5049 136.155 24.3525C135.856 24.2002 135.487 24.124 135.048 24.124C134.638 24.124 134.277 24.1943 133.967 24.335C133.662 24.4756 133.422 24.6602 133.246 24.8887C133.076 25.1172 132.991 25.3633 132.991 25.627H131.365C131.365 25.2871 131.453 24.9502 131.629 24.6162C131.805 24.2822 132.057 23.9805 132.385 23.7109C132.719 23.4355 133.117 23.2188 133.58 23.0605C134.049 22.8965 134.57 22.8145 135.145 22.8145C135.836 22.8145 136.445 22.9316 136.973 23.166C137.506 23.4004 137.922 23.7549 138.221 24.2295C138.525 24.6982 138.678 25.2871 138.678 25.9961V30.4258C138.678 30.7422 138.704 31.0791 138.757 31.4365C138.815 31.7939 138.9 32.1016 139.012 32.3594V32.5H137.315C137.233 32.3125 137.169 32.0635 137.122 31.7529C137.075 31.4365 137.052 31.1436 137.052 30.874ZM137.333 26.7344L137.351 27.877H135.707C135.244 27.877 134.831 27.915 134.468 27.9912C134.104 28.0615 133.8 28.1699 133.554 28.3164C133.308 28.4629 133.12 28.6475 132.991 28.8701C132.862 29.0869 132.798 29.3418 132.798 29.6348C132.798 29.9336 132.865 30.2061 133 30.4521C133.135 30.6982 133.337 30.8945 133.606 31.041C133.882 31.1816 134.219 31.252 134.617 31.252C135.115 31.252 135.555 31.1465 135.936 30.9355C136.316 30.7246 136.618 30.4668 136.841 30.1621C137.069 29.8574 137.192 29.5615 137.21 29.2744L137.904 30.0566C137.863 30.3027 137.752 30.5752 137.57 30.874C137.389 31.1729 137.146 31.46 136.841 31.7354C136.542 32.0049 136.185 32.2305 135.769 32.4121C135.358 32.5879 134.896 32.6758 134.38 32.6758C133.735 32.6758 133.17 32.5498 132.684 32.2979C132.203 32.0459 131.828 31.709 131.559 31.2871C131.295 30.8594 131.163 30.3818 131.163 29.8545C131.163 29.3447 131.263 28.8965 131.462 28.5098C131.661 28.1172 131.948 27.792 132.323 27.5342C132.698 27.2705 133.149 27.0713 133.677 26.9365C134.204 26.8018 134.793 26.7344 135.443 26.7344H137.333ZM147.229 30.6543V19H148.864V32.5H147.37L147.229 30.6543ZM140.831 27.8506V27.666C140.831 26.9395 140.919 26.2803 141.095 25.6885C141.276 25.0908 141.531 24.5781 141.859 24.1504C142.193 23.7227 142.589 23.3945 143.046 23.166C143.509 22.9316 144.024 22.8145 144.593 22.8145C145.19 22.8145 145.712 22.9199 146.157 23.1309C146.608 23.3359 146.989 23.6377 147.3 24.0361C147.616 24.4287 147.865 24.9033 148.047 25.46C148.229 26.0166 148.354 26.6465 148.425 27.3496V28.1582C148.36 28.8555 148.234 29.4824 148.047 30.0391C147.865 30.5957 147.616 31.0703 147.3 31.4629C146.989 31.8555 146.608 32.1572 146.157 32.3682C145.706 32.5732 145.179 32.6758 144.575 32.6758C144.019 32.6758 143.509 32.5557 143.046 32.3154C142.589 32.0752 142.193 31.7383 141.859 31.3047C141.531 30.8711 141.276 30.3613 141.095 29.7754C140.919 29.1836 140.831 28.542 140.831 27.8506ZM142.466 27.666V27.8506C142.466 28.3252 142.513 28.7705 142.606 29.1865C142.706 29.6025 142.858 29.9688 143.063 30.2852C143.269 30.6016 143.529 30.8506 143.846 31.0322C144.162 31.208 144.54 31.2959 144.979 31.2959C145.519 31.2959 145.961 31.1816 146.307 30.9531C146.658 30.7246 146.939 30.4229 147.15 30.0479C147.361 29.6729 147.525 29.2656 147.643 28.8262V26.708C147.572 26.3857 147.47 26.0752 147.335 25.7764C147.206 25.4717 147.036 25.2021 146.825 24.9678C146.62 24.7275 146.365 24.5371 146.061 24.3965C145.762 24.2559 145.407 24.1855 144.997 24.1855C144.552 24.1855 144.168 24.2793 143.846 24.4668C143.529 24.6484 143.269 24.9004 143.063 25.2227C142.858 25.5391 142.706 25.9082 142.606 26.3301C142.513 26.7461 142.466 27.1914 142.466 27.666ZM155.43 27.8506V27.6484C155.43 26.9629 155.529 26.3271 155.729 25.7412C155.928 25.1494 156.215 24.6367 156.59 24.2031C156.965 23.7637 157.419 23.4238 157.952 23.1836C158.485 22.9375 159.083 22.8145 159.745 22.8145C160.413 22.8145 161.014 22.9375 161.547 23.1836C162.086 23.4238 162.543 23.7637 162.918 24.2031C163.299 24.6367 163.589 25.1494 163.788 25.7412C163.987 26.3271 164.087 26.9629 164.087 27.6484V27.8506C164.087 28.5361 163.987 29.1719 163.788 29.7578C163.589 30.3438 163.299 30.8564 162.918 31.2959C162.543 31.7295 162.089 32.0693 161.556 32.3154C161.028 32.5557 160.431 32.6758 159.763 32.6758C159.095 32.6758 158.494 32.5557 157.961 32.3154C157.428 32.0693 156.971 31.7295 156.59 31.2959C156.215 30.8564 155.928 30.3438 155.729 29.7578C155.529 29.1719 155.43 28.5361 155.43 27.8506ZM157.056 27.6484V27.8506C157.056 28.3252 157.111 28.7734 157.223 29.1953C157.334 29.6113 157.501 29.9805 157.724 30.3027C157.952 30.625 158.236 30.8799 158.576 31.0674C158.916 31.249 159.312 31.3398 159.763 31.3398C160.208 31.3398 160.598 31.249 160.932 31.0674C161.271 30.8799 161.553 30.625 161.775 30.3027C161.998 29.9805 162.165 29.6113 162.276 29.1953C162.394 28.7734 162.452 28.3252 162.452 27.8506V27.6484C162.452 27.1797 162.394 26.7373 162.276 26.3213C162.165 25.8994 161.995 25.5273 161.767 25.2051C161.544 24.877 161.263 24.6191 160.923 24.4316C160.589 24.2441 160.196 24.1504 159.745 24.1504C159.3 24.1504 158.907 24.2441 158.567 24.4316C158.233 24.6191 157.952 24.877 157.724 25.2051C157.501 25.5273 157.334 25.8994 157.223 26.3213C157.111 26.7373 157.056 27.1797 157.056 27.6484ZM167.752 25.0205V32.5H166.126V22.9902H167.664L167.752 25.0205ZM167.365 27.3848L166.688 27.3584C166.694 26.708 166.791 26.1074 166.979 25.5566C167.166 25 167.43 24.5166 167.77 24.1064C168.109 23.6963 168.514 23.3799 168.982 23.1572C169.457 22.9287 169.981 22.8145 170.556 22.8145C171.024 22.8145 171.446 22.8789 171.821 23.0078C172.196 23.1309 172.516 23.3301 172.779 23.6055C173.049 23.8809 173.254 24.2383 173.395 24.6777C173.535 25.1113 173.605 25.6416 173.605 26.2686V32.5H171.971V26.251C171.971 25.7529 171.897 25.3545 171.751 25.0557C171.604 24.751 171.391 24.5312 171.109 24.3965C170.828 24.2559 170.482 24.1855 170.072 24.1855C169.668 24.1855 169.299 24.2705 168.965 24.4404C168.637 24.6104 168.353 24.8447 168.112 25.1436C167.878 25.4424 167.693 25.7852 167.559 26.1719C167.43 26.5527 167.365 26.957 167.365 27.3848ZM184.521 22.9902V24.2383H179.38V22.9902H184.521ZM181.12 20.6787H182.746V30.1445C182.746 30.4668 182.796 30.71 182.896 30.874C182.995 31.0381 183.124 31.1465 183.282 31.1992C183.44 31.252 183.61 31.2783 183.792 31.2783C183.927 31.2783 184.067 31.2666 184.214 31.2432C184.366 31.2139 184.48 31.1904 184.557 31.1729L184.565 32.5C184.437 32.541 184.267 32.5791 184.056 32.6143C183.851 32.6553 183.602 32.6758 183.309 32.6758C182.91 32.6758 182.544 32.5967 182.21 32.4385C181.876 32.2803 181.609 32.0166 181.41 31.6475C181.217 31.2725 181.12 30.7686 181.12 30.1357V20.6787ZM188.055 19V32.5H186.429V19H188.055ZM187.668 27.3848L186.991 27.3584C186.997 26.708 187.094 26.1074 187.281 25.5566C187.469 25 187.732 24.5166 188.072 24.1064C188.412 23.6963 188.816 23.3799 189.285 23.1572C189.76 22.9287 190.284 22.8145 190.858 22.8145C191.327 22.8145 191.749 22.8789 192.124 23.0078C192.499 23.1309 192.818 23.3301 193.082 23.6055C193.352 23.8809 193.557 24.2383 193.697 24.6777C193.838 25.1113 193.908 25.6416 193.908 26.2686V32.5H192.273V26.251C192.273 25.7529 192.2 25.3545 192.054 25.0557C191.907 24.751 191.693 24.5312 191.412 24.3965C191.131 24.2559 190.785 24.1855 190.375 24.1855C189.971 24.1855 189.602 24.2705 189.268 24.4404C188.939 24.6104 188.655 24.8447 188.415 25.1436C188.181 25.4424 187.996 25.7852 187.861 26.1719C187.732 26.5527 187.668 26.957 187.668 27.3848ZM200.289 32.6758C199.627 32.6758 199.026 32.5645 198.487 32.3418C197.954 32.1133 197.494 31.7939 197.107 31.3838C196.727 30.9736 196.434 30.4873 196.229 29.9248C196.023 29.3623 195.921 28.7471 195.921 28.0791V27.71C195.921 26.9365 196.035 26.248 196.264 25.6445C196.492 25.0352 196.803 24.5195 197.195 24.0977C197.588 23.6758 198.033 23.3564 198.531 23.1396C199.029 22.9229 199.545 22.8145 200.078 22.8145C200.758 22.8145 201.344 22.9316 201.836 23.166C202.334 23.4004 202.741 23.7285 203.058 24.1504C203.374 24.5664 203.608 25.0586 203.761 25.627C203.913 26.1895 203.989 26.8047 203.989 27.4727V28.2021H196.888V26.875H202.363V26.752C202.34 26.3301 202.252 25.9199 202.1 25.5215C201.953 25.123 201.719 24.7949 201.396 24.5371C201.074 24.2793 200.635 24.1504 200.078 24.1504C199.709 24.1504 199.369 24.2295 199.059 24.3877C198.748 24.54 198.481 24.7686 198.259 25.0732C198.036 25.3779 197.863 25.75 197.74 26.1895C197.617 26.6289 197.556 27.1357 197.556 27.71V28.0791C197.556 28.5303 197.617 28.9551 197.74 29.3535C197.869 29.7461 198.054 30.0918 198.294 30.3906C198.54 30.6895 198.836 30.9238 199.182 31.0938C199.533 31.2637 199.932 31.3486 200.377 31.3486C200.951 31.3486 201.438 31.2314 201.836 30.9971C202.234 30.7627 202.583 30.4492 202.882 30.0566L203.866 30.8389C203.661 31.1494 203.4 31.4453 203.084 31.7266C202.768 32.0078 202.378 32.2363 201.915 32.4121C201.458 32.5879 200.916 32.6758 200.289 32.6758Z" fill="#181818"/>
<path d="M82.5391 51.0684V56.7031C82.3177 56.9701 81.9759 57.2598 81.5137 57.5723C81.0514 57.8783 80.4557 58.1419 79.7266 58.3633C78.9974 58.5846 78.1152 58.6953 77.0801 58.6953C76.1621 58.6953 75.3255 58.5456 74.5703 58.2461C73.8151 57.9401 73.1641 57.4941 72.6172 56.9082C72.0768 56.3223 71.6602 55.6061 71.3672 54.7598C71.0742 53.9069 70.9277 52.9336 70.9277 51.8398V50.9512C70.9277 49.8574 71.0677 48.8841 71.3477 48.0312C71.6341 47.1784 72.041 46.459 72.5684 45.873C73.0957 45.2871 73.724 44.8411 74.4531 44.5352C75.1823 44.2292 75.9928 44.0762 76.8848 44.0762C78.1217 44.0762 79.1374 44.278 79.9316 44.6816C80.7259 45.0788 81.3314 45.6322 81.748 46.3418C82.1712 47.0449 82.4316 47.8522 82.5293 48.7637H79.6875C79.6159 48.2819 79.4792 47.862 79.2773 47.5039C79.0755 47.1458 78.7858 46.8659 78.4082 46.6641C78.0371 46.4622 77.5553 46.3613 76.9629 46.3613C76.4746 46.3613 76.0384 46.4622 75.6543 46.6641C75.2767 46.8594 74.9577 47.1491 74.6973 47.5332C74.4368 47.9173 74.2383 48.3926 74.1016 48.959C73.9648 49.5254 73.8965 50.1829 73.8965 50.9316V51.8398C73.8965 52.582 73.9681 53.2396 74.1113 53.8125C74.2546 54.3789 74.4661 54.8574 74.7461 55.248C75.0326 55.6322 75.3841 55.9219 75.8008 56.1172C76.2174 56.3125 76.7025 56.4102 77.2559 56.4102C77.7181 56.4102 78.1022 56.3711 78.4082 56.293C78.7207 56.2148 78.9714 56.1204 79.1602 56.0098C79.3555 55.8926 79.5052 55.7819 79.6094 55.6777V53.1582H76.9336V51.0684H82.5391ZM84.2773 53.3242V53.1191C84.2773 52.3444 84.388 51.6315 84.6094 50.9805C84.8307 50.3229 85.153 49.7533 85.5762 49.2715C85.9993 48.7897 86.5202 48.4154 87.1387 48.1484C87.7572 47.875 88.4668 47.7383 89.2676 47.7383C90.0684 47.7383 90.7812 47.875 91.4062 48.1484C92.0312 48.4154 92.5553 48.7897 92.9785 49.2715C93.4082 49.7533 93.7337 50.3229 93.9551 50.9805C94.1764 51.6315 94.2871 52.3444 94.2871 53.1191V53.3242C94.2871 54.0924 94.1764 54.8053 93.9551 55.4629C93.7337 56.1139 93.4082 56.6836 92.9785 57.1719C92.5553 57.6536 92.0345 58.028 91.416 58.2949C90.7975 58.5618 90.0879 58.6953 89.2871 58.6953C88.4863 58.6953 87.7734 58.5618 87.1484 58.2949C86.5299 58.028 86.0059 57.6536 85.5762 57.1719C85.153 56.6836 84.8307 56.1139 84.6094 55.4629C84.388 54.8053 84.2773 54.0924 84.2773 53.3242ZM87.0898 53.1191V53.3242C87.0898 53.7669 87.1289 54.1803 87.207 54.5645C87.2852 54.9486 87.4089 55.2871 87.5781 55.5801C87.7539 55.8665 87.9818 56.0911 88.2617 56.2539C88.5417 56.4167 88.8835 56.498 89.2871 56.498C89.6777 56.498 90.013 56.4167 90.293 56.2539C90.5729 56.0911 90.7975 55.8665 90.9668 55.5801C91.1361 55.2871 91.2598 54.9486 91.3379 54.5645C91.4225 54.1803 91.4648 53.7669 91.4648 53.3242V53.1191C91.4648 52.6895 91.4225 52.2858 91.3379 51.9082C91.2598 51.5241 91.1328 51.1855 90.957 50.8926C90.7878 50.5931 90.5632 50.3587 90.2832 50.1895C90.0033 50.0202 89.6647 49.9355 89.2676 49.9355C88.8704 49.9355 88.5319 50.0202 88.252 50.1895C87.9785 50.3587 87.7539 50.5931 87.5781 50.8926C87.4089 51.1855 87.2852 51.5241 87.207 51.9082C87.1289 52.2858 87.0898 52.6895 87.0898 53.1191ZM95.5664 53.3242V53.1191C95.5664 52.3444 95.6771 51.6315 95.8984 50.9805C96.1198 50.3229 96.4421 49.7533 96.8652 49.2715C97.2884 48.7897 97.8092 48.4154 98.4277 48.1484C99.0462 47.875 99.7559 47.7383 100.557 47.7383C101.357 47.7383 102.07 47.875 102.695 48.1484C103.32 48.4154 103.844 48.7897 104.268 49.2715C104.697 49.7533 105.023 50.3229 105.244 50.9805C105.465 51.6315 105.576 52.3444 105.576 53.1191V53.3242C105.576 54.0924 105.465 54.8053 105.244 55.4629C105.023 56.1139 104.697 56.6836 104.268 57.1719C103.844 57.6536 103.324 58.028 102.705 58.2949C102.087 58.5618 101.377 58.6953 100.576 58.6953C99.7754 58.6953 99.0625 58.5618 98.4375 58.2949C97.819 58.028 97.2949 57.6536 96.8652 57.1719C96.4421 56.6836 96.1198 56.1139 95.8984 55.4629C95.6771 54.8053 95.5664 54.0924 95.5664 53.3242ZM98.3789 53.1191V53.3242C98.3789 53.7669 98.418 54.1803 98.4961 54.5645C98.5742 54.9486 98.6979 55.2871 98.8672 55.5801C99.043 55.8665 99.2708 56.0911 99.5508 56.2539C99.8307 56.4167 100.173 56.498 100.576 56.498C100.967 56.498 101.302 56.4167 101.582 56.2539C101.862 56.0911 102.087 55.8665 102.256 55.5801C102.425 55.2871 102.549 54.9486 102.627 54.5645C102.712 54.1803 102.754 53.7669 102.754 53.3242V53.1191C102.754 52.6895 102.712 52.2858 102.627 51.9082C102.549 51.5241 102.422 51.1855 102.246 50.8926C102.077 50.5931 101.852 50.3587 101.572 50.1895C101.292 50.0202 100.954 49.9355 100.557 49.9355C100.16 49.9355 99.821 50.0202 99.541 50.1895C99.2676 50.3587 99.043 50.5931 98.8672 50.8926C98.6979 51.1855 98.5742 51.5241 98.4961 51.9082C98.418 52.2858 98.3789 52.6895 98.3789 53.1191ZM113.994 47.9336H116.543V58.1484C116.543 59.112 116.328 59.929 115.898 60.5996C115.475 61.2767 114.883 61.7878 114.121 62.1328C113.359 62.4844 112.474 62.6602 111.465 62.6602C111.022 62.6602 110.553 62.6016 110.059 62.4844C109.57 62.3672 109.102 62.1849 108.652 61.9375C108.21 61.6901 107.839 61.3776 107.539 61L108.779 59.3398C109.105 59.7174 109.482 60.0104 109.912 60.2188C110.342 60.4336 110.817 60.541 111.338 60.541C111.846 60.541 112.275 60.4466 112.627 60.2578C112.979 60.0755 113.249 59.8053 113.438 59.4473C113.626 59.0957 113.721 58.6693 113.721 58.168V50.375L113.994 47.9336ZM106.885 53.3438V53.1387C106.885 52.3314 106.982 51.599 107.178 50.9414C107.38 50.2773 107.663 49.7077 108.027 49.2324C108.398 48.7572 108.848 48.3893 109.375 48.1289C109.902 47.8685 110.498 47.7383 111.162 47.7383C111.865 47.7383 112.454 47.8685 112.93 48.1289C113.405 48.3893 113.796 48.7604 114.102 49.2422C114.408 49.7174 114.645 50.2806 114.814 50.9316C114.99 51.5762 115.127 52.2826 115.225 53.0508V53.5C115.127 54.2357 114.98 54.9193 114.785 55.5508C114.59 56.1823 114.333 56.7357 114.014 57.2109C113.695 57.6797 113.298 58.0443 112.822 58.3047C112.354 58.5651 111.794 58.6953 111.143 58.6953C110.492 58.6953 109.902 58.5618 109.375 58.2949C108.854 58.028 108.408 57.6536 108.037 57.1719C107.666 56.6901 107.38 56.1237 107.178 55.4727C106.982 54.8216 106.885 54.112 106.885 53.3438ZM109.697 53.1387V53.3438C109.697 53.7799 109.74 54.1868 109.824 54.5645C109.909 54.9421 110.039 55.2773 110.215 55.5703C110.397 55.8568 110.622 56.0814 110.889 56.2441C111.162 56.4004 111.484 56.4785 111.855 56.4785C112.37 56.4785 112.79 56.3711 113.115 56.1562C113.441 55.9349 113.685 55.6322 113.848 55.248C114.01 54.8639 114.105 54.4212 114.131 53.9199V52.6406C114.118 52.2305 114.062 51.8626 113.965 51.5371C113.867 51.2051 113.73 50.9219 113.555 50.6875C113.379 50.4531 113.151 50.2708 112.871 50.1406C112.591 50.0104 112.259 49.9453 111.875 49.9453C111.504 49.9453 111.182 50.0299 110.908 50.1992C110.641 50.362 110.417 50.5866 110.234 50.873C110.059 51.1595 109.925 51.498 109.834 51.8887C109.743 52.2728 109.697 52.6895 109.697 53.1387ZM121.699 43.5V58.5H118.877V43.5H121.699ZM128.887 58.6953C128.066 58.6953 127.331 58.5651 126.68 58.3047C126.029 58.0378 125.475 57.6699 125.02 57.2012C124.57 56.7324 124.225 56.1888 123.984 55.5703C123.743 54.9453 123.623 54.2812 123.623 53.5781V53.1875C123.623 52.3867 123.737 51.6543 123.965 50.9902C124.193 50.3262 124.518 49.75 124.941 49.2617C125.371 48.7734 125.892 48.3991 126.504 48.1387C127.116 47.8717 127.806 47.7383 128.574 47.7383C129.323 47.7383 129.987 47.862 130.566 48.1094C131.146 48.3568 131.631 48.7083 132.021 49.1641C132.419 49.6198 132.718 50.1667 132.92 50.8047C133.122 51.4362 133.223 52.1393 133.223 52.9141V54.0859H124.824V52.2109H130.459V51.9961C130.459 51.6055 130.387 51.2572 130.244 50.9512C130.107 50.6387 129.899 50.3913 129.619 50.209C129.339 50.0267 128.981 49.9355 128.545 49.9355C128.174 49.9355 127.855 50.0169 127.588 50.1797C127.321 50.3424 127.103 50.5703 126.934 50.8633C126.771 51.1562 126.647 51.5013 126.562 51.8984C126.484 52.2891 126.445 52.7188 126.445 53.1875V53.5781C126.445 54.0013 126.504 54.3919 126.621 54.75C126.745 55.1081 126.917 55.4173 127.139 55.6777C127.367 55.9382 127.64 56.14 127.959 56.2832C128.285 56.4264 128.652 56.498 129.062 56.498C129.57 56.498 130.042 56.4004 130.479 56.2051C130.921 56.0033 131.302 55.7005 131.621 55.2969L132.988 56.7812C132.767 57.1003 132.464 57.4062 132.08 57.6992C131.702 57.9922 131.247 58.2331 130.713 58.4219C130.179 58.6042 129.57 58.6953 128.887 58.6953ZM145.518 53.4316H141.895V51.1465H145.518C146.077 51.1465 146.533 51.0553 146.885 50.873C147.236 50.6842 147.493 50.4238 147.656 50.0918C147.819 49.7598 147.9 49.3854 147.9 48.9688C147.9 48.5456 147.819 48.1517 147.656 47.7871C147.493 47.4225 147.236 47.1296 146.885 46.9082C146.533 46.6868 146.077 46.5762 145.518 46.5762H142.91V58.5H139.98V44.2812H145.518C146.631 44.2812 147.585 44.4831 148.379 44.8867C149.18 45.2839 149.792 45.834 150.215 46.5371C150.638 47.2402 150.85 48.0443 150.85 48.9492C150.85 49.8672 150.638 50.6615 150.215 51.332C149.792 52.0026 149.18 52.5202 148.379 52.8848C147.585 53.2493 146.631 53.4316 145.518 53.4316ZM155.664 43.5V58.5H152.842V43.5H155.664ZM163.691 56.1172V51.4102C163.691 51.0716 163.636 50.7819 163.525 50.541C163.415 50.2936 163.242 50.1016 163.008 49.9648C162.78 49.8281 162.484 49.7598 162.119 49.7598C161.807 49.7598 161.536 49.8151 161.309 49.9258C161.081 50.0299 160.905 50.1829 160.781 50.3848C160.658 50.5801 160.596 50.8112 160.596 51.0781H157.783C157.783 50.6289 157.887 50.2025 158.096 49.7988C158.304 49.3952 158.607 49.0404 159.004 48.7344C159.401 48.4219 159.873 48.1777 160.42 48.002C160.973 47.8262 161.592 47.7383 162.275 47.7383C163.096 47.7383 163.825 47.875 164.463 48.1484C165.101 48.4219 165.602 48.832 165.967 49.3789C166.338 49.9258 166.523 50.6094 166.523 51.4297V55.9512C166.523 56.5306 166.559 57.0059 166.631 57.377C166.702 57.7415 166.807 58.0605 166.943 58.334V58.5H164.102C163.965 58.2135 163.861 57.8555 163.789 57.4258C163.724 56.9896 163.691 56.5534 163.691 56.1172ZM164.062 52.0645L164.082 53.6562H162.51C162.139 53.6562 161.816 53.6986 161.543 53.7832C161.27 53.8678 161.045 53.9883 160.869 54.1445C160.693 54.2943 160.563 54.4701 160.479 54.6719C160.4 54.8737 160.361 55.0951 160.361 55.3359C160.361 55.5768 160.417 55.7949 160.527 55.9902C160.638 56.179 160.798 56.3288 161.006 56.4395C161.214 56.5436 161.458 56.5957 161.738 56.5957C162.161 56.5957 162.529 56.5111 162.842 56.3418C163.154 56.1725 163.395 55.9642 163.564 55.7168C163.74 55.4694 163.831 55.235 163.838 55.0137L164.58 56.2051C164.476 56.472 164.333 56.7487 164.15 57.0352C163.975 57.3216 163.75 57.5918 163.477 57.8457C163.203 58.0931 162.874 58.2982 162.49 58.4609C162.106 58.6172 161.65 58.6953 161.123 58.6953C160.452 58.6953 159.844 58.5618 159.297 58.2949C158.757 58.0215 158.327 57.6471 158.008 57.1719C157.695 56.6901 157.539 56.1432 157.539 55.5312C157.539 54.9779 157.643 54.4863 157.852 54.0566C158.06 53.627 158.366 53.2656 158.77 52.9727C159.18 52.6732 159.691 52.4486 160.303 52.2988C160.915 52.1426 161.624 52.0645 162.432 52.0645H164.062ZM171.67 57.3086L174.473 47.9336H177.49L173.242 60.0918C173.151 60.3587 173.027 60.6452 172.871 60.9512C172.721 61.2572 172.516 61.5469 172.256 61.8203C172.002 62.1003 171.68 62.3281 171.289 62.5039C170.905 62.6797 170.433 62.7676 169.873 62.7676C169.606 62.7676 169.388 62.7513 169.219 62.7188C169.049 62.6862 168.848 62.6406 168.613 62.582V60.5215C168.685 60.5215 168.76 60.5215 168.838 60.5215C168.916 60.528 168.991 60.5312 169.062 60.5312C169.434 60.5312 169.736 60.4889 169.971 60.4043C170.205 60.3197 170.394 60.1895 170.537 60.0137C170.68 59.8444 170.794 59.623 170.879 59.3496L171.67 57.3086ZM170.498 47.9336L172.793 55.5898L173.193 58.5684L171.279 58.7734L167.48 47.9336H170.498Z" fill="#181818"/>
<rect x="0.5" y="1" width="234" height="77" rx="24.5" stroke="#181818"/>
</svg>
