<svg width="61" height="43" viewBox="0 0 61 43" fill="none" xmlns="http://www.w3.org/2000/svg">
<path d="M3.4406 7.62942V18.0354H0.600927V4.97361H3.27564L3.4406 7.62942ZM2.98107 11.0216L2.01487 11.0095C2.01487 10.1082 2.12485 9.27522 2.34479 8.51067C2.56474 7.74612 2.88681 7.08216 3.31099 6.51881C3.73517 5.94741 4.26148 5.5088 4.8899 5.20298C5.52617 4.88911 6.26064 4.73217 7.0933 4.73217C7.67459 4.73217 8.20482 4.8207 8.68399 4.99775C9.17101 5.16676 9.59127 5.43637 9.94476 5.80657C10.3061 6.17677 10.581 6.6516 10.7696 7.23105C10.9659 7.8105 11.0641 8.51067 11.0641 9.33156V18.0354H8.22445V9.58506C8.22445 8.94928 8.13019 8.45031 7.94166 8.08815C7.76099 7.726 7.49784 7.46846 7.15221 7.31555C6.81444 7.15459 6.40989 7.07412 5.93857 7.07412C5.40442 7.07412 4.94881 7.17874 4.57176 7.38798C4.20256 7.59723 3.90014 7.88293 3.66448 8.24509C3.42882 8.60724 3.256 9.02573 3.14603 9.50056C3.03606 9.97539 2.98107 10.4824 2.98107 11.0216ZM10.8874 10.249L9.55592 10.5508C9.55592 9.76212 9.66197 9.01769 9.87406 8.31752C10.094 7.6093 10.4121 6.98961 10.8285 6.45845C11.2527 5.91924 11.775 5.49672 12.3956 5.1909C13.0162 4.88508 13.7271 4.73217 14.5283 4.73217C15.1803 4.73217 15.7616 4.82472 16.2722 5.00983C16.7906 5.18688 17.2305 5.46856 17.5918 5.85486C17.9532 6.24116 18.2281 6.74415 18.4167 7.36384C18.6052 7.97548 18.6994 8.71589 18.6994 9.58506V18.0354H15.848V9.57299C15.848 8.91306 15.7537 8.40202 15.5652 8.03987C15.3845 7.67771 15.1253 7.42822 14.7875 7.29141C14.4497 7.14655 14.0452 7.07412 13.5739 7.07412C13.134 7.07412 12.7452 7.15862 12.4074 7.32762C12.0775 7.48858 11.7986 7.71795 11.5708 8.01572C11.343 8.30545 11.1702 8.63943 11.0523 9.01769C10.9424 9.39594 10.8874 9.80638 10.8874 10.249Z" fill="#181818"/>
<path d="M24.6616 4.97361V18.0354H21.8101V4.97361H24.6616ZM21.6216 1.5452C21.6216 1.10256 21.763 0.736384 22.0458 0.446659C22.3364 0.148886 22.737 0 23.2476 0C23.7504 0 24.1471 0.148886 24.4377 0.446659C24.7283 0.736384 24.8737 1.10256 24.8737 1.5452C24.8737 1.97979 24.7283 2.34194 24.4377 2.63167C24.1471 2.92139 23.7504 3.06625 23.2476 3.06625C22.737 3.06625 22.3364 2.92139 22.0458 2.63167C21.763 2.34194 21.6216 1.97979 21.6216 1.5452Z" fill="#181818"/>
<path d="M35.9378 4.97361H38.5183V17.6732C38.5183 18.8482 38.2747 19.8462 37.7877 20.667C37.3007 21.4879 36.6212 22.1116 35.7493 22.5382C34.8773 22.9728 33.8679 23.1901 32.7211 23.1901C32.234 23.1901 31.692 23.1176 31.095 22.9728C30.5059 22.8279 29.9325 22.5945 29.3747 22.2726C28.8249 21.9587 28.3653 21.5443 27.9961 21.0292L29.3276 19.315C29.7832 19.8703 30.2859 20.2767 30.8358 20.5343C31.3857 20.7918 31.963 20.9206 32.5679 20.9206C33.2199 20.9206 33.7737 20.7958 34.2293 20.5463C34.6927 20.3049 35.0502 19.9468 35.3015 19.4719C35.5529 18.9971 35.6786 18.4177 35.6786 17.7336V7.93122L35.9378 4.97361ZM27.2774 11.6494V11.3958C27.2774 10.406 27.3952 9.50459 27.6309 8.69175C27.8665 7.87086 28.2043 7.16667 28.6442 6.57917C29.0841 5.98362 29.6182 5.52892 30.2467 5.21505C30.8751 4.89313 31.586 4.73217 32.3794 4.73217C33.2042 4.73217 33.9072 4.88508 34.4885 5.1909C35.0777 5.49672 35.5686 5.93534 35.9614 6.50674C36.3541 7.07009 36.6605 7.74612 36.8804 8.53481C37.1082 9.31546 37.2771 10.1846 37.3871 11.1423V11.9512C37.285 12.8847 37.1122 13.7378 36.8686 14.5104C36.6251 15.283 36.3031 15.951 35.9025 16.5143C35.5018 17.0777 35.007 17.5123 34.4178 17.8181C33.8365 18.1239 33.1492 18.2768 32.3558 18.2768C31.5781 18.2768 30.8751 18.1118 30.2467 17.7819C29.6261 17.4519 29.0919 16.9891 28.6442 16.3936C28.2043 15.7981 27.8665 15.0979 27.6309 14.2931C27.3952 13.4803 27.2774 12.599 27.2774 11.6494ZM30.1171 11.3958V11.6494C30.1171 12.2449 30.172 12.8002 30.282 13.3153C30.3998 13.8303 30.5766 14.285 30.8122 14.6794C31.0558 15.0657 31.3621 15.3715 31.7313 15.5969C32.1084 15.8141 32.5522 15.9228 33.0628 15.9228C33.7305 15.9228 34.2764 15.7779 34.7006 15.4882C35.1326 15.1985 35.4626 14.8082 35.6904 14.3172C35.926 13.8183 36.091 13.263 36.1852 12.6513V10.4663C36.1381 9.99148 36.0399 9.54885 35.8907 9.13841C35.7493 8.72796 35.5568 8.36983 35.3133 8.06401C35.0698 7.75014 34.7634 7.5087 34.3942 7.3397C34.025 7.16264 33.5891 7.07412 33.0863 7.07412C32.5758 7.07412 32.1319 7.18679 31.7549 7.41213C31.3778 7.63747 31.0675 7.94731 30.824 8.34166C30.5884 8.73601 30.4116 9.19474 30.2938 9.71786C30.176 10.241 30.1171 10.8003 30.1171 11.3958Z" fill="#181818"/>
<path d="M44.3154 7.46042V18.0354H41.4758V4.97361H44.1858L44.3154 7.46042ZM48.2156 4.88911L48.192 7.59321C48.0192 7.56101 47.8307 7.53687 47.6264 7.52077C47.43 7.50468 47.2337 7.49663 47.0373 7.49663C46.5503 7.49663 46.1221 7.56906 45.7529 7.71392C45.3837 7.85074 45.0735 8.05194 44.8221 8.31752C44.5786 8.57505 44.3901 8.88892 44.2565 9.25912C44.123 9.62933 44.0444 10.0438 44.0209 10.5025L43.3728 10.5508C43.3728 9.72993 43.4514 8.9694 43.6085 8.26923C43.7656 7.56906 44.0012 6.9534 44.3154 6.42223C44.6375 5.89107 45.0381 5.4766 45.5173 5.17883C46.0043 4.88106 46.566 4.73217 47.2022 4.73217C47.3751 4.73217 47.5597 4.74827 47.756 4.78046C47.9603 4.81265 48.1134 4.84887 48.2156 4.88911Z" fill="#181818"/>
<path d="M49.1464 11.6494V11.3717C49.1464 10.4301 49.28 9.5569 49.547 8.75211C49.8141 7.93927 50.199 7.23507 50.7018 6.63953C51.2123 6.03593 51.8329 5.56916 52.5635 5.23919C53.3018 4.90118 54.1345 4.73217 55.0614 4.73217C55.9962 4.73217 56.8289 4.90118 57.5594 5.23919C58.2978 5.56916 58.9223 6.03593 59.4329 6.63953C59.9435 7.23507 60.3323 7.93927 60.5994 8.75211C60.8665 9.5569 61 10.4301 61 11.3717V11.6494C61 12.591 60.8665 13.4642 60.5994 14.269C60.3323 15.0737 59.9435 15.7779 59.4329 16.3815C58.9223 16.9771 58.3017 17.4439 57.5712 17.7819C56.8406 18.1118 56.0119 18.2768 55.085 18.2768C54.1502 18.2768 53.3136 18.1118 52.5752 17.7819C51.8447 17.4439 51.2241 16.9771 50.7135 16.3815C50.2029 15.7779 49.8141 15.0737 49.547 14.269C49.28 13.4642 49.1464 12.591 49.1464 11.6494ZM51.9861 11.3717V11.6494C51.9861 12.2369 52.045 12.7922 52.1628 13.3153C52.2807 13.8384 52.4653 14.2971 52.7166 14.6915C52.968 15.0858 53.2901 15.3957 53.6828 15.621C54.0756 15.8463 54.543 15.959 55.085 15.959C55.6113 15.959 56.0669 15.8463 56.4518 15.621C56.8446 15.3957 57.1666 15.0858 57.418 14.6915C57.6694 14.2971 57.854 13.8384 57.9718 13.3153C58.0975 12.7922 58.1603 12.2369 58.1603 11.6494V11.3717C58.1603 10.7923 58.0975 10.245 57.9718 9.72993C57.854 9.20681 57.6654 8.74406 57.4062 8.34166C57.1549 7.93927 56.8328 7.6254 56.44 7.40006C56.0551 7.16667 55.5956 7.04997 55.0614 7.04997C54.5273 7.04997 54.0638 7.16667 53.671 7.40006C53.2861 7.6254 52.968 7.93927 52.7166 8.34166C52.4653 8.74406 52.2807 9.20681 52.1628 9.72993C52.045 10.245 51.9861 10.7923 51.9861 11.3717Z" fill="#181818"/>
<path d="M7.75314 39.2215C7.75314 38.9318 7.68244 38.6702 7.54105 38.4368C7.39965 38.1954 7.12865 37.9781 6.72803 37.785C6.33526 37.5918 5.75398 37.4147 4.98416 37.2538C4.30861 37.1009 3.68804 36.9198 3.12246 36.7106C2.56474 36.4933 2.08557 36.2317 1.68495 35.9259C1.28433 35.6201 0.974052 35.2579 0.754105 34.8394C0.534157 34.4209 0.424184 33.938 0.424184 33.3908C0.424184 32.8596 0.538085 32.3566 0.765888 31.8818C0.99369 31.407 1.31968 30.9885 1.74387 30.6263C2.16805 30.2642 2.68257 29.9785 3.28743 29.7692C3.90014 29.56 4.58354 29.4554 5.33765 29.4554C6.40596 29.4554 7.3211 29.6405 8.08306 30.0107C8.85287 30.3728 9.44202 30.8678 9.85049 31.4955C10.259 32.1152 10.4632 32.8154 10.4632 33.596H7.62353C7.62353 33.25 7.53712 32.928 7.3643 32.6303C7.19934 32.3244 6.94797 32.079 6.6102 31.8939C6.27242 31.7007 5.84824 31.6042 5.33765 31.6042C4.85062 31.6042 4.44608 31.6846 4.12401 31.8456C3.8098 31.9985 3.57414 32.1997 3.41704 32.4492C3.26779 32.6987 3.19316 32.9723 3.19316 33.2701C3.19316 33.4874 3.23244 33.6845 3.31099 33.8616C3.3974 34.0306 3.53879 34.1875 3.73517 34.3324C3.93156 34.4692 4.19864 34.598 4.53641 34.7187C4.88204 34.8394 5.31408 34.9561 5.83253 35.0688C6.80658 35.278 7.64317 35.5476 8.34228 35.8776C9.04926 36.1995 9.59127 36.618 9.96832 37.1331C10.3454 37.6401 10.5339 38.2839 10.5339 39.0646C10.5339 39.644 10.4121 40.1752 10.1686 40.6581C9.93297 41.1329 9.58734 41.5474 9.13174 41.9015C8.67613 42.2475 8.13019 42.5171 7.49392 42.7103C6.86549 42.9034 6.15852 43 5.373 43C4.21827 43 3.24029 42.7908 2.43906 42.3723C1.63782 41.9457 1.02904 41.4025 0.61271 40.7426C0.204237 40.0746 0 39.3825 0 38.6662H2.74541C2.77683 39.2054 2.92216 39.636 3.18138 39.9579C3.44846 40.2718 3.77838 40.5011 4.17114 40.646C4.57176 40.7828 4.98416 40.8512 5.40834 40.8512C5.91894 40.8512 6.34705 40.7828 6.69268 40.646C7.03831 40.5011 7.30146 40.308 7.48213 40.0665C7.6628 39.8171 7.75314 39.5354 7.75314 39.2215Z" fill="#181818"/>
<path d="M18.8644 29.6968V31.8214H11.6768V29.6968H18.8644ZM13.7506 26.4978H16.5903V39.1491C16.5903 39.5515 16.6453 39.8613 16.7553 40.0786C16.8731 40.2879 17.0341 40.4287 17.2384 40.5011C17.4426 40.5736 17.6822 40.6098 17.9571 40.6098C18.1535 40.6098 18.342 40.5977 18.5227 40.5736C18.7034 40.5494 18.8487 40.5253 18.9587 40.5011L18.9704 42.7223C18.7348 42.7948 18.4599 42.8592 18.1456 42.9155C17.8393 42.9718 17.4858 43 17.0852 43C16.4332 43 15.8558 42.8833 15.3531 42.6499C14.8504 42.4085 14.4576 42.0182 14.1748 41.4789C13.892 40.9397 13.7506 40.2235 13.7506 39.3302V26.4978Z" fill="#181818"/>
<path d="M20.2312 36.3725V36.0949C20.2312 35.1533 20.3648 34.2801 20.6318 33.4753C20.8989 32.6625 21.2838 31.9583 21.7866 31.3627C22.2971 30.7591 22.9177 30.2923 23.6483 29.9624C24.3866 29.6244 25.2193 29.4554 26.1462 29.4554C27.081 29.4554 27.9137 29.6244 28.6442 29.9624C29.3826 30.2923 30.0071 30.7591 30.5177 31.3627C31.0283 31.9583 31.4171 32.6625 31.6842 33.4753C31.9513 34.2801 32.0848 35.1533 32.0848 36.0949V36.3725C32.0848 37.3141 31.9513 38.1873 31.6842 38.9921C31.4171 39.7969 31.0283 40.5011 30.5177 41.1047C30.0071 41.7003 29.3865 42.167 28.656 42.5051C27.9254 42.835 27.0967 43 26.1698 43C25.235 43 24.3984 42.835 23.66 42.5051C22.9295 42.167 22.3089 41.7003 21.7983 41.1047C21.2877 40.5011 20.8989 39.7969 20.6318 38.9921C20.3648 38.1873 20.2312 37.3141 20.2312 36.3725ZM23.0709 36.0949V36.3725C23.0709 36.96 23.1298 37.5153 23.2476 38.0385C23.3655 38.5616 23.5501 39.0203 23.8014 39.4147C24.0528 39.809 24.3749 40.1188 24.7676 40.3442C25.1604 40.5695 25.6278 40.6822 26.1698 40.6822C26.6961 40.6822 27.1517 40.5695 27.5366 40.3442C27.9294 40.1188 28.2514 39.809 28.5028 39.4147C28.7542 39.0203 28.9388 38.5616 29.0566 38.0385C29.1823 37.5153 29.2451 36.96 29.2451 36.3725V36.0949C29.2451 35.5154 29.1823 34.9682 29.0566 34.4531C28.9388 33.93 28.7502 33.4672 28.491 33.0648C28.2396 32.6625 27.9176 32.3486 27.5248 32.1232C27.1399 31.8899 26.6804 31.7732 26.1462 31.7732C25.6121 31.7732 25.1486 31.8899 24.7558 32.1232C24.3709 32.3486 24.0528 32.6625 23.8014 33.0648C23.5501 33.4672 23.3655 33.93 23.2476 34.4531C23.1298 34.9682 23.0709 35.5154 23.0709 36.0949Z" fill="#181818"/>
<path d="M37.3164 32.1836V42.7586H34.4767V29.6968H37.1868L37.3164 32.1836ZM41.2165 29.6123L41.193 32.3164C41.0202 32.2842 40.8316 32.2601 40.6274 32.244C40.431 32.2279 40.2346 32.2198 40.0382 32.2198C39.5512 32.2198 39.1231 32.2923 38.7539 32.4371C38.3847 32.5739 38.0744 32.7751 37.8231 33.0407C37.5795 33.2982 37.391 33.6121 37.2575 33.9823C37.1239 34.3525 37.0454 34.767 37.0218 35.2257L36.3738 35.274C36.3738 34.4531 36.4523 33.6926 36.6094 32.9924C36.7665 32.2923 37.0022 31.6766 37.3164 31.1454C37.6385 30.6143 38.0391 30.1998 38.5183 29.902C39.0053 29.6042 39.5669 29.4554 40.2032 29.4554C40.376 29.4554 40.5606 29.4715 40.757 29.5037C40.9612 29.5358 41.1144 29.5721 41.2165 29.6123Z" fill="#181818"/>
<path d="M48.3805 43C47.4379 43 46.5856 42.8431 45.8236 42.5292C45.0695 42.2073 44.4254 41.7606 43.8912 41.1892C43.3649 40.6178 42.9604 39.9458 42.6776 39.1732C42.3948 38.4006 42.2534 37.5677 42.2534 36.6743V36.1915C42.2534 35.1694 42.3988 34.2439 42.6894 33.4149C42.98 32.586 43.3846 31.8778 43.903 31.2903C44.4215 30.6947 45.0342 30.24 45.7412 29.9262C46.4481 29.6123 47.214 29.4554 48.0388 29.4554C48.95 29.4554 49.7473 29.6123 50.4308 29.9262C51.1142 30.24 51.6797 30.6827 52.1275 31.2541C52.5831 31.8174 52.9209 32.4894 53.1408 33.2701C53.3686 34.0507 53.4825 34.9118 53.4825 35.8535V37.0969H43.632V35.0084H50.6782V34.7791C50.6625 34.2559 50.5604 33.765 50.3718 33.3063C50.1912 32.8476 49.9123 32.4774 49.5353 32.1957C49.1582 31.914 48.6555 31.7732 48.027 31.7732C47.5557 31.7732 47.1355 31.8778 46.7663 32.087C46.4049 32.2882 46.1025 32.582 45.859 32.9683C45.6155 33.3546 45.427 33.8214 45.2934 34.3686C45.1677 34.9078 45.1049 35.5154 45.1049 36.1915V36.6743C45.1049 37.2457 45.1795 37.7769 45.3288 38.2678C45.4859 38.7507 45.7137 39.1732 46.0122 39.5354C46.3107 39.8975 46.672 40.1832 47.0962 40.3925C47.5204 40.5937 48.0035 40.6943 48.5455 40.6943C49.2289 40.6943 49.8377 40.5534 50.3718 40.2718C50.906 39.9901 51.3695 39.5917 51.7622 39.0766L53.2586 40.5615C52.9837 40.9719 52.6263 41.3663 52.1864 41.7445C51.7465 42.1147 51.2084 42.4165 50.5721 42.6499C49.9437 42.8833 49.2132 43 48.3805 43Z" fill="#181818"/>
<path d="M55.8155 41.3099C55.8155 40.8593 55.9648 40.481 56.2633 40.1752C56.5618 39.8613 56.9663 39.7044 57.4769 39.7044C57.9954 39.7044 58.3999 39.8613 58.6906 40.1752C58.9891 40.481 59.1383 40.8593 59.1383 41.3099C59.1383 41.7606 58.9891 42.1389 58.6906 42.4447C58.3999 42.7505 57.9954 42.9034 57.4769 42.9034C56.9663 42.9034 56.5618 42.7505 56.2633 42.4447C55.9648 42.1389 55.8155 41.7606 55.8155 41.3099Z" fill="#181818"/>
</svg>
