<svg width="398" height="360" viewBox="0 0 398 360" fill="none" xmlns="http://www.w3.org/2000/svg">
<path d="M27.0641 349.97L128.137 240.309H187.75L270.342 149.383H329.955L396.172 158.497L120.112 359.269L93.7631 359.534L27.0641 349.97Z" fill="white"/>
<path d="M93.7633 359.998C93.7403 360.001 93.7172 360.001 93.6942 359.998L26.9932 350.434C26.9076 350.421 26.8269 350.387 26.7599 350.334C26.6929 350.281 26.642 350.211 26.6126 350.132C26.5832 350.053 26.5765 349.968 26.593 349.886C26.6096 349.803 26.6489 349.727 26.7067 349.665L127.779 239.996C127.824 239.948 127.88 239.909 127.941 239.883C128.003 239.856 128.07 239.843 128.137 239.843H187.534L269.982 149.074C270.027 149.024 270.082 148.984 270.144 148.957C270.207 148.929 270.274 148.915 270.342 148.915H329.955H330.024L396.239 158.027C396.333 158.04 396.42 158.08 396.491 158.141C396.561 158.203 396.612 158.282 396.636 158.371C396.659 158.46 396.655 158.554 396.623 158.64C396.592 158.726 396.535 158.802 396.459 158.857L120.401 359.638C120.319 359.698 120.219 359.731 120.116 359.731L93.7694 359.998H93.7633ZM28.0134 349.635L93.7958 359.078L119.949 358.814L394.959 158.798L329.931 149.847H270.56L188.112 240.616C188.066 240.666 188.011 240.705 187.948 240.732C187.886 240.759 187.818 240.773 187.75 240.773H128.352L28.0134 349.635Z" fill="black"/>
<path d="M270.342 149.383L338.577 159.784L397.184 158.69L329.272 149.383H270.342Z" fill="white"/>
<path d="M338.577 160.248H338.504L270.267 149.841C270.148 149.823 270.041 149.762 269.966 149.67C269.892 149.579 269.855 149.463 269.865 149.347C269.874 149.231 269.928 149.123 270.016 149.043C270.104 148.964 270.219 148.919 270.34 148.919H329.272H329.339L397.251 158.224C397.369 158.242 397.476 158.302 397.55 158.392C397.625 158.482 397.662 158.596 397.655 158.711C397.648 158.826 397.596 158.935 397.511 159.015C397.425 159.096 397.311 159.143 397.192 159.146L338.587 160.242L338.577 160.248ZM276.467 149.847L338.61 159.319L391.195 158.336L329.237 149.845L276.467 149.847Z" fill="black"/>
<path d="M128.137 240.309L191.558 250.803L254.979 249.681L187.067 240.309H128.137Z" fill="white"/>
<path d="M191.558 251.267C191.531 251.269 191.503 251.269 191.476 251.267L128.055 240.775C127.938 240.754 127.834 240.692 127.761 240.6C127.689 240.509 127.655 240.394 127.665 240.279C127.675 240.165 127.729 240.058 127.816 239.979C127.903 239.901 128.018 239.856 128.137 239.855H187.069C187.091 239.853 187.113 239.853 187.136 239.855L255.048 249.227C255.166 249.245 255.272 249.305 255.347 249.395C255.422 249.485 255.459 249.599 255.452 249.714C255.445 249.829 255.393 249.938 255.307 250.018C255.222 250.099 255.108 250.146 254.989 250.149L191.568 251.271L191.558 251.267ZM133.786 240.783L191.594 250.348L248.988 249.333L187.032 240.783H133.786Z" fill="black"/>
<path d="M396.743 158.662H338.26L257.731 249.589H191.235L93.7632 359.534H396.743V158.662Z" fill="white"/>
<path d="M133.037 359.928H93.7633C93.6715 359.928 93.5816 359.902 93.5042 359.854C93.4269 359.806 93.3654 359.738 93.3271 359.657C93.2888 359.576 93.2753 359.487 93.2881 359.399C93.301 359.311 93.3397 359.228 93.3996 359.161L190.162 250.328C190.206 250.279 190.261 250.239 190.322 250.211C190.383 250.183 190.45 250.168 190.518 250.167L257.507 249.38L337.297 159.339C337.341 159.29 337.396 159.25 337.457 159.222C337.518 159.194 337.585 159.179 337.653 159.178L396.949 158.173C397.074 158.175 397.194 158.224 397.285 158.308C397.375 158.393 397.429 158.508 397.436 158.629C397.437 158.69 397.426 158.751 397.403 158.807C397.38 158.864 397.345 158.916 397.302 158.96C397.258 159.003 397.206 159.039 397.148 159.063C397.09 159.087 397.028 159.1 396.965 159.101L337.884 160.102L258.094 250.136C258.05 250.185 257.995 250.225 257.933 250.253C257.872 250.281 257.805 250.296 257.737 250.297L190.747 251.084L94.8079 358.999H133.037C133.164 358.999 133.286 359.048 133.376 359.135C133.466 359.222 133.516 359.34 133.516 359.464C133.516 359.587 133.466 359.705 133.376 359.792C133.286 359.879 133.164 359.928 133.037 359.928Z" fill="black"/>
<path d="M396.956 193.605C396.893 193.605 396.831 193.593 396.772 193.57C396.714 193.547 396.661 193.513 396.617 193.469C396.572 193.426 396.537 193.375 396.513 193.319C396.489 193.262 396.476 193.202 396.477 193.141V158.639C396.477 158.516 396.527 158.398 396.617 158.311C396.707 158.224 396.829 158.175 396.956 158.175C397.084 158.175 397.205 158.224 397.295 158.311C397.385 158.398 397.436 158.516 397.436 158.639V193.141C397.436 193.202 397.423 193.262 397.399 193.318C397.375 193.375 397.34 193.426 397.295 193.469C397.251 193.512 397.198 193.546 397.14 193.57C397.082 193.593 397.019 193.605 396.956 193.605Z" fill="black"/>
<path d="M174.484 346.533C174.392 346.533 174.302 346.508 174.225 346.46C174.148 346.412 174.086 346.344 174.048 346.263C174.009 346.183 173.996 346.093 174.008 346.006C174.02 345.918 174.059 345.835 174.118 345.767L210.115 304.864C210.152 304.808 210.2 304.761 210.257 304.724C210.314 304.688 210.379 304.664 210.446 304.654C210.514 304.643 210.583 304.647 210.649 304.665C210.715 304.683 210.776 304.714 210.828 304.756C210.881 304.799 210.923 304.851 210.953 304.911C210.983 304.971 210.999 305.036 211 305.102C211.002 305.168 210.989 305.234 210.962 305.294C210.935 305.355 210.895 305.41 210.845 305.455L174.856 346.36C174.811 346.414 174.755 346.457 174.69 346.487C174.626 346.517 174.555 346.533 174.484 346.533Z" fill="black"/>
<path d="M168.971 320.443C168.879 320.444 168.789 320.419 168.711 320.371C168.634 320.323 168.572 320.255 168.534 320.174C168.495 320.093 168.482 320.004 168.495 319.916C168.508 319.828 168.547 319.745 168.607 319.678L180.04 306.686C180.076 306.63 180.125 306.583 180.182 306.546C180.239 306.51 180.303 306.486 180.371 306.475C180.438 306.465 180.507 306.469 180.573 306.487C180.639 306.504 180.7 306.535 180.753 306.578C180.805 306.62 180.848 306.673 180.877 306.733C180.907 306.792 180.923 306.857 180.925 306.923C180.926 306.99 180.913 307.055 180.886 307.116C180.86 307.177 180.82 307.232 180.769 307.276L169.338 320.26C169.295 320.315 169.24 320.361 169.176 320.392C169.112 320.424 169.042 320.441 168.971 320.443Z" fill="black"/>
<path d="M59.2475 144.931C59.2475 144.931 86.275 158.769 94.7652 154.533C103.256 150.298 116.513 131.994 116.513 131.994L112.396 123.142C112.396 123.142 97.7139 146.749 70.3897 134.355C64.1754 131.53 59.2475 144.931 59.2475 144.931Z" fill="white"/>
<path d="M90.5076 155.798C79.5889 155.798 59.9808 145.832 59.0217 145.342C58.92 145.29 58.8411 145.204 58.7993 145.1C58.7576 144.996 58.7557 144.881 58.794 144.776C58.9302 144.408 62.1593 135.754 66.8393 133.863C67.4325 133.61 68.0755 133.485 68.7236 133.497C69.3717 133.508 70.0095 133.656 70.5927 133.93C81.7532 138.998 92.1029 138.691 101.351 133.023C108.273 128.782 111.949 122.957 111.985 122.9C112.03 122.827 112.095 122.767 112.172 122.728C112.25 122.688 112.337 122.67 112.424 122.676C112.511 122.681 112.595 122.709 112.667 122.757C112.738 122.804 112.795 122.87 112.831 122.947L116.948 131.8C116.982 131.873 116.996 131.954 116.989 132.034C116.981 132.114 116.951 132.19 116.903 132.256C116.361 133.008 103.491 150.711 94.9824 154.952C93.7916 155.54 92.2614 155.798 90.5076 155.798ZM59.8447 144.711C63.1266 146.346 86.9026 157.933 94.5455 154.12C102.345 150.231 114.446 133.997 115.964 131.931L112.319 124.102C109.53 127.958 105.989 131.249 101.896 133.789C95.3299 137.823 84.4986 141.264 70.1944 134.772C69.7322 134.552 69.2256 134.434 68.7107 134.425C68.1958 134.416 67.6852 134.517 67.2152 134.721C63.4395 136.242 60.5193 143.027 59.8447 144.711Z" fill="black"/>
<path d="M303.35 142.147L292.116 134.434C291.227 133.832 290.535 132.996 290.12 132.026C289.705 131.056 289.586 129.991 289.775 128.957C290.194 126.737 290.515 124.515 290.739 122.292C290.851 121.25 291.267 120.26 291.938 119.438C292.61 118.617 293.509 117.997 294.53 117.651L307.485 113.174C308.72 112.752 309.768 111.934 310.456 110.856C311.143 109.777 311.429 108.504 311.265 107.246L309.875 96.7275C309.704 95.4674 309.096 94.3008 308.151 93.4185C307.206 92.5362 305.98 91.9904 304.673 91.8703L290.921 90.568C289.834 90.4685 288.798 90.074 287.933 89.4298C287.067 88.7856 286.407 87.918 286.028 86.9266C285.242 84.8387 284.369 82.7849 283.409 80.7652C282.955 79.8097 282.793 78.7484 282.943 77.7068C283.092 76.6652 283.546 75.6867 284.252 74.8871L292.045 66.0108L294.949 72.1093L299.255 48.7423L283.242 47.2767C282.022 47.0183 280.749 47.1459 279.611 47.6407L267.068 53.0978C266.072 53.5318 264.97 53.6863 263.887 53.5437C262.805 53.4011 261.786 52.9671 260.945 52.2913C259.184 50.8657 257.355 49.5037 255.459 48.2053C254.567 47.5985 253.872 46.7578 253.457 45.782C253.042 44.8061 252.923 43.7358 253.115 42.697L255.526 29.662C255.712 28.6512 255.603 27.61 255.211 26.656L256.342 20.5064L240.632 19.0742C239.554 18.8832 238.441 18.9913 237.424 19.386C236.406 19.7807 235.525 20.446 234.881 21.3051L226.87 32.0581C226.235 32.9142 225.362 33.5789 224.353 33.9757C223.345 34.3725 222.24 34.4852 221.168 34.3008C218.853 33.8942 216.537 33.5801 214.22 33.3584C213.854 33.3241 213.491 33.2543 213.139 33.1499L216.452 15.1732L200.467 13.7115C199.818 13.5734 199.15 13.5435 198.492 13.623L187.534 14.9292C186.231 15.0773 185.02 15.6518 184.1 16.5577C183.18 17.4637 182.608 18.6465 182.478 19.9103L181.157 33.1007C181.055 34.1447 180.648 35.139 179.984 35.9674C179.319 36.7957 178.425 37.424 177.406 37.7789C175.211 38.5343 173.052 39.3756 170.928 40.3028C170.135 40.643 169.273 40.8056 168.406 40.7787C167.539 40.7518 166.689 40.536 165.92 40.1474L166.936 31.2948L152.421 29.8941C151.52 29.5929 150.557 29.5096 149.616 29.6515C148.674 29.7935 147.783 30.1564 147.019 30.7086L138.224 37.0982C137.177 37.8566 136.43 38.9398 136.108 40.1671C135.785 41.3943 135.908 42.6915 136.454 43.8419L142.173 55.8913C142.628 56.8447 142.792 57.9043 142.646 58.945C142.5 59.9858 142.049 60.9644 141.348 61.7655C139.866 63.4547 138.451 65.2102 137.105 67.0318C136.524 67.8097 135.747 68.4302 134.848 68.8336C133.949 69.237 132.958 69.4098 131.969 69.3355L132.943 68.5486L118.391 67.0338L117.781 66.9276C116.489 66.7009 115.156 66.9052 114 67.5069C112.843 68.1087 111.932 69.0723 111.414 70.2404L107.147 80.0039C106.64 81.1704 106.56 82.4696 106.921 83.686C107.281 84.9025 108.06 85.9632 109.128 86.6925L120.356 94.4199C121.245 95.0221 121.939 95.8574 122.356 96.8277C122.773 97.7981 122.895 98.8634 122.709 99.8987C122.29 102.12 121.969 104.342 121.746 106.564C121.633 107.605 121.217 108.595 120.545 109.416C119.874 110.237 118.975 110.857 117.954 111.203L104.999 115.666C103.764 116.088 102.716 116.906 102.028 117.984C101.34 119.062 101.055 120.336 101.219 121.594L102.615 132.12C102.769 133.259 103.28 134.324 104.08 135.171C104.879 136.019 105.929 136.608 107.086 136.859L107.163 136.873C107.248 136.891 107.336 136.909 107.421 136.922L123.65 139.956L121.618 138.284C122.69 138.388 123.711 138.781 124.566 139.418C125.42 140.055 126.072 140.91 126.45 141.888C127.243 143.997 128.123 146.071 129.092 148.112C129.54 149.065 129.697 150.122 129.545 151.159C129.392 152.195 128.937 153.168 128.232 153.963L119.344 164.084C118.496 165.048 118.015 166.265 117.982 167.53C117.949 168.796 118.366 170.034 119.163 171.038L125.845 179.348C126.861 180.642 128.387 180.922 129.984 181.392L146.444 184.481L146.755 175.286C147.597 175.14 148.461 175.176 149.286 175.39C150.112 175.604 150.879 175.991 151.533 176.523C153.297 177.949 155.132 179.33 157.032 180.627C157.924 181.236 158.618 182.079 159.033 183.057C159.448 184.034 159.567 185.106 159.375 186.147L156.963 199.184C156.736 200.434 156.956 201.721 157.586 202.834C158.217 203.947 159.221 204.818 160.432 205.304L170.615 209.435C171.314 209.717 172.064 209.865 172.822 209.87L172.75 209.915L189.03 212.943C189.03 212.943 186.908 200.569 186.969 200.746C187.004 200.844 182.511 203.726 178.568 206.234L185.6 196.792C186.236 195.935 187.109 195.271 188.119 194.875C189.129 194.479 190.233 194.367 191.306 194.553C193.618 194.959 195.934 195.273 198.252 195.493C199.332 195.6 200.359 195.999 201.216 196.645C202.073 197.291 202.724 198.157 203.096 199.144L207.815 211.589C208.628 213.716 210.632 215.264 212.962 215.264L229.774 218.317L228.774 211.855C229.464 211.02 229.888 210.008 229.994 208.943L231.313 195.751C231.418 194.703 231.83 193.705 232.499 192.875C233.169 192.045 234.069 191.417 235.094 191.065C237.262 190.315 239.4 189.481 241.508 188.565C242.506 188.132 243.61 187.981 244.693 188.126C245.777 188.272 246.796 188.71 247.635 189.389L258.202 197.948C259.052 198.635 260.086 199.073 261.183 199.211L276.678 202.117L276.963 185.167L276.3 185.757C276.224 185.5 276.128 185.248 276.014 185.004L270.295 172.954C269.84 172.001 269.676 170.941 269.823 169.9C269.969 168.86 270.42 167.881 271.122 167.08C272.603 165.39 274.017 163.634 275.363 161.814C276.005 160.956 276.883 160.29 277.899 159.895C278.914 159.5 280.023 159.39 281.1 159.579L294.687 161.928C295.979 162.155 297.312 161.95 298.468 161.349C299.625 160.747 300.536 159.783 301.054 158.615L305.321 148.852C305.833 147.684 305.917 146.382 305.558 145.163C305.199 143.943 304.42 142.879 303.35 142.147ZM199.605 159.477C173.669 155.9 155.611 132.828 159.273 107.947C162.935 83.0649 186.931 65.7925 212.867 69.3709C238.803 72.9493 256.855 96.0193 253.197 120.901C249.539 145.783 225.543 163.055 199.605 159.477Z" fill="black"/>
<path d="M320.146 144.465L308.912 136.751C308.023 136.149 307.329 135.314 306.912 134.343C306.495 133.373 306.373 132.308 306.559 131.272C306.978 129.053 307.299 126.832 307.522 124.607C307.635 123.566 308.052 122.576 308.724 121.755C309.396 120.934 310.295 120.314 311.316 119.969L324.271 115.491C325.506 115.069 326.554 114.251 327.242 113.172C327.93 112.094 328.215 110.819 328.051 109.562L326.663 99.0429C326.491 97.7827 325.883 96.6161 324.938 95.7338C323.992 94.8515 322.766 94.3058 321.459 94.1858L307.709 92.8855C306.622 92.786 305.586 92.3913 304.72 91.7467C303.854 91.1021 303.194 90.2339 302.816 89.2421C302.029 87.1542 301.155 85.1004 300.194 83.0807C299.741 82.1252 299.579 81.0639 299.728 80.0223C299.878 78.9806 300.332 78.0022 301.038 77.2025L309.928 67.0751C310.776 66.1105 311.256 64.8936 311.288 63.6277C311.321 62.3617 310.904 61.1232 310.107 60.1189L303.425 51.6598C302.624 50.6492 301.494 49.9299 300.218 49.6183C298.942 49.3066 297.595 49.4208 296.394 49.9424L283.854 55.4015C282.857 55.8356 281.755 55.99 280.672 55.847C279.589 55.7041 278.569 55.2695 277.729 54.5929C275.968 53.1673 274.139 51.806 272.242 50.5089C271.351 49.9014 270.657 49.0605 270.242 48.0849C269.827 47.1093 269.708 46.0394 269.899 45.0006L272.299 31.9735C272.526 30.7238 272.306 29.4366 271.675 28.3242C271.045 27.2119 270.041 26.341 268.83 25.8554L258.647 21.7241C257.435 21.2307 256.087 21.1486 254.82 21.4911C253.554 21.8336 252.445 22.5806 251.673 23.6107L243.664 34.3716C243.029 35.2295 242.156 35.8959 241.145 36.2934C240.135 36.691 239.029 36.8036 237.956 36.6182C235.642 36.209 233.326 35.8949 231.008 35.6759C229.929 35.5685 228.902 35.1691 228.047 34.5233C227.191 33.8776 226.54 33.0117 226.169 32.0246L221.471 19.5798C221.015 18.3862 220.156 17.377 219.032 16.7159C217.909 16.0549 216.588 15.7809 215.283 15.9384L204.326 17.2447C203.026 17.3957 201.818 17.9709 200.9 18.8757C199.983 19.7804 199.412 20.9606 199.28 22.2218L197.959 35.4142C197.858 36.4582 197.451 37.4524 196.786 38.2806C196.122 39.1087 195.228 39.7365 194.208 40.0904C192.013 40.8484 189.854 41.6897 187.732 42.6144C186.736 43.0414 185.637 43.1893 184.559 43.0411C183.481 42.893 182.468 42.4547 181.635 41.7763L171.068 33.2188C170.059 32.4009 168.795 31.9365 167.48 31.9008C166.165 31.8651 164.876 32.2601 163.821 33.022L155.026 39.4136C153.979 40.1717 153.232 41.2546 152.91 42.4815C152.588 43.7084 152.71 45.0052 153.256 46.1554L158.969 58.2225C159.424 59.1761 159.588 60.2357 159.441 61.2765C159.295 62.3173 158.844 63.2958 158.142 64.0967C156.661 65.7872 155.247 67.5427 153.9 69.363C153.26 70.2221 152.382 70.888 151.367 71.2839C150.352 71.6797 149.242 71.7892 148.166 71.5998L134.577 69.2391C133.286 69.0141 131.954 69.2196 130.8 69.822C129.645 70.4245 128.736 71.3883 128.22 72.5559L123.953 82.3194C123.446 83.4861 123.366 84.7854 123.727 86.002C124.088 87.2186 124.867 88.2792 125.936 89.008L137.162 96.7295C138.052 97.3314 138.745 98.1667 139.162 99.1372C139.578 100.108 139.7 101.173 139.513 102.208C139.094 104.427 138.773 106.649 138.55 108.873C138.437 109.915 138.021 110.904 137.349 111.726C136.678 112.547 135.779 113.167 134.758 113.512L121.803 117.99C120.569 118.412 119.521 119.23 118.833 120.308C118.146 121.386 117.86 122.66 118.023 123.917L119.413 134.438C119.585 135.698 120.193 136.865 121.138 137.747C122.084 138.629 123.31 139.175 124.617 139.295L138.365 140.595C139.446 140.693 140.477 141.083 141.34 141.722C142.203 142.361 142.862 143.222 143.242 144.207C144.036 146.316 144.916 148.391 145.884 150.431C146.331 151.384 146.488 152.441 146.336 153.477C146.183 154.513 145.728 155.486 145.024 156.28L136.146 166.402C135.298 167.366 134.818 168.583 134.786 169.849C134.753 171.115 135.17 172.354 135.967 173.358L142.648 181.817C143.448 182.826 144.576 183.544 145.85 183.856C147.123 184.168 148.468 184.055 149.667 183.536L162.21 178.079C163.206 177.645 164.308 177.491 165.391 177.634C166.474 177.777 167.493 178.211 168.333 178.888C170.094 180.315 171.926 181.676 173.83 182.972C174.721 183.579 175.416 184.419 175.831 185.395C176.246 186.371 176.364 187.441 176.173 188.48L173.763 201.513C173.535 202.763 173.755 204.05 174.385 205.162C175.015 206.274 176.019 207.145 177.229 207.631L187.415 211.762C188.626 212.256 189.974 212.338 191.24 211.995C192.506 211.653 193.615 210.906 194.387 209.876L202.397 199.115C203.033 198.258 203.905 197.593 204.914 197.196C205.923 196.799 207.027 196.686 208.1 196.87C210.415 197.28 212.731 197.594 215.048 197.813C216.128 197.919 217.155 198.318 218.012 198.964C218.869 199.609 219.521 200.476 219.892 201.464L224.59 213.907C225.045 215.101 225.904 216.111 227.027 216.772C228.151 217.434 229.472 217.708 230.776 217.55L241.734 216.244C243.035 216.094 244.245 215.518 245.162 214.613C246.08 213.707 246.651 212.525 246.781 211.263L248.104 198.068C248.209 197.019 248.62 196.019 249.289 195.188C249.959 194.356 250.86 193.726 251.886 193.373C254.054 192.624 256.192 191.791 258.302 190.874C259.3 190.441 260.404 190.289 261.487 190.434C262.571 190.58 263.59 191.018 264.429 191.698L274.996 200.256C276.005 201.074 277.269 201.538 278.585 201.574C279.9 201.609 281.19 201.214 282.244 200.453L291.039 194.061C292.087 193.303 292.834 192.22 293.156 190.993C293.478 189.766 293.356 188.469 292.809 187.319L287.095 175.274C286.639 174.32 286.475 173.26 286.621 172.219C286.767 171.178 287.218 170.199 287.92 169.398C289.402 167.71 290.817 165.955 292.163 164.133C292.804 163.273 293.683 162.606 294.699 162.21C295.715 161.815 296.827 161.706 297.904 161.897L311.491 164.243C312.783 164.471 314.116 164.266 315.273 163.665C316.429 163.063 317.34 162.099 317.858 160.931L322.125 151.167C322.636 149.999 322.718 148.697 322.358 147.478C321.997 146.258 321.217 145.195 320.146 144.465ZM216.401 161.794C190.465 158.216 172.407 135.142 176.069 110.262C179.731 85.3824 203.724 68.1099 229.663 71.6864C255.601 75.2628 273.657 98.3367 269.995 123.228C266.333 148.12 242.337 165.371 216.401 161.794Z" fill="white"/>
<path d="M230.043 218.05C228.756 218.052 227.499 217.669 226.445 216.955C225.39 216.241 224.589 215.229 224.149 214.058L219.451 201.615C219.109 200.712 218.511 199.919 217.726 199.328C216.941 198.736 216 198.37 215.011 198.271C212.696 198.051 210.337 197.732 208.024 197.323C207.041 197.156 206.029 197.261 205.104 197.625C204.179 197.989 203.379 198.598 202.796 199.383L194.787 210.143C193.956 211.263 192.755 212.076 191.384 212.447C190.012 212.818 188.55 212.726 187.24 212.185L177.055 208.054C175.74 207.532 174.65 206.59 173.966 205.383C173.283 204.177 173.048 202.78 173.301 201.427L175.711 188.392C175.884 187.438 175.773 186.457 175.391 185.562C175.009 184.667 174.371 183.897 173.553 183.34C171.645 182.037 169.786 180.654 168.026 179.232C167.253 178.614 166.318 178.216 165.325 178.085C164.331 177.954 163.32 178.095 162.405 178.49L149.865 183.95C148.566 184.519 147.107 184.645 145.725 184.307C144.343 183.969 143.12 183.188 142.256 182.09L135.575 173.631C134.706 172.544 134.252 171.201 134.289 169.827C134.326 168.453 134.852 167.134 135.778 166.093L144.666 155.971C145.31 155.244 145.726 154.353 145.866 153.405C146.006 152.457 145.864 151.49 145.457 150.616C144.485 148.578 143.589 146.471 142.795 144.359C142.443 143.456 141.837 142.667 141.044 142.082C140.252 141.497 139.306 141.139 138.314 141.05L124.562 139.755C123.145 139.631 121.814 139.042 120.789 138.086C119.765 137.13 119.109 135.863 118.929 134.497L117.541 123.976C117.357 122.613 117.664 121.23 118.409 120.061C119.154 118.891 120.293 118.005 121.634 117.553L134.589 113.075C135.523 112.757 136.346 112.19 136.961 111.438C137.576 110.686 137.959 109.782 138.066 108.828C138.287 106.605 138.615 104.349 139.033 102.124C139.202 101.176 139.089 100.201 138.707 99.3127C138.325 98.4245 137.691 97.6597 136.877 97.1073L125.639 89.3937C124.475 88.6073 123.626 87.4565 123.235 86.1351C122.844 84.8138 122.935 83.4024 123.493 82.1385L127.761 72.375C128.316 71.1044 129.303 70.0558 130.558 69.4031C131.813 68.7504 133.261 68.5329 134.662 68.7867L148.249 71.1337C149.236 71.3047 150.253 71.2034 151.183 70.8412C152.114 70.4791 152.92 69.8707 153.51 69.0858C154.862 67.2582 156.298 65.4759 157.778 63.7899C158.416 63.0557 158.826 62.1613 158.959 61.2106C159.093 60.26 158.946 59.292 158.534 58.4193L152.809 46.3601C152.21 45.1146 152.074 43.7072 152.423 42.3756C152.772 41.0441 153.585 39.87 154.725 39.0518L163.521 32.6621C164.658 31.8311 166.053 31.3981 167.478 31.4339C168.903 31.4696 170.273 31.9719 171.365 32.8589L181.932 41.4164C182.697 42.0371 183.627 42.4383 184.615 42.5746C185.604 42.7108 186.612 42.5768 187.526 42.1876C189.65 41.261 191.842 40.4072 194.041 39.6498C194.973 39.3227 195.791 38.7466 196.399 37.9883C197.006 37.23 197.38 36.3205 197.476 35.3651L198.796 22.1846C198.931 20.8149 199.546 19.5313 200.541 18.5487C201.536 17.5661 202.849 16.9439 204.261 16.7864L215.22 15.4802C216.632 15.3038 218.063 15.5971 219.279 16.3121C220.496 17.027 221.425 18.1211 221.914 19.4147L226.623 31.8615C226.965 32.7657 227.562 33.5586 228.347 34.1499C229.132 34.7412 230.073 35.1071 231.063 35.2058C233.379 35.4261 235.737 35.7448 238.049 36.154C239.033 36.3208 240.045 36.2161 240.969 35.8518C241.894 35.4876 242.694 34.8784 243.278 34.0943L251.287 23.3334C252.118 22.2137 253.318 21.4013 254.69 21.0301C256.062 20.659 257.523 20.7511 258.834 21.2914L269.017 25.4227C270.334 25.9444 271.426 26.8883 272.109 28.0963C272.793 29.3043 273.027 30.703 272.772 32.0582L270.362 45.0932C270.189 46.0438 270.298 47.0224 270.677 47.9154C271.056 48.8083 271.689 49.5787 272.502 50.1372C274.404 51.4356 276.264 52.8166 278.032 54.2448C278.804 54.8635 279.739 55.2607 280.732 55.3914C281.725 55.5221 282.736 55.3812 283.65 54.9845L296.193 49.5274C297.491 48.9587 298.95 48.8326 300.331 49.1699C301.712 49.5072 302.935 50.2879 303.799 51.3844L310.481 59.8436C311.349 60.9301 311.803 62.2736 311.766 63.6469C311.729 65.0202 311.203 66.339 310.278 67.3802L301.401 77.5017C300.757 78.2354 300.343 79.1314 300.206 80.0849C300.068 81.0384 300.215 82.01 300.627 82.886C301.588 84.9064 302.476 86.9917 303.269 89.0809C303.618 89.9899 304.224 90.7855 305.019 91.3769C305.813 91.9682 306.763 92.3315 307.76 92.4252L321.509 93.7275C322.927 93.8515 324.258 94.4404 325.282 95.3967C326.307 96.353 326.963 97.6193 327.142 98.986L328.53 109.505C328.714 110.868 328.408 112.251 327.662 113.421C326.917 114.591 325.778 115.477 324.438 115.93L311.483 120.407C310.548 120.725 309.725 121.293 309.11 122.044C308.495 122.796 308.112 123.701 308.006 124.655C307.784 126.874 307.457 129.128 307.036 131.359C306.868 132.307 306.982 133.282 307.364 134.17C307.746 135.058 308.381 135.823 309.195 136.376L320.428 144.089C321.593 144.875 322.442 146.026 322.833 147.348C323.224 148.669 323.133 150.081 322.574 151.344L318.307 161.108C317.753 162.377 316.768 163.425 315.514 164.077C314.261 164.73 312.815 164.948 311.416 164.696L297.829 162.349C296.842 162.178 295.825 162.279 294.894 162.641C293.964 163.003 293.157 163.612 292.568 164.397C291.214 166.227 289.779 168.007 288.3 169.693C287.659 170.428 287.246 171.325 287.112 172.278C286.977 173.232 287.126 174.202 287.54 175.077L293.258 187.127C293.858 188.372 293.994 189.779 293.645 191.111C293.295 192.442 292.481 193.616 291.34 194.433L282.545 200.825C281.408 201.655 280.013 202.088 278.589 202.052C277.164 202.016 275.795 201.514 274.703 200.628L264.136 192.07C263.366 191.448 262.431 191.048 261.437 190.914C260.444 190.78 259.431 190.918 258.515 191.313C256.412 192.228 254.247 193.074 252.063 193.825C251.125 194.151 250.301 194.727 249.688 195.487C249.074 196.247 248.696 197.16 248.596 198.12L247.275 211.312C247.141 212.682 246.524 213.965 245.529 214.948C244.534 215.931 243.221 216.553 241.809 216.71L230.843 218.003C230.578 218.034 230.31 218.05 230.043 218.05ZM207.092 196.312C207.458 196.312 207.824 196.344 208.185 196.406C210.481 196.811 212.806 197.126 215.094 197.343C216.263 197.46 217.375 197.893 218.303 198.592C219.23 199.291 219.937 200.228 220.341 201.297L225.039 213.74C225.453 214.839 226.24 215.769 227.272 216.377C228.304 216.985 229.519 217.234 230.717 217.084L241.677 215.778C242.872 215.645 243.983 215.119 244.826 214.288C245.668 213.457 246.191 212.371 246.306 211.212L247.627 198.019C247.744 196.884 248.191 195.804 248.916 194.905C249.642 194.006 250.616 193.325 251.726 192.94C253.88 192.196 256.026 191.366 258.104 190.455C259.186 189.99 260.379 189.827 261.551 189.985C262.723 190.142 263.826 190.614 264.735 191.346L275.302 199.904C276.227 200.658 277.388 201.087 278.596 201.118C279.805 201.15 280.989 200.784 281.954 200.079L290.749 193.687C291.713 192.997 292.402 192.005 292.698 190.879C292.994 189.754 292.88 188.564 292.374 187.51L286.656 175.461C286.166 174.427 285.989 173.279 286.148 172.151C286.306 171.024 286.793 169.963 287.55 169.093C289.013 167.427 290.432 165.666 291.769 163.858C292.464 162.93 293.416 162.211 294.514 161.782C295.613 161.354 296.814 161.234 297.979 161.436L311.566 163.783C312.753 164 313.98 163.816 315.044 163.263C316.107 162.71 316.943 161.821 317.412 160.744L321.68 150.98C322.151 149.91 322.226 148.715 321.893 147.597C321.559 146.479 320.838 145.506 319.851 144.843L308.634 137.129C307.671 136.474 306.921 135.569 306.47 134.517C306.019 133.466 305.887 132.312 306.087 131.19C306.494 128.987 306.827 126.756 307.047 124.562C307.17 123.434 307.621 122.362 308.348 121.472C309.075 120.581 310.048 119.909 311.153 119.532L324.119 115.054C325.251 114.67 326.213 113.92 326.842 112.931C327.471 111.942 327.729 110.773 327.573 109.621L326.185 99.1021C326.034 97.9434 325.478 96.8698 324.609 96.0596C323.74 95.2493 322.611 94.7513 321.41 94.6482L307.658 93.3459C306.482 93.2354 305.362 92.8069 304.426 92.1094C303.489 91.4119 302.774 90.4736 302.362 89.4016C301.584 87.3359 300.708 85.2703 299.757 83.2755C299.269 82.2391 299.095 81.0893 299.257 79.9608C299.419 78.8323 299.91 77.7719 300.672 76.9036L309.562 66.7782C310.344 65.8969 310.787 64.7815 310.817 63.6206C310.847 62.4596 310.462 61.3242 309.727 60.4063L303.045 51.9471C302.313 51.016 301.275 50.3532 300.103 50.0673C298.93 49.7814 297.692 49.8893 296.591 50.3733L284.051 55.8304C282.971 56.2968 281.779 56.462 280.608 56.3073C279.436 56.1527 278.333 55.6843 277.422 54.955C275.676 53.5425 273.837 52.1772 271.956 50.8946C270.992 50.2343 270.241 49.3226 269.792 48.2656C269.343 47.2086 269.213 46.0497 269.417 44.924L271.83 31.889C272.041 30.7424 271.84 29.5601 271.26 28.5398C270.679 27.5194 269.755 26.7226 268.641 26.2823L258.458 22.1511C257.347 21.6922 256.108 21.6134 254.945 21.9277C253.781 22.2421 252.764 22.9308 252.059 23.8803L244.052 34.6451C243.363 35.571 242.418 36.29 241.325 36.7197C240.233 37.1494 239.038 37.2725 237.877 37.0747C235.582 36.6694 233.257 36.3547 230.967 36.1383C229.798 36.0209 228.686 35.5881 227.758 34.889C226.831 34.1899 226.125 33.2527 225.72 32.1841L221.02 19.7393C220.607 18.64 219.82 17.7097 218.788 17.1018C217.756 16.4938 216.54 16.2445 215.342 16.3949L204.387 17.6973C203.189 17.8293 202.075 18.3558 201.231 19.1886C200.388 20.0213 199.865 21.1097 199.752 22.2711L198.431 35.4615C198.318 36.5923 197.876 37.6689 197.156 38.5666C196.437 39.4642 195.47 40.1461 194.366 40.5331C192.192 41.2807 190.024 42.1246 187.924 43.0413C186.846 43.5018 185.656 43.6608 184.49 43.5005C183.323 43.3403 182.225 42.8671 181.322 42.1344L170.755 33.5789C169.831 32.8244 168.669 32.3962 167.461 32.3644C166.253 32.3326 165.069 32.6991 164.104 33.4038L155.307 39.7934C154.342 40.4846 153.653 41.4769 153.357 42.6028C153.061 43.7286 153.175 44.9189 153.681 45.9725L159.403 58.0259C159.891 59.0605 160.066 60.2082 159.906 61.335C159.745 62.4618 159.258 63.5213 158.499 64.3899C157.036 66.0562 155.618 67.8189 154.282 69.6248C153.587 70.5527 152.636 71.2721 151.537 71.7004C150.439 72.1287 149.238 72.2487 148.072 72.0465L134.485 69.6995C133.3 69.484 132.073 69.6679 131.011 70.2204C129.948 70.773 129.112 71.6611 128.643 72.737L124.375 82.5004C123.904 83.57 123.827 84.7643 124.158 85.8822C124.49 87.0001 125.209 87.9734 126.194 88.6383L137.428 96.3499C138.39 97.0043 139.141 97.91 139.592 98.9616C140.042 100.013 140.175 101.167 139.974 102.289C139.568 104.488 139.236 106.717 139.017 108.915C138.893 110.044 138.441 111.115 137.714 112.006C136.987 112.896 136.014 113.569 134.908 113.947L121.955 118.42C120.82 118.802 119.856 119.551 119.225 120.54C118.594 121.529 118.333 122.699 118.488 123.852L119.888 134.379C120.04 135.537 120.595 136.61 121.464 137.421C122.332 138.231 123.461 138.729 124.662 138.833L138.411 140.133C139.582 140.241 140.698 140.665 141.633 141.358C142.567 142.05 143.281 142.982 143.695 144.048C144.481 146.139 145.367 148.22 146.337 150.237C146.819 151.273 146.986 152.42 146.818 153.544C146.651 154.669 146.155 155.724 145.39 156.585L136.501 166.707C135.72 167.588 135.277 168.703 135.247 169.864C135.217 171.025 135.602 172.161 136.337 173.079L143.018 181.538C143.751 182.469 144.788 183.132 145.961 183.417C147.133 183.703 148.371 183.596 149.472 183.111L162.013 177.654C163.092 177.187 164.284 177.022 165.455 177.177C166.626 177.331 167.729 177.8 168.639 178.53C170.379 179.936 172.22 181.304 174.106 182.59C175.07 183.25 175.821 184.162 176.271 185.219C176.72 186.276 176.85 187.435 176.646 188.561L174.234 201.596C174.021 202.742 174.22 203.924 174.799 204.945C175.378 205.966 176.301 206.763 177.414 207.204L187.599 211.336C188.71 211.794 189.949 211.873 191.113 211.558C192.276 211.244 193.294 210.556 193.999 209.606L202.009 198.846C202.59 198.065 203.353 197.429 204.236 196.988C205.12 196.548 206.098 196.316 207.092 196.312ZM223.251 162.729C220.939 162.728 218.631 162.569 216.342 162.253C190.176 158.645 171.911 135.294 175.593 110.197C179.276 85.1011 203.572 67.6202 229.73 71.2281C255.887 74.836 274.162 98.1794 270.47 123.283C269.601 129.275 267.505 135.038 264.305 140.235C261.106 145.432 256.867 149.959 251.837 153.55C243.582 159.516 233.554 162.737 223.251 162.729ZM216.468 161.334C222.562 162.196 228.772 161.886 234.743 160.423C240.714 158.959 246.328 156.371 251.264 152.806C256.193 149.288 260.346 144.853 263.481 139.761C266.616 134.669 268.669 129.022 269.521 123.152C273.138 98.5611 255.229 75.682 229.596 72.1468C203.962 68.6117 180.162 85.7385 176.542 110.329C172.923 134.92 190.835 157.799 216.468 161.334Z" fill="black"/>
<path d="M75.1346 115.257L62.2773 135.888C62.1005 136.124 60.2147 136.059 58.085 136.267C57.0913 136.366 56.0528 136.511 55.1912 136.647C55.0343 136.671 54.8885 136.74 54.7731 136.846C54.6576 136.951 54.578 137.088 54.5445 137.239C54.5111 137.389 54.5255 137.546 54.5858 137.688C54.6461 137.83 54.7495 137.951 54.8823 138.036L57.1827 139.511C62.007 142.604 67.7376 144.205 73.511 143.825C75.0404 143.738 76.5542 143.48 78.0223 143.056L82.9462 141.557C83.1071 141.509 83.248 141.413 83.348 141.282C83.4481 141.151 83.5021 140.992 83.5021 140.829C83.5021 140.666 83.4481 140.508 83.348 140.377C83.248 140.246 83.1071 140.149 82.9462 140.101L76.675 138.26L81.9708 127.383L75.1346 115.257Z" fill="white"/>
<path d="M71.8608 144.343C66.5382 144.306 61.3433 142.761 56.9185 139.897L54.6161 138.421C54.4033 138.285 54.2379 138.09 54.1416 137.862C54.0453 137.633 54.0225 137.382 54.0764 137.14C54.1302 136.899 54.258 136.679 54.4432 136.509C54.6283 136.339 54.8621 136.228 55.1139 136.189C56.1971 136.019 57.1806 135.89 58.0362 135.807C58.8917 135.724 59.7574 135.679 60.4361 135.648C60.9391 135.635 61.441 135.597 61.9399 135.534L74.7241 115.017C74.766 114.946 74.8275 114.887 74.9017 114.848C74.976 114.808 75.0601 114.789 75.1447 114.793C75.2283 114.796 75.3097 114.82 75.3809 114.862C75.4522 114.904 75.5108 114.964 75.5512 115.035L82.3792 127.161C82.4152 127.225 82.435 127.296 82.4371 127.369C82.4393 127.442 82.4236 127.514 82.3914 127.58L77.3334 137.973L83.0762 139.667C83.3355 139.742 83.563 139.896 83.7252 140.106C83.8874 140.316 83.9758 140.571 83.9774 140.833C83.979 141.095 83.8937 141.351 83.734 141.563C83.5744 141.775 83.3488 141.931 83.0904 142.01L78.1665 143.509C76.6622 143.944 75.1108 144.208 73.5434 144.296C72.9846 144.325 72.4217 144.343 71.8608 144.343ZM75.1122 116.19L62.6877 136.126C62.4357 136.466 62.0232 136.498 60.4849 136.572C59.8163 136.604 58.9852 136.643 58.1337 136.728C57.2822 136.812 56.3332 136.936 55.2684 137.103C55.2068 137.112 55.1494 137.139 55.1039 137.18C55.0584 137.222 55.0269 137.275 55.0137 137.334C55.0005 137.393 55.0061 137.455 55.0298 137.51C55.0535 137.566 55.0942 137.614 55.1464 137.646L57.4468 139.122C62.2752 142.218 67.9693 143.723 73.4784 143.361C74.9703 143.279 76.4474 143.029 77.88 142.618L82.8018 141.119C82.8645 141.099 82.9193 141.062 82.9582 141.01C82.9971 140.959 83.0181 140.897 83.0181 140.833C83.0181 140.77 82.9971 140.708 82.9582 140.656C82.9193 140.605 82.8645 140.567 82.8018 140.548L76.5327 138.709C76.4669 138.689 76.4062 138.656 76.3547 138.612C76.3031 138.568 76.262 138.514 76.234 138.453C76.2061 138.392 76.192 138.326 76.1927 138.26C76.1934 138.193 76.2088 138.128 76.238 138.067L81.4281 127.401L75.1122 116.19Z" fill="black"/>
<path d="M74.6469 129.24C75.0481 129.791 75.4997 130.305 75.9962 130.777L76.9046 131.64C76.9046 131.64 82.5336 136.206 84.6531 135.858C86.7727 135.51 89.9367 129.464 89.9367 129.464C91.3429 129.697 92.3285 129.152 92.4403 128.739C92.5521 128.325 91.8733 126.793 91.7859 126.006C91.7148 125.365 93.2084 122.455 93.8608 121.206C93.8608 121.206 97.1406 117.047 90.8674 111.409C76.4921 98.4862 72.6452 120.352 72.6452 120.352C72.591 120.798 72.5538 121.241 72.5334 121.68L74.6469 129.24Z" fill="white"/>
<path d="M84.4295 136.344C82.0235 136.344 77.1646 132.461 76.5956 132L75.6608 131.111C74.7429 130.242 73.9776 129.233 73.395 128.125C73.3373 128.015 73.3271 127.888 73.3665 127.77C73.406 127.653 73.4919 127.556 73.6053 127.5C73.7188 127.445 73.8505 127.435 73.9715 127.473C74.0925 127.511 74.1929 127.594 74.2505 127.704C74.7839 128.727 75.4876 129.657 76.3335 130.458L77.2398 131.322C79.3228 133.008 83.192 135.65 84.5738 135.414C85.9557 135.178 88.3292 131.524 89.5119 129.266C89.5582 129.178 89.6326 129.106 89.7241 129.062C89.8155 129.018 89.9192 129.003 90.0199 129.02C91.2392 129.217 91.9159 128.758 91.981 128.627C91.9124 128.243 91.8118 127.865 91.6802 127.497C91.5153 127.033 91.3922 126.556 91.3124 126.071C91.2494 125.51 91.8448 124.094 93.4339 121.015C93.4482 120.989 93.4646 120.964 93.4827 120.941C93.6026 120.785 96.3948 117.024 90.5422 111.763C86.8275 108.419 83.6776 107.042 81.1944 107.679C77.4268 108.633 75.6507 113.975 74.4741 117.504L74.2383 118.208C74.221 118.269 74.1911 118.325 74.1506 118.374C74.1101 118.423 74.0597 118.463 74.0025 118.493C73.9454 118.523 73.8826 118.541 73.818 118.546C73.7534 118.552 73.6884 118.544 73.6268 118.525C73.5652 118.505 73.5083 118.474 73.4596 118.432C73.4109 118.391 73.3714 118.34 73.3435 118.284C73.3155 118.227 73.2998 118.166 73.2971 118.103C73.2944 118.04 73.3049 117.978 73.328 117.919L73.5616 117.221C74.8013 113.495 76.6749 107.864 80.9525 106.782C83.7833 106.066 87.2339 107.514 91.2047 111.085C97.3743 116.628 94.6268 120.972 94.2874 121.46C92.6028 124.72 92.2553 125.715 92.2756 125.985C92.3519 126.409 92.4626 126.828 92.6069 127.236C92.8649 128.058 93.0133 128.54 92.9157 128.878C92.7369 129.549 91.6355 130.114 90.2211 129.99C89.4997 131.322 86.8254 136 84.7344 136.34C84.633 136.35 84.5311 136.351 84.4295 136.344Z" fill="black"/>
<path d="M104.751 114.779C103.869 112.204 101.406 110.335 98.4657 109.997C98.7705 109.277 99.0855 108.169 98.6445 107.138C97.6 104.693 93.1333 104.624 91.5706 104.601C88.9904 104.578 86.4466 105.192 84.1797 106.385C83.9887 105.887 83.2246 104.07 81.3632 103.353C78.5954 102.291 75.8297 104.597 75.5716 104.819C72.562 107.404 71.8406 111.988 72.0478 115.47C72.1637 117.437 71.8324 119.572 72.0133 120.951C72.0946 121.564 73.9743 121.844 74.6104 121.793L74.9965 121.761C75.3097 121.734 75.5995 121.589 75.803 121.357C76.0065 121.125 76.1073 120.825 76.0837 120.522C76.0139 119.656 76.1266 118.786 76.4149 117.964C76.6039 117.437 77.3436 115.307 78.636 115.273C79.5647 115.246 80.2414 116.314 80.3369 116.467C81.1031 117.679 80.6966 119.092 80.402 119.812C80.377 119.866 80.3652 119.926 80.3675 119.986C80.3699 120.045 80.3863 120.104 80.4155 120.157C80.4446 120.209 80.4859 120.255 80.536 120.29C80.5861 120.325 80.6439 120.348 80.7048 120.358C80.963 120.41 81.2317 120.373 81.4644 120.253C81.6971 120.133 81.8791 119.938 81.9789 119.701C82.0094 119.631 82.0379 119.558 82.0683 119.481C82.997 117.12 82.3732 115.613 83.3303 114.823C83.8546 114.392 84.5496 114.429 84.956 114.439C86.9333 114.526 88.0957 116.406 90.835 119.688C94.2368 123.76 94.5965 124.259 95.6105 124.57C98.1852 125.357 101.276 123.811 102.999 121.867C103.483 121.309 105.97 118.348 104.751 114.779Z" fill="black"/>
<path d="M97.0512 125.231C96.5131 125.233 95.9778 125.156 95.4641 125.001C94.383 124.668 94.0111 124.214 91.1112 120.746L90.463 119.959C90.02 119.43 89.6196 118.936 89.2437 118.479C87.3883 116.201 86.3682 114.938 84.9274 114.883C84.5657 114.868 84.019 114.844 83.637 115.157C83.2936 115.44 83.2306 115.893 83.1473 116.731C83.0784 117.72 82.8642 118.694 82.5112 119.624C82.4807 119.705 82.4482 119.782 82.4177 119.857C82.2728 120.19 82.0133 120.466 81.6831 120.636C81.3529 120.806 80.9721 120.861 80.605 120.791C80.4751 120.766 80.3524 120.714 80.246 120.638C80.1395 120.562 80.0518 120.464 79.9894 120.351C79.9269 120.238 79.8912 120.113 79.8849 119.985C79.8785 119.857 79.9017 119.729 79.9527 119.611C80.223 118.961 80.5786 117.722 79.9243 116.689C79.6215 116.209 79.1297 115.706 78.6461 115.715C78.2925 115.715 77.5914 116.046 76.8679 118.076C76.5954 118.847 76.4896 119.664 76.557 120.476C76.5881 120.902 76.4457 121.322 76.1603 121.646C75.875 121.971 75.4695 122.175 75.0309 122.213L74.6427 122.245C74.2952 122.272 71.686 122.162 71.5336 121C71.432 120.242 71.4787 119.288 71.5336 118.281C71.5938 117.35 71.6053 116.417 71.5681 115.485C71.4645 113.731 71.4238 107.744 75.2544 104.455C75.5796 104.174 78.5262 101.748 81.5398 102.905C83.133 103.517 84.0048 104.858 84.4214 105.728C86.6434 104.654 89.0954 104.103 91.5786 104.119C93.3141 104.146 97.9209 104.217 99.0874 106.944C99.4206 107.73 99.4288 108.616 99.1117 109.607C101.973 110.136 104.328 112.054 105.208 114.616C106.454 118.261 104.113 121.304 103.367 122.139C101.877 123.834 99.4125 125.231 97.0512 125.231ZM84.6551 113.955C84.777 113.955 84.8868 113.955 84.9802 113.955C86.862 114.037 88.0467 115.493 90.0078 117.907C90.3756 118.359 90.7739 118.849 91.2148 119.375L91.8631 120.161C94.6898 123.555 94.9702 123.876 95.7547 124.125C98.1343 124.859 101.016 123.39 102.635 121.568C103.3 120.819 105.383 118.123 104.296 114.94C103.483 112.544 101.166 110.791 98.4025 110.473C98.3293 110.464 98.259 110.44 98.1971 110.401C98.1353 110.362 98.0836 110.31 98.0461 110.248C98.0085 110.187 97.9861 110.118 97.9806 110.046C97.9751 109.975 97.9867 109.904 98.0144 109.837C98.4208 108.854 98.4879 108.018 98.1953 107.331C97.2706 105.167 92.9706 105.102 91.5562 105.081C89.0575 105.066 86.5952 105.661 84.397 106.812C84.3369 106.843 84.2705 106.861 84.2025 106.865C84.1345 106.869 84.0664 106.859 84.0028 106.835C83.9386 106.812 83.8805 106.776 83.8324 106.728C83.7844 106.681 83.7475 106.624 83.7244 106.562C83.4826 105.934 82.753 104.398 81.1801 103.808C78.6989 102.854 76.1648 104.945 75.8844 105.185C72.3749 108.199 72.4297 113.819 72.5192 115.472C72.5586 116.435 72.547 117.399 72.4846 118.361C72.4162 119.213 72.4162 120.068 72.4846 120.919C72.635 121.116 73.9071 121.409 74.5676 121.358L74.9496 121.326C75.1375 121.31 75.3113 121.223 75.4334 121.084C75.5554 120.945 75.616 120.765 75.6019 120.582C75.5251 119.651 75.6461 118.713 75.9575 117.828C76.6586 115.861 77.5507 114.852 78.6196 114.822C79.6886 114.793 80.4689 115.806 80.7432 116.239C81.5906 117.578 81.2045 119.091 80.8733 119.918C81.0124 119.929 81.1518 119.897 81.2707 119.827C81.3897 119.756 81.4819 119.65 81.5337 119.524C81.5622 119.459 81.5906 119.388 81.6191 119.316C81.9427 118.458 82.1377 117.561 82.1982 116.65C82.2897 115.763 82.3669 114.997 83.0233 114.458C83.4848 114.106 84.0621 113.928 84.649 113.955H84.6551Z" fill="white"/>
<path d="M5.18009 325.342L3.04431 343.682L11.1017 346.93L14.0687 326.935L5.18009 325.342Z" fill="white"/>
<path d="M11.1017 347.395C11.0383 347.395 10.9755 347.383 10.9168 347.359L2.85938 344.111C2.76409 344.072 2.68436 344.004 2.63202 343.918C2.57968 343.831 2.5575 343.731 2.56879 343.631L4.70457 325.291C4.71214 325.227 4.733 325.166 4.76585 325.111C4.79869 325.056 4.84284 325.008 4.89557 324.97C4.9483 324.932 5.00849 324.905 5.07245 324.891C5.13641 324.876 5.20278 324.874 5.26747 324.885L14.1561 326.479C14.2781 326.501 14.3868 326.567 14.4591 326.665C14.5315 326.762 14.562 326.883 14.5442 327.002L11.5752 346.995C11.5654 347.066 11.5388 347.133 11.4975 347.192C11.4563 347.25 11.4015 347.299 11.3375 347.334C11.2655 347.373 11.1844 347.394 11.1017 347.395ZM3.56047 343.387L10.7156 346.271L13.5302 327.311L5.60481 325.889L3.56047 343.387Z" fill="black"/>
<path d="M1.16876 341.951C0.774958 344.554 0.542201 347.177 0.471732 349.806C0.46691 350.685 0.795311 351.534 1.39464 352.194C1.99397 352.853 2.82253 353.277 3.72316 353.385C8.98437 354.038 20.9151 354.752 31.0798 353.859C31.7748 353.798 33.0063 353.308 33.3497 351.626C34.4999 345.978 24.3514 344.595 13.2315 340.497C13.0181 340.418 12.7859 340.4 12.562 340.444C12.3382 340.488 12.132 340.593 11.9676 340.747L10.7686 341.87C10.1812 342.425 9.43721 342.798 8.63062 342.944C7.82402 343.089 6.99103 343 6.23691 342.687L2.57906 341.18C2.43488 341.122 2.27888 341.096 2.12293 341.105C1.96698 341.114 1.81521 341.157 1.67918 341.232C1.54316 341.306 1.42647 341.409 1.33801 341.534C1.24956 341.659 1.19167 341.801 1.16876 341.951Z" fill="white"/>
<path d="M20.4862 354.746C13.6481 354.746 7.27732 354.294 3.65808 353.845C2.64278 353.721 1.70975 353.241 1.03564 352.495C0.361535 351.75 -0.00685385 350.791 0.000222144 349.8C0.0347685 346.861 0.455422 343.58 0.703343 341.886C0.7358 341.665 0.820376 341.453 0.950542 341.269C1.08071 341.084 1.25298 340.931 1.45407 340.821C1.65516 340.71 1.87969 340.647 2.11033 340.634C2.34096 340.621 2.57153 340.66 2.78425 340.747L6.44211 342.254C7.10683 342.531 7.84142 342.61 8.55293 342.483C9.26445 342.356 9.92093 342.027 10.4393 341.538L11.6383 340.413C11.8688 340.199 12.1573 340.052 12.4702 339.991C12.7831 339.929 13.1077 339.955 13.4063 340.064C16.0033 341.021 18.4988 341.813 20.9109 342.579C28.6676 345.044 34.7945 346.989 33.8313 351.716C33.4675 353.487 32.1527 354.233 31.1346 354.321C27.6638 354.626 24.014 354.746 20.4862 354.746ZM2.18477 341.565C2.05267 341.566 1.92514 341.612 1.82576 341.697C1.72639 341.781 1.6619 341.897 1.64422 342.024C1.40037 343.696 0.98581 346.942 0.951264 349.818C0.950373 350.58 1.23762 351.316 1.75876 351.887C2.27991 352.457 2.99891 352.824 3.78 352.916C9.21395 353.591 20.9577 354.274 31.033 353.391C31.281 353.369 32.5389 353.176 32.8742 351.528C33.6728 347.607 28.188 345.864 20.596 343.462C18.1716 342.693 15.666 341.888 13.0486 340.934C12.9205 340.886 12.781 340.875 12.6465 340.901C12.512 340.927 12.3879 340.99 12.2886 341.082L11.0896 342.207C10.4354 342.822 9.60773 343.236 8.71092 343.397C7.81411 343.557 6.88823 343.457 6.0499 343.11L2.39205 341.603C2.32652 341.575 2.25619 341.56 2.18477 341.558V341.565Z" fill="black"/>
<path d="M0.479911 349.375C0.479911 349.375 0.479911 349.669 0.479911 349.81C0.475089 350.689 0.80349 351.538 1.40282 352.198C2.00214 352.858 2.83071 353.281 3.73134 353.389C8.99255 354.042 20.9232 354.756 31.088 353.863C31.783 353.802 33.0145 353.312 33.3579 351.63C33.4194 351.15 33.433 350.666 33.3986 350.184L32.6771 350.219C22.4065 350.71 12.1126 350.471 1.87802 349.505L0.479911 349.375Z" fill="white"/>
<path d="M20.4862 354.746C13.6481 354.746 7.27732 354.294 3.65808 353.845C2.64278 353.721 1.70975 353.241 1.03564 352.495C0.361535 351.75 -0.00685385 350.791 0.000222144 349.8V349.362C0.00119443 349.298 0.0159846 349.235 0.0436373 349.177C0.0712901 349.119 0.11119 349.067 0.160761 349.025C0.209937 348.982 0.267908 348.95 0.33092 348.93C0.393932 348.91 0.46058 348.903 0.526547 348.909L1.91247 349.041C12.1236 350.001 22.3936 350.239 32.6405 349.751L33.3619 349.718C33.4874 349.712 33.6104 349.754 33.7043 349.835C33.7981 349.916 33.8554 350.029 33.8638 350.151C33.9036 350.675 33.8873 351.203 33.815 351.724C33.4513 353.495 32.1365 354.24 31.1184 354.329C27.6638 354.626 24.014 354.746 20.4862 354.746ZM0.951264 349.881C0.966489 350.632 1.26093 351.352 1.78055 351.91C2.30016 352.467 3.01008 352.825 3.78 352.917C9.21395 353.591 20.9577 354.274 31.033 353.391C31.281 353.369 32.5389 353.176 32.8742 351.528C32.9185 351.241 32.9355 350.95 32.925 350.66H32.6872C22.3947 351.157 12.0785 350.925 1.82102 349.966L0.951264 349.881Z" fill="black"/>
<path d="M15.7717 347.06C15.678 347.059 15.5867 347.031 15.509 346.981C15.4314 346.93 15.3707 346.858 15.3346 346.775C15.2985 346.691 15.2886 346.599 15.3059 346.51C15.3233 346.42 15.3672 346.338 15.4324 346.273L19.3361 342.49C19.427 342.408 19.547 342.364 19.6709 342.366C19.7948 342.368 19.9131 342.417 20.0009 342.502C20.0886 342.586 20.1391 342.701 20.1417 342.821C20.1443 342.941 20.0989 343.057 20.0148 343.145L16.1111 346.926C16.0207 347.012 15.8987 347.061 15.7717 347.06Z" fill="black"/>
<path d="M19.6063 347.453C19.4826 347.454 19.3636 347.407 19.2751 347.324C19.1836 347.238 19.1307 347.121 19.128 346.998C19.1254 346.875 19.1731 346.756 19.2608 346.667L22.3802 343.531C22.4232 343.484 22.4754 343.447 22.5337 343.421C22.592 343.394 22.6551 343.379 22.7194 343.377C22.7837 343.375 22.8479 343.385 22.908 343.407C22.9681 343.43 23.023 343.463 23.0693 343.506C23.1157 343.55 23.1526 343.601 23.1779 343.659C23.2032 343.716 23.2163 343.778 23.2165 343.84C23.2166 343.902 23.2039 343.964 23.1789 344.021C23.1539 344.079 23.1173 344.131 23.0711 344.174L19.9518 347.31C19.9072 347.355 19.8535 347.391 19.7942 347.416C19.7348 347.44 19.6709 347.453 19.6063 347.453Z" fill="black"/>
<path d="M34.443 204.48C34.443 204.48 29.5374 207.234 27.6231 223.393C25.7088 239.552 26.349 258.607 13.0181 277.492C2.37173 292.577 3.30651 318.039 1.76005 334.727C1.74224 334.918 1.76486 335.11 1.82655 335.292C1.88823 335.474 1.98767 335.642 2.11877 335.786C2.24987 335.929 2.40987 336.045 2.58895 336.127C2.76803 336.208 2.96242 336.254 3.1602 336.26L13.3656 336.588C13.6832 336.599 13.9955 336.508 14.255 336.331C14.5144 336.153 14.7067 335.898 14.8023 335.605C16.6313 330.136 25.6987 303.753 35.8878 288.456C46.6582 272.289 59.7533 230.325 59.7533 230.325C59.7533 230.325 57.3147 219.718 56.9855 209.551C56.6563 199.384 34.443 204.48 34.443 204.48Z" fill="black"/>
<path d="M88.8616 279.453L86.163 297.432L93.3669 297.698L99.2215 281.191L88.8616 279.453Z" fill="white"/>
<path d="M93.3669 298.162H93.3486L86.1548 297.896C86.0877 297.894 86.0218 297.877 85.9616 297.849C85.9013 297.82 85.848 297.779 85.8051 297.729C85.7621 297.679 85.7306 297.62 85.7124 297.558C85.6943 297.495 85.6899 297.43 85.6996 297.365L88.3902 279.386C88.3991 279.325 88.4208 279.266 88.454 279.213C88.4872 279.16 88.5311 279.114 88.5832 279.078C88.6352 279.041 88.6941 279.015 88.7565 279.001C88.819 278.987 88.8837 278.985 88.947 278.995L99.3109 280.734C99.3794 280.745 99.4446 280.771 99.5019 280.809C99.5592 280.847 99.6073 280.896 99.6427 280.954C99.6781 281.012 99.7 281.077 99.707 281.144C99.7139 281.211 99.7056 281.278 99.6828 281.342L93.8282 297.849C93.7949 297.941 93.7325 298.021 93.6497 298.078C93.5669 298.134 93.468 298.163 93.3669 298.162ZM86.7137 296.982L93.0296 297.214L98.5854 281.546L89.266 279.973L86.7137 296.982Z" fill="black"/>
<path d="M85.9029 298.847C86.4923 300.507 86.5979 304.158 87.9229 306.745C88.3286 307.531 89.0183 308.146 89.8612 308.472C90.704 308.799 91.6414 308.814 92.4952 308.516C97.4882 306.787 109.496 301.591 118.135 296.331C118.726 295.971 119.594 294.993 119.11 293.342C117.484 287.807 107.795 291.031 95.96 292.268C95.7319 292.29 95.515 292.375 95.335 292.512C95.1549 292.649 95.0192 292.834 94.9439 293.043L94.4014 294.574C94.1364 295.322 93.6491 295.979 93.0006 296.46C92.3521 296.942 91.5711 297.227 90.7557 297.281L86.7971 297.541C86.6406 297.55 86.4887 297.595 86.353 297.671C86.2173 297.747 86.1017 297.852 86.0151 297.979C85.9285 298.105 85.8733 298.249 85.8539 298.4C85.8344 298.551 85.8512 298.704 85.9029 298.847Z" fill="white"/>
<path d="M91.2353 309.185C90.4593 309.187 89.6981 308.979 89.0377 308.584C88.3774 308.19 87.8441 307.624 87.4982 306.952C86.6304 305.256 86.2667 303.133 85.9761 301.428C85.8624 300.607 85.6879 299.795 85.4538 298.998C85.3783 298.787 85.3543 298.561 85.3834 298.339C85.4126 298.117 85.4942 297.905 85.622 297.718C85.7498 297.532 85.9202 297.376 86.1202 297.264C86.3201 297.152 86.5441 297.085 86.7747 297.07L90.7333 296.809C91.4552 296.763 92.1469 296.511 92.7209 296.085C93.295 295.659 93.7256 295.078 93.9583 294.415L94.5009 292.886C94.6053 292.594 94.7936 292.336 95.0437 292.143C95.2938 291.951 95.5954 291.831 95.9133 291.798C98.6749 291.509 101.27 291.119 103.78 290.744C111.847 289.53 118.218 288.58 119.576 293.209C120.088 294.956 119.259 296.189 118.395 296.714C110.134 301.739 98.1446 307.044 92.6578 308.945C92.2014 309.103 91.7202 309.185 91.2353 309.185ZM113.052 290.657C110.602 290.657 107.488 291.125 103.926 291.66C101.406 292.038 98.7989 292.43 96.0149 292.721C95.878 292.735 95.7481 292.786 95.6401 292.868C95.5322 292.951 95.4507 293.061 95.4052 293.187L94.8627 294.716C94.5684 295.551 94.0256 296.283 93.3024 296.821C92.5792 297.358 91.708 297.676 90.7984 297.735L86.8398 297.995C86.756 298.001 86.6747 298.025 86.6021 298.066C86.5295 298.107 86.4676 298.163 86.4211 298.231C86.3742 298.298 86.3442 298.375 86.3336 298.456C86.323 298.537 86.3321 298.619 86.3602 298.695C86.6136 299.541 86.801 300.404 86.921 301.276C87.2035 302.921 87.553 304.969 88.3557 306.539C88.7114 307.22 89.3125 307.751 90.0453 308.032C90.7781 308.313 91.5918 308.324 92.3326 308.063C96.8643 306.49 109.008 301.324 117.881 295.921C118.084 295.794 119.122 295.07 118.649 293.455C118.031 291.342 116.027 290.657 113.048 290.657H113.052Z" fill="black"/>
<path d="M87.9167 306.126C87.9167 306.126 88.0488 306.389 88.1199 306.519C88.5252 307.306 89.2149 307.92 90.0579 308.247C90.9009 308.573 91.8384 308.589 92.6922 308.29C97.6852 306.562 109.502 301.601 118.141 296.335C118.732 295.975 119.6 294.997 119.116 293.346C118.947 292.892 118.732 292.455 118.474 292.042L117.848 292.388C108.926 297.338 99.6416 301.647 90.0687 305.282L87.9167 306.126Z" fill="white"/>
<path d="M91.4223 308.954C90.6463 308.957 89.8851 308.749 89.2247 308.354C88.5644 307.959 88.0311 307.394 87.6852 306.722L87.4819 306.328C87.4537 306.271 87.4377 306.209 87.4349 306.146C87.4321 306.083 87.4426 306.02 87.4657 305.96C87.4892 305.901 87.525 305.848 87.5708 305.803C87.6166 305.758 87.6714 305.722 87.7319 305.699L89.8758 304.843C99.4283 301.213 108.694 296.913 117.6 291.977L118.226 291.629C118.335 291.568 118.465 291.552 118.586 291.583C118.708 291.614 118.812 291.69 118.876 291.794C119.158 292.241 119.389 292.716 119.567 293.211C120.08 294.957 119.25 296.191 118.387 296.716C109.305 302.248 97.2525 307.19 92.8427 308.716C92.3869 308.874 91.9064 308.955 91.4223 308.954ZM88.5773 306.366C88.9404 307.032 89.5406 307.549 90.2669 307.82C90.9931 308.091 91.7963 308.099 92.5277 307.841C96.909 306.326 108.87 301.42 117.885 295.929C118.088 295.801 119.126 295.077 118.653 293.462C118.557 293.19 118.435 292.927 118.291 292.675L118.088 292.79C109.145 297.748 99.8406 302.067 90.2477 305.712L88.5773 306.366Z" fill="black"/>
<path d="M101.093 297.047C101.043 297.046 100.993 297.039 100.945 297.025C100.884 297.006 100.828 296.976 100.78 296.936C100.732 296.896 100.692 296.847 100.663 296.792C100.635 296.737 100.618 296.677 100.613 296.616C100.608 296.555 100.616 296.493 100.636 296.435L102.343 291.351C102.382 291.234 102.468 291.137 102.581 291.081C102.695 291.025 102.826 291.015 102.947 291.053C103.068 291.091 103.169 291.175 103.227 291.284C103.284 291.394 103.295 291.522 103.255 291.639L101.548 296.722C101.518 296.816 101.458 296.898 101.376 296.957C101.294 297.015 101.195 297.046 101.093 297.047Z" fill="black"/>
<path d="M104.694 295.703C104.619 295.702 104.546 295.685 104.479 295.652C104.413 295.619 104.355 295.572 104.31 295.514C104.266 295.455 104.236 295.388 104.223 295.317C104.21 295.246 104.214 295.172 104.235 295.103L105.546 290.936C105.561 290.875 105.59 290.818 105.629 290.767C105.668 290.717 105.718 290.675 105.774 290.644C105.831 290.613 105.893 290.593 105.958 290.586C106.023 290.579 106.088 290.585 106.151 290.604C106.213 290.622 106.271 290.652 106.32 290.693C106.37 290.734 106.411 290.784 106.44 290.84C106.469 290.896 106.486 290.958 106.49 291.021C106.494 291.084 106.484 291.147 106.462 291.206L105.153 295.372C105.123 295.468 105.063 295.551 104.98 295.611C104.897 295.67 104.797 295.703 104.694 295.703Z" fill="black"/>
<path d="M51.5757 231.516C51.5757 231.516 75.6383 238.446 101.231 225.142C101.394 225.058 101.581 225.029 101.763 225.059C101.944 225.088 102.111 225.175 102.237 225.306C102.362 225.437 102.44 225.604 102.457 225.781C102.474 225.959 102.431 226.137 102.333 226.289C101.044 228.256 97.3599 233.107 95.4395 238.157C93.0741 244.374 88.0771 276.536 86.431 286.551C86.396 286.764 86.4083 286.982 86.467 287.19C86.5257 287.399 86.6296 287.592 86.7717 287.758C86.9138 287.925 87.0908 288.06 87.291 288.154C87.4912 288.249 87.71 288.302 87.9328 288.308L97.7724 288.619C98.0765 288.629 98.3769 288.553 98.6371 288.4C98.8973 288.248 99.1059 288.025 99.2376 287.759C102.79 280.598 128.061 224.414 127.177 213.919C126.22 202.569 110.748 203.148 105.165 202.802C99.392 202.444 53.3457 203.482 53.3457 203.482L51.5757 231.516Z" fill="black"/>
<path d="M153.878 127.899C152.815 128.505 151.478 129.183 150.354 129.695C148.903 130.354 142.835 135.882 142.835 135.882L137.192 132.008C137.192 132.008 141.943 128.05 142.144 125.335C142.331 122.806 143.595 117.763 148.375 115.418C148.924 115.149 149.838 115.342 150.116 115.515C150.952 116.032 150.523 117.262 149.785 117.903L147.706 119.715C147.665 119.75 147.634 119.797 147.618 119.848C147.602 119.9 147.601 119.954 147.616 120.006C147.631 120.058 147.66 120.105 147.701 120.141C147.741 120.178 147.792 120.203 147.847 120.213C148.834 120.409 151.118 120.533 154.232 118.69C156.625 117.272 161.547 113.969 162.397 115.08C163.904 117.075 159.696 124.584 153.878 127.899Z" fill="white"/>
<path d="M142.851 136.346C142.752 136.346 142.655 136.316 142.575 136.259L136.922 132.388C136.862 132.347 136.814 132.294 136.779 132.232C136.744 132.17 136.724 132.101 136.721 132.031C136.718 131.961 136.731 131.891 136.76 131.826C136.788 131.761 136.832 131.704 136.887 131.658C138.165 130.59 141.52 127.367 141.673 125.302C141.764 124.068 142.506 117.781 148.165 115.005C148.905 114.641 149.994 114.889 150.383 115.125C150.575 115.244 150.737 115.405 150.853 115.596C150.97 115.786 151.038 116 151.053 116.221C151.11 116.894 150.732 117.708 150.112 118.247L148.312 119.821C149.415 119.957 151.378 119.845 153.988 118.3C154.343 118.09 154.756 117.836 155.207 117.563C159.068 115.192 161.884 113.605 162.795 114.808C163.201 115.357 163.301 116.174 163.071 117.24C162.372 120.506 158.753 125.664 154.13 128.302C153.079 128.892 151.714 129.594 150.565 130.116C149.417 130.637 144.849 134.697 143.179 136.214C143.091 136.297 142.974 136.344 142.851 136.346ZM137.974 131.967L142.807 135.284C144.122 134.093 148.816 129.885 150.159 129.274C151.283 128.764 152.618 128.093 153.644 127.503C157.912 125.074 161.476 120.14 162.136 117.053C162.303 116.278 162.262 115.676 162.025 115.357C162.025 115.357 161.677 115.106 159.842 115.991C158.538 116.62 156.977 117.576 155.723 118.352C155.272 118.627 154.855 118.883 154.504 119.095C151.297 120.994 148.909 120.901 147.773 120.669C147.632 120.642 147.501 120.577 147.396 120.481C147.291 120.386 147.215 120.265 147.177 120.13C147.139 119.996 147.14 119.853 147.181 119.72C147.222 119.586 147.3 119.466 147.407 119.373L149.488 117.561C149.883 117.216 150.147 116.685 150.114 116.298C150.112 116.218 150.09 116.141 150.049 116.072C150.008 116.003 149.95 115.946 149.881 115.904C149.706 115.794 148.97 115.656 148.615 115.831C143.416 118.389 142.721 124.22 142.646 125.365C142.445 127.749 139.194 130.871 137.974 131.967Z" fill="black"/>
<path d="M143.88 135.634L139.582 128.617C138.877 127.46 136.647 127.112 135.536 127.914C111.233 145.45 85.3826 138.299 81.3834 137.377C71.4726 135.089 66.4797 134.741 58.662 134.282H58.4913C58.4243 134.282 58.3613 134.282 58.2881 134.282H57.9386C53.9027 134.282 34.3657 136.075 35.7882 169.87C35.8045 169.884 35.8147 169.899 35.8289 169.913C35.8736 170.952 36.0727 172.016 36.1175 173.112C36.1003 173.28 36.0935 173.449 36.0971 173.618V173.633C36.077 173.742 36.0505 173.85 36.0179 173.956L35.9874 174.037L35.077 180.904L34.6909 183.824C33.9248 189.804 33.0835 197.004 32.6872 203.915C32.6381 204.799 32.9226 205.669 33.4875 206.365C34.0524 207.061 34.8593 207.534 35.7578 207.696L42.667 208.932C54.7115 211.646 66.0001 208.623 70.9788 206.903C72.5029 206.38 73.2386 204.956 73.4702 203.406C73.8563 200.848 79.1988 180.224 88.949 166.594C90.1683 164.875 92.0379 163.689 94.1899 163.565C102.883 163.075 127.623 159.707 143.774 137.794C144.008 137.483 144.142 137.113 144.161 136.729C144.18 136.345 144.082 135.965 143.88 135.634Z" fill="white"/>
<path d="M52.7707 210.488C49.333 210.497 45.9055 210.125 42.5552 209.38L35.6683 208.148C34.6538 207.962 33.7439 207.426 33.1083 206.638C32.4726 205.85 32.1546 204.866 32.2136 203.868C32.62 196.713 33.502 189.355 34.2214 183.745L35.5179 173.956C35.5219 173.923 35.5301 173.89 35.5423 173.859L35.5585 173.814C35.5707 173.759 35.589 173.702 35.6073 173.647C35.6146 173.627 35.6207 173.607 35.6256 173.586C35.6215 173.415 35.6276 173.244 35.6439 173.074C35.6195 172.545 35.5585 172.01 35.4996 171.501C35.4468 171.034 35.3919 170.554 35.3655 170.08C35.3332 170.019 35.3159 169.952 35.3147 169.884C34.7355 156.136 37.5155 146.06 43.5794 139.93C45.4388 138.044 47.665 136.533 50.1299 135.483C52.5949 134.433 55.25 133.865 57.9425 133.812C58.0807 133.812 58.2027 133.812 58.3063 133.812C58.3774 133.812 58.4526 133.812 58.5319 133.812C58.6518 133.812 58.7127 133.812 58.7127 133.812C66.695 134.28 71.7001 134.656 81.4971 136.918L82.0661 137.052C101.701 141.773 120.091 138.474 135.253 127.535C135.912 127.058 136.905 126.891 137.907 127.086C138.85 127.269 139.612 127.737 139.998 128.373L144.296 135.388C144.545 135.797 144.665 136.267 144.643 136.74C144.621 137.214 144.458 137.672 144.172 138.057C128.092 159.86 103.881 163.476 94.2163 164.025C92.3284 164.135 90.5584 165.166 89.3391 166.856C79.4588 180.666 74.281 201.2 73.9396 203.47C73.6449 205.438 72.6491 206.815 71.1352 207.338C67.2213 208.691 60.5498 210.488 52.7707 210.488ZM36.4588 174.127L35.1683 183.865C34.451 189.458 33.5752 196.795 33.1667 203.931C33.1212 204.704 33.3676 205.466 33.8601 206.076C34.3525 206.686 35.0573 207.102 35.843 207.246L42.7523 208.481C54.4676 211.123 65.3619 208.355 70.8162 206.472C72.3057 205.961 72.8219 204.489 72.9926 203.344C73.338 201.049 78.5728 180.288 88.5527 166.335C89.9305 164.411 91.9728 163.232 94.1594 163.106C103.686 162.571 127.551 159.009 143.39 137.532C143.568 137.293 143.67 137.009 143.684 136.715C143.698 136.421 143.623 136.129 143.469 135.876L139.169 128.847C138.923 128.453 138.381 128.127 137.714 127.997C136.985 127.855 136.261 127.963 135.822 128.28C120.642 139.232 101.479 142.669 81.8324 137.955L81.2715 137.821C71.5498 135.579 66.5812 135.205 58.6314 134.739H58.4689C58.3998 134.739 58.349 134.739 58.29 134.739H57.9405C55.3768 134.79 52.8489 135.332 50.5024 136.333C48.1559 137.334 46.0372 138.774 44.2683 140.571C38.4116 146.487 35.7191 156.286 36.2637 169.687C36.2928 169.749 36.3087 169.816 36.3104 169.884C36.3307 170.379 36.3876 170.877 36.4486 171.404C36.5096 171.931 36.5746 172.51 36.5969 173.082C36.6 173.106 36.6 173.13 36.5969 173.153C36.5832 173.304 36.5778 173.456 36.5807 173.608C36.5795 173.723 36.5575 173.838 36.5157 173.946C36.5157 173.968 36.4994 173.989 36.4953 174.011C36.49 174.042 36.4826 174.073 36.473 174.103L36.4588 174.127Z" fill="black"/>
<path d="M340.985 338.162C340.985 338.162 351.959 334.845 369.909 301.107C385.07 272.629 371.555 245.107 368.827 226.698C368.549 224.817 365.893 224.546 365.237 226.334C360.691 238.702 353.379 261.195 354.562 275.043C356.271 294.999 340.985 338.162 340.985 338.162Z" fill="white"/>
<path d="M340.986 338.624C340.909 338.625 340.834 338.607 340.766 338.574C340.698 338.54 340.639 338.491 340.595 338.431C340.55 338.371 340.521 338.301 340.51 338.228C340.499 338.155 340.506 338.081 340.53 338.011C340.685 337.58 355.771 294.712 354.083 275.08C352.892 261.113 360.277 238.448 364.786 226.176C364.959 225.697 365.295 225.288 365.738 225.015C366.181 224.743 366.706 224.623 367.228 224.675C367.751 224.728 368.239 224.949 368.616 225.304C368.992 225.658 369.233 226.125 369.301 226.629C369.911 230.784 371.1 235.468 372.35 240.427C376.711 257.678 382.134 279.147 370.332 301.319C352.485 334.841 341.579 338.465 341.124 338.605C341.079 338.618 341.032 338.624 340.986 338.624ZM366.971 225.592C366.686 225.587 366.407 225.672 366.176 225.833C365.944 225.994 365.773 226.224 365.688 226.487C361.205 238.684 353.861 261.213 355.04 275.004C356.584 293.09 344.115 330.512 341.803 337.261C344.837 335.581 354.865 328.353 369.484 300.895C381.122 279.031 375.745 257.749 371.423 240.648C370.165 235.666 368.984 230.961 368.352 226.761C368.316 226.459 368.173 226.178 367.948 225.967C367.723 225.755 367.43 225.625 367.117 225.598C367.074 225.594 367.027 225.592 366.977 225.592H366.971Z" fill="black"/>
<path d="M352.875 319.715L356.781 289.813C358.477 276.842 356.286 263.673 350.467 251.875C346.275 243.372 343.949 234.121 343.634 224.705C343.319 215.289 345.023 205.912 348.638 197.165L354.912 181.994C355.704 180.078 353.178 178.52 351.748 180.042L342.934 189.438C322.95 210.722 316.201 240.854 325.255 268.348L341.487 317.6L352.875 319.715Z" fill="white"/>
<path d="M352.875 320.179C352.846 320.182 352.816 320.182 352.786 320.179L341.406 318.061C341.321 318.045 341.243 318.008 341.178 317.952C341.114 317.897 341.066 317.825 341.04 317.746L324.807 268.494C315.716 240.899 322.525 210.49 342.583 189.129L351.392 179.747C351.758 179.339 352.265 179.074 352.818 178.999C353.371 178.925 353.934 179.046 354.401 179.342C354.888 179.624 355.252 180.068 355.427 180.59C355.602 181.112 355.577 181.678 355.355 182.183L349.081 197.354C345.501 206.044 343.816 215.356 344.13 224.707C344.445 234.057 346.753 243.244 350.91 251.69C356.779 263.566 358.986 276.828 357.269 289.888L353.363 319.79C353.355 319.853 353.333 319.913 353.3 319.967C353.267 320.022 353.223 320.069 353.17 320.107C353.082 320.161 352.979 320.186 352.875 320.179ZM341.865 317.193L352.465 319.16L356.306 289.758C358.001 276.875 355.823 263.791 350.034 252.075C345.821 243.513 343.482 234.2 343.165 224.72C342.847 215.241 344.558 205.801 348.189 196.992L354.462 181.821C354.599 181.517 354.617 181.176 354.512 180.861C354.406 180.546 354.186 180.28 353.891 180.111C353.614 179.932 353.278 179.858 352.948 179.903C352.618 179.947 352.316 180.108 352.099 180.353L343.29 189.735C323.462 210.851 316.73 240.915 325.72 268.193L341.865 317.193Z" fill="black"/>
<path d="M347.84 320.695L334.293 287.195C332.407 282.505 329.446 278.291 325.633 274.869C321.821 271.447 317.256 268.907 312.283 267.44L303.045 264.733C300.81 264.076 299.296 266.944 301.151 268.341L306.829 272.615C309.874 274.915 312.35 277.843 314.078 281.186C315.805 284.53 316.741 288.204 316.815 291.942C316.909 296.396 318.22 300.747 320.613 304.552L329.794 319.127L347.84 320.695Z" fill="white"/>
<path d="M347.84 321.159H347.797L329.75 319.585C329.675 319.579 329.603 319.556 329.539 319.518C329.476 319.479 329.423 319.427 329.384 319.365L320.205 304.788C317.77 300.912 316.438 296.481 316.344 291.946C316.279 288.276 315.365 284.667 313.669 281.384C311.973 278.102 309.539 275.229 306.545 272.977L300.855 268.703C300.363 268.345 300.02 267.828 299.889 267.246C299.758 266.664 299.848 266.057 300.141 265.533C300.409 265.005 300.865 264.588 301.425 264.359C301.985 264.129 302.611 264.103 303.19 264.284L312.428 266.993C322.678 269.997 330.812 277.297 334.745 287.022L348.293 320.522C348.321 320.592 348.332 320.668 348.323 320.743C348.314 320.819 348.286 320.89 348.242 320.953C348.198 321.015 348.139 321.066 348.07 321.102C348.001 321.137 347.924 321.155 347.846 321.155L347.84 321.159ZM330.077 318.686L347.112 320.166L333.846 287.364C330.022 277.907 322.111 270.805 312.145 267.888L302.905 265.177C302.542 265.062 302.148 265.078 301.797 265.223C301.446 265.368 301.161 265.631 300.995 265.964C300.805 266.295 300.746 266.681 300.829 267.051C300.912 267.42 301.131 267.748 301.446 267.973L307.124 272.249C310.23 274.585 312.755 277.564 314.515 280.968C316.276 284.373 317.225 288.116 317.295 291.922C317.388 296.294 318.674 300.565 321.024 304.3L330.077 318.686Z" fill="black"/>
<path d="M345.836 305.419H345.789C345.727 305.413 345.666 305.396 345.61 305.367C345.554 305.339 345.505 305.3 345.465 305.253C345.424 305.206 345.394 305.152 345.376 305.094C345.357 305.035 345.351 304.974 345.356 304.913C347.423 283.516 342.985 269.741 339.069 257.587C337.258 251.971 335.549 246.667 334.535 240.964C329.743 214.05 346.076 190.697 346.242 190.465C346.278 190.415 346.324 190.372 346.376 190.339C346.429 190.306 346.488 190.283 346.55 190.272C346.612 190.261 346.675 190.262 346.736 190.274C346.798 190.287 346.856 190.311 346.908 190.346C346.96 190.38 347.004 190.424 347.038 190.475C347.072 190.526 347.096 190.583 347.107 190.643C347.119 190.703 347.118 190.765 347.105 190.824C347.092 190.884 347.067 190.94 347.031 190.99C346.868 191.22 330.758 214.274 335.478 240.807C336.484 246.449 338.183 251.725 339.983 257.31C343.926 269.548 348.394 283.417 346.312 305C346.3 305.115 346.245 305.221 346.157 305.298C346.069 305.376 345.955 305.419 345.836 305.419Z" fill="black"/>
<path d="M363.881 291.115H363.8C363.675 291.094 363.564 291.026 363.49 290.926C363.417 290.826 363.387 290.701 363.408 290.58C367.1 269.45 365.822 236.923 365.808 236.599C365.805 236.538 365.815 236.477 365.837 236.42C365.858 236.363 365.891 236.31 365.934 236.265C365.977 236.221 366.028 236.184 366.085 236.159C366.142 236.133 366.204 236.119 366.267 236.117C366.394 236.114 366.516 236.158 366.609 236.241C366.702 236.324 366.758 236.439 366.765 236.561C366.779 236.888 368.062 269.511 364.353 290.736C364.333 290.842 364.275 290.939 364.188 291.008C364.102 291.078 363.994 291.116 363.881 291.115Z" fill="black"/>
<path d="M331.532 308.62C331.405 308.62 331.284 308.572 331.194 308.486C331.104 308.399 331.053 308.282 331.052 308.16C330.79 281.852 309.066 270.275 308.847 270.161C308.787 270.134 308.734 270.096 308.691 270.049C308.647 270.002 308.614 269.946 308.593 269.886C308.572 269.826 308.564 269.763 308.57 269.699C308.575 269.636 308.594 269.575 308.625 269.519C308.656 269.463 308.699 269.414 308.75 269.375C308.801 269.336 308.86 269.307 308.924 269.29C308.987 269.274 309.053 269.27 309.118 269.28C309.182 269.289 309.244 269.311 309.3 269.344C309.524 269.46 331.743 281.279 332.011 308.152C332.012 308.275 331.962 308.393 331.873 308.481C331.784 308.569 331.663 308.619 331.536 308.62H331.532Z" fill="black"/>
<path d="M334.482 259.374C334.41 259.374 334.338 259.358 334.272 259.327C334.206 259.296 334.149 259.251 334.104 259.195C328.23 251.888 325.622 242.011 325.596 241.913C325.565 241.793 325.584 241.667 325.65 241.561C325.715 241.455 325.821 241.379 325.944 241.349C326.068 241.319 326.199 241.338 326.308 241.401C326.417 241.464 326.496 241.567 326.527 241.686C326.551 241.783 329.112 251.475 334.858 258.626C334.914 258.695 334.948 258.777 334.958 258.863C334.967 258.95 334.951 259.037 334.912 259.115C334.872 259.193 334.811 259.259 334.734 259.304C334.658 259.35 334.57 259.374 334.48 259.374H334.482Z" fill="black"/>
<path d="M318.965 312.588H370.297V335.963C370.298 339.07 369.667 342.146 368.439 345.017C367.212 347.887 365.412 350.495 363.143 352.693C360.874 354.89 358.18 356.632 355.215 357.821C352.25 359.01 349.072 359.621 345.862 359.621H343.391C340.183 359.621 337.006 359.009 334.042 357.821C331.078 356.632 328.385 354.89 326.116 352.694C323.848 350.498 322.048 347.891 320.821 345.021C319.593 342.152 318.961 339.076 318.961 335.971V312.588H318.965Z" fill="black"/>
<path d="M365.263 321.362H323.997C323.869 321.362 323.747 321.313 323.657 321.226C323.567 321.139 323.517 321.021 323.517 320.898C323.517 320.774 323.567 320.656 323.657 320.569C323.747 320.482 323.869 320.433 323.997 320.433H365.263C365.39 320.433 365.512 320.482 365.602 320.569C365.692 320.656 365.743 320.774 365.743 320.898C365.743 321.021 365.692 321.139 365.602 321.226C365.512 321.313 365.39 321.362 365.263 321.362Z" fill="white"/>
<path d="M364.654 54.2507C364.572 54.25 364.491 54.229 364.42 54.1898C364.349 54.1505 364.29 54.0943 364.247 54.0264C348.947 29.4358 329.563 16.2926 315.994 9.60789C301.302 2.37038 290.113 0.930354 290.001 0.916583C289.877 0.898059 289.765 0.833502 289.689 0.736571C289.613 0.63964 289.579 0.517942 289.594 0.397229C289.613 0.27682 289.68 0.16825 289.78 0.0947271C289.88 0.0212043 290.006 -0.0114375 290.131 0.00377926C290.245 0.01755 301.6 1.47922 316.435 8.78952C330.115 15.5293 349.656 28.7669 365.074 53.5543C365.118 53.6244 365.142 53.7045 365.143 53.7864C365.145 53.8684 365.124 53.9492 365.082 54.0207C365.041 54.0923 364.981 54.1519 364.908 54.1937C364.835 54.2355 364.753 54.2579 364.668 54.2586L364.654 54.2507Z" fill="black"/>
<path d="M353.278 53.9594C353.201 53.9596 353.125 53.9418 353.057 53.9075C352.988 53.8733 352.93 53.8236 352.885 53.7626C332.389 25.8277 317.12 22.0073 316.973 21.9719C316.857 21.937 316.759 21.8606 316.698 21.7581C316.638 21.6555 316.62 21.5346 316.649 21.4199C316.677 21.3052 316.75 21.2053 316.851 21.1405C316.953 21.0757 317.077 21.0508 317.197 21.0709C317.829 21.2165 332.922 24.9621 353.668 53.2256C353.719 53.2948 353.75 53.3764 353.756 53.4614C353.762 53.5464 353.744 53.6314 353.704 53.7071C353.664 53.7828 353.602 53.8463 353.527 53.8905C353.452 53.9346 353.366 53.9578 353.278 53.9574V53.9594Z" fill="black"/>
<path d="M304.827 17.4023C304.741 17.4025 304.656 17.3801 304.581 17.3374C304.507 17.2948 304.445 17.2336 304.404 17.1601C304.362 17.0866 304.342 17.0036 304.345 16.9199C304.348 16.8361 304.374 16.7547 304.421 16.6842L306.205 14.0383C306.275 13.9339 306.384 13.8606 306.509 13.8344C306.635 13.8082 306.766 13.8313 306.874 13.8986C306.981 13.9659 307.057 14.0719 307.084 14.1933C307.111 14.3147 307.087 14.4415 307.018 14.5458L305.219 17.1918C305.177 17.2551 305.119 17.3074 305.05 17.3441C304.982 17.3808 304.905 17.4008 304.827 17.4023Z" fill="black"/>
<path d="M298.583 26.66C298.49 26.6601 298.4 26.6341 298.323 26.5852C298.216 26.518 298.142 26.4128 298.116 26.2926C298.089 26.1724 298.113 26.047 298.182 25.9439L299.967 23.2979C300 23.2449 300.044 23.199 300.096 23.1628C300.148 23.1266 300.208 23.1009 300.27 23.0873C300.333 23.0736 300.398 23.0723 300.461 23.0833C300.524 23.0943 300.584 23.1175 300.638 23.1515C300.692 23.1855 300.738 23.2295 300.774 23.2811C300.809 23.3326 300.834 23.3906 300.846 23.4516C300.859 23.5126 300.858 23.5753 300.845 23.6361C300.832 23.6969 300.806 23.7545 300.769 23.8055L298.985 26.4495C298.942 26.5145 298.882 26.5678 298.812 26.6046C298.741 26.6414 298.663 26.6604 298.583 26.66Z" fill="black"/>
<path d="M299.263 18.5333C299.169 18.5333 299.076 18.5059 298.997 18.4546L296.331 16.7136C296.225 16.6449 296.152 16.5385 296.128 16.4177C296.103 16.2969 296.129 16.1715 296.2 16.0693C296.271 15.967 296.381 15.8962 296.506 15.8724C296.63 15.8486 296.76 15.8738 296.866 15.9424L299.53 17.6854C299.614 17.7412 299.678 17.8217 299.712 17.9152C299.746 18.0087 299.748 18.1102 299.718 18.2049C299.688 18.2997 299.628 18.3827 299.545 18.4417C299.463 18.5008 299.364 18.5329 299.261 18.5333H299.263Z" fill="black"/>
<path d="M308.595 24.622C308.5 24.622 308.407 24.5946 308.329 24.5433L305.663 22.8121C305.606 22.7799 305.558 22.7369 305.519 22.6858C305.481 22.6347 305.453 22.5765 305.439 22.5149C305.425 22.4532 305.423 22.3893 305.435 22.3272C305.448 22.2651 305.472 22.206 305.509 22.1535C305.545 22.1011 305.593 22.0564 305.647 22.0222C305.702 21.988 305.764 21.965 305.828 21.9546C305.893 21.9443 305.959 21.9468 306.022 21.9619C306.085 21.9771 306.145 22.0047 306.197 22.0429L308.863 23.782C308.948 23.8378 309.012 23.9183 309.046 24.0118C309.079 24.1053 309.082 24.2068 309.052 24.3015C309.022 24.3963 308.961 24.4792 308.879 24.5383C308.797 24.5974 308.697 24.6295 308.595 24.6298V24.622Z" fill="black"/>
<path d="M41.8928 104.966C41.8154 104.967 41.7391 104.95 41.6703 104.915C41.6015 104.881 41.5425 104.831 41.4982 104.769C41.454 104.708 41.4259 104.637 41.4164 104.563C41.4069 104.488 41.4163 104.413 41.4437 104.343C46.5078 91.1228 57.7333 66.5952 76.0226 50.8336C76.0687 50.7884 76.1239 50.753 76.1847 50.7293C76.2456 50.7056 76.3108 50.6943 76.3763 50.696C76.4419 50.6977 76.5063 50.7123 76.5658 50.7391C76.6252 50.7659 76.6784 50.8041 76.722 50.8516C76.7655 50.899 76.7986 50.9546 76.8191 51.0149C76.8396 51.0751 76.8471 51.1389 76.8412 51.2021C76.8352 51.2653 76.816 51.3266 76.7846 51.3824C76.7532 51.4381 76.7104 51.487 76.6587 51.526C58.5178 67.1558 47.3755 91.5261 42.3419 104.665C42.3078 104.754 42.2465 104.83 42.1662 104.884C42.0859 104.938 41.9905 104.967 41.8928 104.966Z" fill="black"/>
<path d="M29.1796 120.73C29.1406 120.73 29.1016 120.726 29.0638 120.716C29.0027 120.701 28.9453 120.675 28.8947 120.639C28.8442 120.603 28.8015 120.557 28.7692 120.505C28.7369 120.452 28.7156 120.394 28.7065 120.334C28.6975 120.274 28.7008 120.212 28.7163 120.153C35.8471 92.6493 48.3772 76.7638 48.5032 76.6064C48.5401 76.5543 48.5876 76.51 48.6428 76.4763C48.698 76.4426 48.7597 76.4201 48.8242 76.4103C48.8887 76.4005 48.9545 76.4035 49.0178 76.4192C49.081 76.4348 49.1402 76.4628 49.1919 76.5015C49.2435 76.5401 49.2865 76.5885 49.3182 76.6437C49.3498 76.699 49.3695 76.7599 49.376 76.8228C49.3825 76.8856 49.3757 76.9491 49.3559 77.0093C49.3362 77.0695 49.304 77.1252 49.2612 77.173C49.1373 77.3284 36.7229 93.0821 29.645 120.38C29.6187 120.48 29.5587 120.569 29.4744 120.632C29.3901 120.696 29.2864 120.73 29.1796 120.73Z" fill="black"/>
<path d="M86.5898 49.303C85.5231 49.3035 84.4958 48.9126 83.715 48.2091C82.9342 47.5056 82.4578 46.5418 82.3818 45.5118C82.3058 44.4818 82.6358 43.4622 83.3054 42.6584C83.975 41.8546 84.9345 41.3264 85.9904 41.1801C87.0463 41.0338 88.1203 41.2804 88.9959 41.8701C89.8715 42.4598 90.4837 43.3489 90.7092 44.3582C90.9346 45.3675 90.7566 46.422 90.2109 47.3092C89.6652 48.1965 88.7924 48.8506 87.7684 49.1397C87.3857 49.2487 86.9887 49.3037 86.5898 49.303ZM86.5898 42.0675C86.2795 42.0671 85.9708 42.1101 85.6733 42.1953C84.8888 42.4193 84.2211 42.9225 83.8044 43.6038C83.3878 44.285 83.2531 45.0938 83.4275 45.8673C83.602 46.6408 84.0726 47.3217 84.7446 47.7729C85.4167 48.2241 86.2403 48.4121 87.0498 48.2992C87.8592 48.1862 88.5945 47.7807 89.1076 47.1641C89.6207 46.5476 89.8735 45.7658 89.8152 44.9761C89.7569 44.1864 89.3918 43.4474 88.7934 42.9077C88.195 42.368 87.4076 42.0678 86.5898 42.0675Z" fill="black"/>
<path d="M30.7892 134.023C30.6899 134.023 30.5931 133.993 30.5128 133.936L28.8485 132.797C28.793 132.764 28.7452 132.719 28.708 132.667C28.6708 132.615 28.645 132.556 28.6322 132.494C28.6193 132.432 28.6198 132.368 28.6334 132.306C28.6471 132.244 28.6737 132.186 28.7116 132.134C28.7495 132.083 28.7979 132.039 28.8538 132.006C28.9097 131.973 28.972 131.952 29.0368 131.943C29.1015 131.935 29.1675 131.939 29.2305 131.956C29.2935 131.973 29.3523 132.002 29.4032 132.042L31.0594 133.181C31.1421 133.238 31.2038 133.319 31.2358 133.412C31.2677 133.506 31.2683 133.606 31.2373 133.7C31.2064 133.794 31.1455 133.875 31.0635 133.933C30.9815 133.991 30.8826 134.023 30.781 134.023H30.7892Z" fill="black"/>
<path d="M24.9875 130.027C24.8876 130.028 24.7901 129.997 24.7091 129.941L23.0529 128.802C22.9993 128.767 22.9534 128.723 22.9179 128.671C22.8825 128.619 22.8582 128.56 22.8465 128.499C22.8348 128.438 22.836 128.375 22.85 128.314C22.8639 128.253 22.8904 128.196 22.9278 128.145C22.9651 128.094 23.0127 128.052 23.0675 128.019C23.1224 127.986 23.1834 127.965 23.247 127.956C23.3107 127.946 23.3756 127.95 23.4379 127.965C23.5002 127.981 23.5586 128.008 23.6097 128.046L25.2638 129.185C25.3154 129.22 25.3593 129.265 25.393 129.317C25.4267 129.368 25.4495 129.426 25.46 129.486C25.4706 129.546 25.4688 129.608 25.4546 129.667C25.4405 129.727 25.4143 129.783 25.3776 129.832C25.3331 129.892 25.2745 129.941 25.2067 129.975C25.1389 130.009 25.0638 130.027 24.9875 130.027Z" fill="black"/>
<path d="M28.5415 129.506C28.4398 129.506 28.3408 129.474 28.2591 129.415C28.2082 129.379 28.1652 129.334 28.1324 129.282C28.0997 129.23 28.0779 129.172 28.0682 129.111C28.0586 129.051 28.0614 128.99 28.0763 128.93C28.0913 128.871 28.1182 128.815 28.1554 128.766L29.3402 127.204C29.376 127.152 29.4224 127.107 29.4767 127.072C29.531 127.038 29.592 127.014 29.6559 127.003C29.7199 126.992 29.7855 126.994 29.8488 127.008C29.9121 127.022 29.9717 127.049 30.0241 127.086C30.0765 127.123 30.1205 127.17 30.1535 127.224C30.1865 127.279 30.2077 127.339 30.216 127.401C30.2242 127.463 30.2193 127.527 30.2015 127.587C30.1837 127.648 30.1534 127.704 30.1124 127.753L28.9297 129.315C28.8849 129.374 28.8264 129.422 28.759 129.455C28.6916 129.488 28.6171 129.505 28.5415 129.506Z" fill="black"/>
<path d="M24.4001 134.975C24.3117 134.974 24.2251 134.951 24.1499 134.906C24.0746 134.861 24.0137 134.797 23.9737 134.72C23.9338 134.644 23.9164 134.558 23.9235 134.473C23.9306 134.388 23.9619 134.306 24.0139 134.237L25.1967 132.673C25.2718 132.574 25.3847 132.507 25.5105 132.488C25.6363 132.47 25.7646 132.5 25.8673 132.573C25.9699 132.645 26.0385 132.755 26.058 132.876C26.0774 132.998 26.0461 133.122 25.9709 133.222L24.7862 134.796C24.7407 134.853 24.6822 134.899 24.6151 134.93C24.548 134.961 24.4744 134.976 24.4001 134.975Z" fill="black"/>
<path d="M366.95 115.741C366.132 115.74 365.339 115.472 364.698 114.981C364.056 114.49 363.604 113.805 363.415 113.035C363.225 112.265 363.309 111.455 363.652 110.737C363.996 110.019 364.579 109.433 365.308 109.075C366.038 108.717 366.87 108.607 367.672 108.763C368.474 108.919 369.198 109.332 369.727 109.935C370.257 110.538 370.562 111.296 370.592 112.087C370.622 112.878 370.377 113.656 369.895 114.295C369.557 114.745 369.114 115.11 368.602 115.362C368.09 115.613 367.524 115.743 366.95 115.741ZM366.95 109.621C366.311 109.619 365.693 109.838 365.206 110.239C364.719 110.639 364.396 111.194 364.295 111.805C364.193 112.415 364.32 113.041 364.652 113.569C364.984 114.097 365.501 114.493 366.107 114.685C366.714 114.878 367.372 114.854 367.963 114.619C368.554 114.384 369.039 113.952 369.33 113.402C369.621 112.852 369.7 112.219 369.553 111.618C369.405 111.016 369.041 110.485 368.525 110.12C368.071 109.798 367.523 109.623 366.96 109.621H366.95Z" fill="black"/>
</svg>
