<svg width="470" height="116" viewBox="0 0 470 116" fill="none" xmlns="http://www.w3.org/2000/svg">
<path d="M164.599 0.467663C161.578 1.00723 159.017 2.38613 157.097 4.46447C154.456 7.36215 153.476 11.319 154.456 15.1759C155.616 19.6923 158.617 22.53 165.319 25.4077C172.922 28.6851 175.282 30.8234 175.282 34.4405C175.282 36.279 174.642 37.6179 173.242 38.7371C169.861 41.3949 164.179 40.5756 158.977 36.6987C156.897 35.1399 156.377 35.2998 154.756 38.0376C153.396 40.2958 153.416 40.3757 155.316 41.8945C159.097 44.9121 165.319 46.7107 170.121 46.1311C177.243 45.2918 182.084 40.8354 182.444 34.7802C182.624 31.303 181.664 28.5652 179.363 26.1471C177.203 23.849 174.502 22.2103 168.98 19.8522C164.479 17.9337 162.358 16.4349 161.318 14.4565C160.878 13.5972 160.778 13.1775 160.778 11.8386C160.778 10.4597 160.858 10.1199 161.318 9.32058C162.558 7.22226 164.219 6.34297 167.22 6.18309C169.781 6.06319 171.161 6.44289 174.722 8.28141C177.123 9.52042 177.283 9.58038 177.863 9.34057C178.583 9.06079 180.684 5.94328 180.684 5.18389C180.684 4.18469 178.323 2.62594 174.962 1.4269C171.481 0.187889 167.98 -0.131855 164.599 0.467663Z" fill="black"/>
<path d="M220.596 0.347771C215.514 1.14713 210.913 3.52523 207.392 7.16232C202.991 11.7187 200.89 16.9745 200.89 23.3694C200.89 32.0424 205.671 39.8362 213.334 43.7331C221.956 48.0896 232.479 46.6507 239.501 40.1559C249.104 31.283 249.384 16.1951 240.122 6.92251C236.901 3.72507 233.28 1.72667 228.898 0.727467C226.918 0.267834 222.416 0.0679932 220.596 0.347771Z" fill="black"/>
<path d="M269.13 0.667427C268.71 1.207 268.71 1.24696 268.71 22.9296C268.71 44.0327 268.73 44.6722 269.09 45.1319C269.45 45.5915 269.59 45.6115 271.971 45.6115C274.152 45.6115 274.532 45.5715 274.892 45.2318C275.312 44.8521 275.312 44.8121 275.352 29.1247L275.412 13.3773L289.276 29.8441L303.141 46.3109H304.101C304.761 46.3109 305.221 46.191 305.541 45.9312L306.021 45.5515V23.5291V1.50676L305.541 1.12706C305.141 0.807316 304.741 0.747364 302.72 0.747364C300.7 0.747364 300.3 0.807316 299.9 1.12706L299.419 1.50676L299.359 16.8145L299.319 32.1223L285.475 16.1351L271.631 0.147842H270.591C269.69 0.147842 269.47 0.227779 269.13 0.667427Z" fill="black"/>
<path d="M331.529 0.547596C331.129 0.947277 331.129 1.20707 331.129 22.8098C331.129 44.0328 331.149 44.6723 331.509 45.1319C331.869 45.5916 332.009 45.6115 334.43 45.6115C336.851 45.6115 336.991 45.5916 337.351 45.1319C337.711 44.6923 337.731 44.1327 337.731 28.9848V13.3174L350.555 28.5652C357.617 36.9585 363.899 44.3925 364.499 45.092L365.619 46.351L366.66 46.271C368.52 46.1111 368.34 48.4693 368.34 23.6091C368.34 1.80659 368.34 1.54679 367.94 1.14712C367.58 0.787403 367.28 0.747437 365.159 0.747437C363.119 0.747437 362.718 0.807388 362.318 1.12713L361.838 1.50683L361.738 16.7946L361.638 32.0824L347.834 16.1151L334.03 0.147915H332.99C332.189 0.147915 331.829 0.247837 331.529 0.547596Z" fill="black"/>
<path d="M0.809917 1.10717L0.329773 1.50685V23.2095C0.329773 43.773 0.349779 44.9121 0.689881 45.2519C0.989971 45.5516 1.4101 45.6116 3.65077 45.6116C6.15152 45.6116 6.29156 45.5916 6.65167 45.132C7.01178 44.6923 7.03178 44.2527 7.03178 37.0184V29.3646L13.0936 29.2846C18.7553 29.2047 19.2154 29.1647 20.4358 28.7451C24.377 27.3662 27.2979 24.8082 29.0384 21.2311C30.0587 19.1328 30.4788 17.2942 30.4788 14.9161C30.4788 8.62116 26.3176 3.22548 19.9957 1.30701C18.6153 0.887348 18.1151 0.867363 9.91265 0.78743C1.57014 0.727474 1.29006 0.727474 0.809917 1.10717ZM18.2551 7.66193C20.4158 8.30142 22.2363 9.86017 23.2166 11.9185C23.6768 12.8977 23.7368 13.2974 23.7368 15.036C23.7368 16.7746 23.6568 17.1743 23.1966 18.1935C22.4964 19.6923 20.9359 21.311 19.3755 22.1503L18.1351 22.8298L12.5934 22.8897L7.03178 22.9497V15.1559V7.34219H12.0933C16.1345 7.34219 17.3749 7.40214 18.2551 7.66193Z" fill="black"/>
<path d="M51.5251 1.24706L51.045 1.72668L51.085 23.3094C51.145 43.7331 51.165 44.9121 51.5051 45.2519C51.8452 45.5916 52.6655 45.6116 65.1692 45.6116H78.4932L78.8733 45.132C79.1934 44.7523 79.2534 44.3326 79.2534 42.574C79.2534 40.6356 79.2134 40.4557 78.7533 40.016L78.2731 39.5164H68.0501H57.847V32.7219V25.9273H66.5096C74.0119 25.9273 75.2122 25.8874 75.6123 25.6076C76.0325 25.3278 76.0525 25.1479 76.0525 22.9497C76.0525 20.8114 76.0125 20.5516 75.6324 20.2119C75.2322 19.8522 74.7321 19.8322 66.5296 19.7722L57.847 19.7123V13.3374V6.94251H68.0501H78.2731L78.7533 6.44291C79.2134 5.98328 79.2534 5.8234 79.2534 3.84499C79.2534 1.86657 79.2134 1.7067 78.7533 1.24706L78.2731 0.747463H65.1492H52.0253L51.5251 1.24706Z" fill="black"/>
<path d="M102.1 1.06712L101.66 1.36688V23.1295C101.66 47.1902 101.56 45.3517 102.961 45.6315C103.321 45.6914 104.481 45.7114 105.521 45.6714C108.522 45.5715 108.262 46.4308 108.262 36.4788V28.1255H113.064H117.865L122.166 36.7186C125.707 43.7929 126.568 45.3517 126.988 45.5116C127.668 45.7714 132.109 45.7714 132.809 45.4916C133.45 45.2518 133.67 44.972 133.67 44.3725C133.67 44.1127 131.889 40.6155 129.689 36.5787C127.508 32.522 125.527 28.8449 125.287 28.3853L124.867 27.526L125.907 27.0064C127.688 26.1071 129.108 25.0479 130.509 23.5491C132.109 21.8505 132.889 20.5915 133.61 18.4332C134.07 17.0543 134.15 16.5148 134.13 14.4364C134.13 12.3981 134.05 11.7985 133.61 10.4396C131.989 5.52356 127.848 1.94642 122.686 1.02715C121.566 0.827312 118.765 0.767361 111.863 0.747375C103.741 0.747375 102.5 0.787346 102.1 1.06712ZM122.907 7.78175C124.507 8.52116 125.947 9.92004 126.728 11.5188C127.308 12.7178 127.368 12.9976 127.368 14.7362C127.368 16.4948 127.308 16.7546 126.708 17.9736C125.867 19.6722 124.607 20.9312 122.907 21.7706L121.566 22.43L115.024 22.49L108.462 22.5499V14.8361V7.12228L115.124 7.18223L121.766 7.24218L122.907 7.78175Z" fill="black"/>
<path d="M394.348 0.887302C393.528 1.18707 393.548 0.747414 393.548 23.2294V44.8521L393.968 45.2318C394.368 45.5915 394.928 45.6115 407.312 45.6715C420.916 45.7314 421.256 45.7114 421.476 44.8321C421.516 44.6123 421.556 43.4333 421.516 42.2142C421.456 40.1159 421.436 40.016 420.956 39.7762C420.576 39.5763 418.075 39.5164 410.313 39.5164H400.15V32.7218V25.9273H408.932H417.735L418.155 25.3877C418.555 24.8881 418.575 24.6283 418.515 22.6899C418.475 20.9513 418.395 20.4716 418.095 20.1919C417.775 19.8521 417.075 19.8321 408.952 19.7722L400.15 19.7122V13.3373V6.94246H410.413C419.375 6.94246 420.716 6.90249 421.116 6.62271C421.536 6.34294 421.556 6.18307 421.556 3.84494C421.556 1.50681 421.536 1.34694 421.116 1.06716C420.716 0.787384 419.115 0.747417 407.652 0.767399C400.51 0.767399 394.508 0.827351 394.348 0.887302Z" fill="black"/>
<path d="M444.463 1.24706L443.963 1.72668V23.1895C443.963 44.0328 443.983 44.6723 444.343 45.132L444.723 45.6116H456.647C467.81 45.6116 468.57 45.5916 468.91 45.2519C469.21 44.9521 469.27 44.5324 469.27 42.594C469.27 39.2167 470.231 39.5164 459.547 39.5164H450.765V20.6316V1.72668L450.265 1.24706C449.805 0.767448 449.664 0.747463 447.364 0.747463C445.063 0.747463 444.923 0.767448 444.463 1.24706Z" fill="black"/>
<path d="M8.45222 80.8833C5.33128 81.5428 3.13062 82.8817 1.81022 84.9201C0.689888 86.6787 0.349786 87.9576 0.469822 90.1159C0.7299 94.3325 3.15063 96.6507 9.83263 98.9688C13.0536 100.088 16.2145 101.687 17.3149 102.766C19.7356 105.104 19.8556 108.481 17.635 110.919C14.294 114.576 7.97207 114.536 3.21064 110.839C2.61046 110.38 2.03029 109.92 1.91025 109.82C1.55015 109.56 0.42981 110.6 0.42981 111.179C0.42981 112.138 4.53104 114.616 7.33188 115.336C12.9336 116.775 18.7553 114.596 20.8759 110.3C21.4961 109.041 21.5361 108.841 21.5361 106.863C21.5361 104.884 21.4961 104.664 20.8759 103.425C19.5756 100.787 16.5747 98.8289 10.933 96.8705C6.25156 95.2518 4.33098 94.0128 3.31067 91.9544C2.19034 89.6363 2.75051 86.6986 4.67108 84.98C7.47192 82.442 12.0933 82.2022 16.5546 84.3805C17.575 84.8801 18.4952 85.2798 18.6153 85.2798C18.9354 85.2798 19.6356 84.2606 19.6356 83.761C19.6356 83.3613 19.3355 83.1415 17.795 82.4021C16.7747 81.9025 15.3943 81.3629 14.7341 81.1831C13.2737 80.8034 9.67258 80.6235 8.45222 80.8833Z" fill="black"/>
<path d="M306.722 80.8034C302.28 81.6027 299.099 83.2014 296.319 86.0791C288.316 94.2926 290.297 108.002 300.32 113.617C303.241 115.256 307.502 116.095 310.823 115.695C319.726 114.596 326.067 107.862 326.468 99.0687C326.848 90.5955 321.466 83.4213 313.024 81.183C311.863 80.8633 307.722 80.6235 306.722 80.8034ZM311.043 83.1015C318.965 84.2006 324.827 91.3749 324.247 99.2686C323.967 103.265 322.346 106.703 319.446 109.4C312.683 115.735 301.78 114.676 296.399 107.142C290.597 99.0088 294.138 87.478 303.541 83.9408C306.142 82.9616 308.322 82.7218 311.043 83.1015Z" fill="black"/>
<path d="M72.0113 81.3029C71.6712 81.4828 71.6512 82.2621 71.6512 93.1334C71.6512 106.243 71.6712 106.403 73.0716 109.241C74.592 112.318 77.3129 114.456 80.8539 115.396C82.5944 115.855 86.1155 115.855 87.856 115.396C92.3574 114.217 95.5983 110.979 96.7787 106.463C97.0788 105.324 97.1388 103.745 97.1988 93.693C97.2388 87.378 97.2388 82.0023 97.1788 81.7625C97.0388 81.223 96.1585 80.9832 95.3983 81.2629L94.8581 81.4828V92.5139C94.8381 104.764 94.7581 105.743 93.6377 108.042C92.3774 110.599 89.7166 112.658 86.8957 113.237C82.0543 114.237 77.3729 112.258 75.3123 108.361C74.0519 105.963 74.0519 105.883 74.0519 93.2134V81.7026L73.6117 81.4028C73.0916 81.0431 72.5114 81.0031 72.0113 81.3029Z" fill="black"/>
<path d="M150.415 81.3229C150.095 81.5628 150.075 82.542 150.115 98.3693L150.175 115.156L151.075 115.216C152.495 115.316 152.475 115.376 152.475 108.921V103.265H157.237C162.558 103.265 163.859 103.086 166.019 102.046C166.96 101.607 167.82 100.967 168.8 99.988C171.061 97.7298 172.141 95.1519 172.141 92.0743C172.121 87.2982 169 83.1815 164.279 81.6427C163.099 81.263 162.378 81.223 156.877 81.1431C151.975 81.0632 150.715 81.1031 150.415 81.3229ZM162.238 83.6811C167.04 84.3605 170.461 88.8569 169.701 93.4133C169.2 96.3309 167.28 98.8289 164.539 100.128L163.179 100.767L157.837 100.827L152.475 100.887V92.1942V83.4812H156.737C159.057 83.4812 161.538 83.5811 162.238 83.6811Z" fill="black"/>
<path d="M222.236 81.3229C221.916 81.5627 221.896 82.542 221.936 98.3693L221.996 115.156L222.977 115.216C223.617 115.256 224.017 115.196 224.117 115.016C224.217 114.876 224.297 112.178 224.297 109.001V103.265H229.058C234.46 103.265 235.8 103.066 238.021 101.966C239.902 101.047 241.862 99.1087 242.782 97.2502C244.963 92.8937 244.303 88.1175 241.022 84.7202C239.582 83.2214 238.101 82.2822 236.201 81.6827C234.92 81.263 234.32 81.223 228.698 81.1431C223.797 81.0631 222.536 81.1031 222.236 81.3229ZM235.8 84.0408C240.702 85.8393 243.023 91.0951 240.922 95.6115C239.762 98.0695 238.061 99.6083 235.54 100.448C234.42 100.827 233.84 100.867 229.298 100.867H224.297V92.1543V83.4412L229.459 83.5212C234.14 83.6011 234.7 83.6411 235.8 84.0408Z" fill="black"/>
<path d="M377.683 81.323C377.363 81.5628 377.343 82.542 377.383 98.3694L377.443 115.156L378.303 115.216C379.804 115.316 379.744 115.556 379.744 108.541V102.286L385.065 102.226L390.367 102.166L394.008 108.701L397.629 115.256H398.809C399.63 115.256 399.99 115.176 400.07 114.956C400.13 114.796 398.669 111.978 396.649 108.421C394.708 104.984 393.108 102.106 393.088 102.006C393.068 101.927 393.548 101.647 394.148 101.407C398.289 99.7083 400.93 95.8514 400.95 91.5748C400.95 87.0384 397.669 82.8818 393.048 81.5828C391.407 81.1232 378.243 80.8834 377.683 81.323ZM391.567 83.6811C395.328 84.4005 398.189 87.4181 398.489 91.0153C398.829 95.1719 395.968 98.9489 391.787 99.8482C391.147 99.9881 388.546 100.068 385.245 100.068H379.744V91.7746V83.4813H385.125C388.066 83.4813 390.967 83.5812 391.567 83.6811Z" fill="black"/>
<path d="M447.524 81.223C447.104 81.3229 446.864 82.0823 447.044 82.7817L447.164 83.2813H452.065H456.967L457.007 99.2086L457.067 115.156L457.927 115.216C458.407 115.256 458.927 115.176 459.087 115.036C459.327 114.836 459.367 112.458 459.367 99.0487V83.2813H464.269H469.17L469.29 82.7817C469.47 82.0223 469.23 81.3429 468.73 81.203C468.21 81.0631 448.044 81.0831 447.524 81.223Z" fill="black"/>
</svg>
