<svg width="722" height="100" viewBox="0 0 722 100" fill="none" xmlns="http://www.w3.org/2000/svg">
<path d="M11.6 3.33337C7.19998 5.33337 5.33331 7.20004 3.19998 11.8667C0.799977 17.4667 0.666643 20.4 0.93331 58.2667L1.33331 98.6667L38.4 99.0667C78.4 99.4667 83.2 98.8 90.1333 93.0667C98.8 85.7334 99.3333 83.0667 99.3333 39.6V0.666702H58.4C20.5333 0.666702 16.9333 0.933372 11.6 3.33337ZM42.6666 12.9334C42.4 13.8667 38.8 30.8 34.5333 50.6667C27.4666 84.4 25.8666 90.2667 24 88.4C22.9333 87.3334 38.1333 15.2 39.7333 12.9334C40.4 12.1334 41.4666 11.3334 42.1333 11.3334C42.8 11.3334 43.0666 12.1334 42.6666 12.9334ZM56.2666 16C63.0666 21.8667 65.2 26.9334 64.2666 35.0667C63.3333 43.0667 55.8666 76.5334 54.8 77.6C52.9333 79.6 53.0666 76.5334 55.3333 65.3334C58.6666 50 58.5333 49.6 54.9333 53.2C51.0666 57.0667 39.7333 63.7334 38.1333 63.0667C37.3333 62.9334 38.6666 59.6 40.9333 56C47.8666 44.8 50.4 36 49.6 25.3334C49.2 20.1334 48.5333 14.9334 48 13.6C46.4 9.8667 50.4 10.9334 56.2666 16ZM73.8667 41.3334C76 43.2 78.2666 45.8667 78.6666 47.2C79.6 50.4 77.3333 56.5334 73.6 60.4C70.6666 63.6 60.8 69.3334 60 68.4C59.7333 68.1334 61.2 65.3334 63.3333 62.1334C68.1333 55.2 69.4666 48.5334 67.6 42.5334C65.8666 36.8 68 36.5334 73.8667 41.3334Z" fill="black"/>
<path d="M276 6.8C275.333 6.93333 271.867 7.46667 268.4 8.00001C261.333 8.93333 260.267 10.6667 265.333 12.6667L268.667 14V47.8667V81.7333L265.333 82.5333C258.267 84.4 262.4 86 274 86C285.6 86 289.733 84.4 282.667 82.5333L279.333 81.7333V44.6667C279.333 24.1333 278.933 7.2 278.4 6.93333C277.733 6.66667 276.8 6.53334 276 6.8Z" fill="black"/>
<path d="M439.733 8.26675C435.6 9.06674 435.867 10.2667 440.667 12.9334C444.533 15.0667 444.667 15.6001 444.667 24.6667V34.0001H436.667C422 34.0001 412.667 40.2667 409.067 52.5334C405.733 64.1334 409.333 78.6667 416.933 83.6001C424.4 88.5334 435.333 87.7334 441.467 81.8667L444.667 78.9334V82.6667V86.4001L452.133 85.6001C456.267 85.2001 460.267 84.2667 461.067 83.4667C462.4 82.1334 461.733 81.7334 455.733 79.8667C454.4 79.4667 454 71.0667 454 43.3334V7.33341L448.4 7.46674C445.2 7.60007 441.333 8.00008 439.733 8.26675ZM441.733 40.1334C444.533 40.9334 444.667 41.4667 444.667 58.9334V76.8001L439.733 78.8001C433.2 81.6001 427.067 80.2667 422.8 75.2001C418.8 70.5334 417.467 64.4001 418.267 54.5334C419.067 44.4001 423.867 39.3334 432.533 39.3334C435.867 39.3334 440 39.7334 441.733 40.1334Z" fill="black"/>
<path d="M603.6 10.2667C601.067 12.8 601.6 19.0667 604.533 20.6667C606 21.3333 607.733 22 608.533 22C610.933 22 614 17.8667 614 14.6667C614 9.73333 607.067 6.8 603.6 10.2667Z" fill="black"/>
<path d="M145.2 13.8667C144.133 14.9333 146.267 16.6667 148.667 16.6667C154.8 16.6667 155.333 18.9333 155.333 49.8667C155.333 81.0667 155.333 80.8 148.267 82.5333C140.667 84.4 146.667 86 160.8 86C175.333 86 179.467 84.5333 171.067 82.2667C167.2 81.3333 166.533 80.5333 165.6 74.9333C165.067 71.4667 164.8 57.4667 164.933 43.7333L165.333 18.6667L170 18.2667C172.667 18.1333 176.667 18.9333 179.2 20.4C193.867 28.2667 190.267 51.7333 174.267 52.9333C167.6 53.4667 168.8 56.6667 175.733 56.6667C188.667 56.5333 198 48.2667 199.067 36C200 24.2667 193.467 16.1333 181.733 14.5333C174.933 13.6 146 13.0667 145.2 13.8667Z" fill="black"/>
<path d="M490.4 14.4C489.867 15.2 495.467 18 497.867 18C500.4 18 501.733 61.2 499.6 75.2C498.8 80.5333 498.133 81.3333 494.4 82.2667C485.867 84.5333 490 86 504.533 86C518.8 86 525.2 84.1333 516.8 82.5333C514.533 82 512.133 80.9333 511.333 80C510.4 78.9333 510.133 67.7333 510.267 48.5333L510.667 18.6667L517.2 18.8C522.933 18.8 524.267 19.4667 528.133 23.6C533.333 29.4667 534.8 35.4667 532.4 42.5333C530.4 48.6667 525.733 52.5333 519.733 52.9333C512.933 53.4667 514.133 56.6667 521.067 56.6667C534.8 56.6667 545.467 45.6 544.267 32.4C543.067 18 535.733 14.1333 509.333 13.6C499.333 13.4667 490.8 13.7333 490.4 14.4Z" fill="black"/>
<path d="M222.267 35.6001C219.867 36.4001 215.867 39.3334 213.333 42.1334C202.267 54.4001 204.533 76.0001 217.733 83.7334C223.467 87.0667 236.933 87.3334 242.8 84.2667C259.067 75.7334 261.6 48.1334 246.933 37.4667C242.667 34.2667 229.2 33.3334 222.267 35.6001ZM239.067 41.4667C243.6 44.4001 246 51.3334 246 61.3334C246 74.5334 240.933 82.0001 232 82.0001C223.067 82.0001 216.8 72.4001 216.667 58.9334C216.667 41.8667 227.067 33.7334 239.067 41.4667Z" fill="black"/>
<path d="M299.867 36.5334C294.133 39.2 292.133 42.1334 293.333 46.1334C294.133 48.4 294.667 48.2667 299.2 44.6667C309.733 36.1334 318.667 38.5334 320.133 50.2667C320.8 55.0667 320.533 56.8 319.2 57.2C318.133 57.6 313.867 58.8 309.733 60C305.333 61.2 300 63.8667 297.333 66.1334C293.333 69.6 292.667 71.2 292.667 75.8667C292.667 82.4 295.2 85.4667 301.6 86.8C306.667 87.7334 314.133 85.4667 317.333 82C320.4 78.6667 321.467 78.6667 322.4 82C323.333 85.7334 328.933 87.6 334 85.8667C337.733 84.5334 339.6 82 336.667 82C336 82 334.133 80.8 332.667 79.3334C330.4 77.0667 330 74.8 330 63.6C329.867 39.8667 326.533 34 312.933 34C308.4 34 303.067 35.0667 299.867 36.5334ZM320.667 68.4C320.667 75.3334 318.8 78.1334 312.933 80C308.933 81.2 302.267 78.4 301.333 75.2C300.933 73.8667 301.2 71.4667 302 70C303.733 66.8 313.067 62.1334 317.733 62C320.4 62 320.667 62.6667 320.667 68.4Z" fill="black"/>
<path d="M350.4 35.6C343.6 37.0667 343.2 38.2667 348.667 40.2667L352.667 41.7333V61.2V80.6667L349.333 82.2667C343.467 84.9333 345.733 86 357.333 86C368.933 86 371.2 84.9333 365.333 82.2667C362 80.6667 362 80.6667 362 62.6667V44.8L366 42.6667C370.4 40.4 377.067 40 380.667 42C384.4 44 386 51.6 386 67.0667C386 80.4 385.867 80.8 382.667 82C376.133 84.5333 379.2 86 390.667 86C402.267 86 404.533 84.9333 398.667 82.2667C395.333 80.8 395.333 80.5333 395.333 64C395.333 39.7333 392.133 34 378.667 34C372 34 367.2 36.1333 363.733 40.6667C362.4 42.4 362.133 42 362 38.2667C362 33.4667 360.8 33.2 350.4 35.6Z" fill="black"/>
<path d="M559.733 35.6C552.933 37.0667 552.533 38.2667 558 40.2667L562 41.7333V61.2V80.6667L558.667 82.2667C552.667 84.9333 555.067 86 567.333 86C579.6 86 582.4 84.6667 575.333 82.1333L571.333 80.8V62.9333V45.0667L574.8 43.4667C577.467 42.2667 579.467 42.2667 582.933 43.4667C586.8 44.6667 587.867 44.6667 588.8 43.2C591.867 38.2667 588.933 34 582.533 34C579.2 34 577.333 35.0667 574.8 38.2667L571.333 42.6667V38.2667C571.333 33.4667 570.133 33.2 559.733 35.6Z" fill="black"/>
<path d="M602.4 35.6C596 36.9333 595.067 38.6667 600 39.8667L603.333 40.6667V61.2V81.7333L600 82.5333C592.933 84.4 597.067 86 608.667 86C620.267 86 624.533 84.4 617.333 82.5333C613.067 81.4667 612.267 76.1333 612.933 52.2667C613.333 31.6 614.133 32.9333 602.4 35.6Z" fill="black"/>
<path d="M628.667 42.9333C628.667 52 630.533 54.1333 631.867 46.8C632.4 44.2667 633.467 41.6 634.4 40.9333C636.267 39.3333 655.333 38.1333 655.333 39.6C655.333 40.1333 649.6 49.2 642.667 59.8667C635.733 70.4 629.467 80.6667 628.667 82.5333L627.333 86H648.667H670V77.3333C670 68 668 65.7333 666.533 73.3333C666.133 75.8667 664.8 78.6667 663.733 79.4667C661.733 81.2 640.667 82.9333 640.667 81.4667C640.667 80.9333 646.667 71.2 654 59.7333C661.333 48.2667 667.333 37.8667 667.333 36.8C667.333 34.9333 664.667 34.6667 648 34.6667H628.667V42.9333Z" fill="black"/>
<path d="M692.667 35.4667C681.6 39.8667 675.867 54.1334 679.333 68.6667C682.533 82.0001 694.267 89.2001 707.867 86.1334C714.933 84.5334 722 80.1334 722 77.3334C722 75.7334 721.467 75.8667 718.4 77.4667C716.267 78.4001 711.733 79.3334 708 79.3334C696.8 79.3334 690.133 73.4667 688 61.6001L687.067 56.6667H704.267H721.6L720.667 50.5334C719.6 43.8667 716 38.1334 711.2 35.7334C707.333 33.7334 697.333 33.6001 692.667 35.4667ZM704.8 39.3334C707.867 41.0667 711.733 48.2667 710.933 50.6667C710.4 51.7334 706.533 52.4001 698.667 52.5334C688.4 52.8001 687.067 52.5334 687.867 50.6667C688.267 49.4667 688.667 47.7334 688.667 46.8001C688.667 43.8667 695.467 38.0001 698.933 38.0001C700.667 38.0001 703.333 38.6667 704.8 39.3334Z" fill="black"/>
</svg>
